STARTFONT 2.3
FONT -FontForge-Pacifico-Book-R-Normal--20-200-72-72-P-117-ISO10646-1
SIZE 20 72 72  2
FONTBOUNDINGBOX 45 38 -12 -9
COMMENT "Generated by fontforge, http://fontforge.sourceforge.net"
COMMENT "Copyright 2018 The Pacifico Project Authors (https://github.com/googlefonts/Pacifico)"
STARTPROPERTIES 41
FOUNDRY "FontForge"
FAMILY_NAME "Pacifico"
WEIGHT_NAME "Book"
SLANT "R"
SETWIDTH_NAME "Normal"
ADD_STYLE_NAME ""
PIXEL_SIZE 20
POINT_SIZE 200
RESOLUTION_X 72
RESOLUTION_Y 72
SPACING "P"
AVERAGE_WIDTH 117
CHARSET_REGISTRY "ISO10646"
CHARSET_ENCODING "1"
FONTNAME_REGISTRY ""
CHARSET_COLLECTIONS "ISO8859-2 ISO8859-5 ISO8859-9 ISO8859-4 ISO10646-1"
BITS_PER_PIXEL 2
FONT_NAME "Pacifico-Regular"
FACE_NAME "Pacifico Regular"
COPYRIGHT "Copyright 2018 The Pacifico Project Authors (https://github.com/googlefonts/Pacifico)"
FONT_VERSION "3.001"
FONT_ASCENT 16
FONT_DESCENT 4
UNDERLINE_POSITION -2
UNDERLINE_THICKNESS 1
X_HEIGHT 8
CAP_HEIGHT 15
DEFAULT_CHAR 1
RAW_ASCENT 800
RAW_DESCENT 200
NORM_SPACE 5
RELATIVE_WEIGHT 40
RELATIVE_SETWIDTH 50
SUPERSCRIPT_X 0
SUPERSCRIPT_Y 7
SUPERSCRIPT_SIZE 12
SUBSCRIPT_X 0
SUBSCRIPT_Y 1
SUBSCRIPT_SIZE 12
AVG_LOWERCASE_WIDTH 94
AVG_UPPERCASE_WIDTH 163
ENDPROPERTIES
CHARS 1514
STARTCHAR NULL.dup1
ENCODING 0
SWIDTH 0 0
DWIDTH 0 0
BBX 1 1 0 0
BITMAP
00
ENDCHAR
STARTCHAR nonmarkingreturn
ENCODING 13
SWIDTH 265 0
DWIDTH 5 0
BBX 1 1 0 0
BITMAP
00
ENDCHAR
STARTCHAR space
ENCODING 32
SWIDTH 265 0
DWIDTH 5 0
BBX 1 1 0 0
BITMAP
00
ENDCHAR
STARTCHAR exclam
ENCODING 33
SWIDTH 340 0
DWIDTH 7 0
BBX 8 16 0 0
BITMAP
007D
00BC
00FC
01F8
02F4
02F0
03E0
07D0
07C0
0B80
0B40
0000
2E00
7F40
7F40
2E00
ENDCHAR
STARTCHAR quotedbl
ENCODING 34
SWIDTH 510 0
DWIDTH 10 0
BBX 8 6 2 10
BITMAP
2D1F
7E3F
7D3F
BD3E
BC7D
B478
ENDCHAR
STARTCHAR numbersign
ENCODING 35
SWIDTH 700 0
DWIDTH 14 0
BBX 14 12 0 0
BITMAP
00140500
007D1F00
00BC2E00
1FFFFFD0
1FFFFFD0
02F0BC00
02E0F800
03E0F400
7FFFFF80
3FFFFF80
0F83D000
0B038000
ENDCHAR
STARTCHAR dollar
ENCODING 36
SWIDTH 524 0
DWIDTH 10 0
BBX 10 17 0 -3
BITMAP
000400
001C00
001C00
02FF40
0FFFD0
1F3AE0
1F3590
1FB400
07FD00
00BF80
28BBD0
7CA3D0
3EEBC0
1FFF40
01E400
01D000
01C000
ENDCHAR
STARTCHAR percent
ENCODING 37
SWIDTH 896 0
DWIDTH 18 0
BBX 17 15 1 0
BITMAP
0A80024000
3FF00BC000
B9F86F8000
F4FFFF0000
F4BFFD0000
F8B4F80000
7FE2F40000
1A43E0A800
000BC7FF00
001F4B4F40
003E0F0B80
007D1F0B80
00F80F0F40
01F00BFE00
01D002F800
ENDCHAR
STARTCHAR ampersand
ENCODING 38
SWIDTH 851 0
DWIDTH 17 0
BBX 16 19 1 -2
BITMAP
006FD000
01FFF400
03F4BC00
07D07C00
07D07C00
07D0F800
03E7F000
02FFC000
02FE0000
0FFE0019
3F6F807D
BD0FD1F8
F807F7F0
F801FFC0
BE45FF40
7FFFFFC0
0AFE4BF0
000003F4
00000050
ENDCHAR
STARTCHAR quotesingle
ENCODING 39
SWIDTH 290 0
DWIDTH 6 0
BBX 4 6 2 10
BITMAP
2D
7E
7D
BD
BC
B4
ENDCHAR
STARTCHAR parenleft
ENCODING 40
SWIDTH 613 0
DWIDTH 12 0
BBX 14 21 1 -3
BITMAP
0001BE40
001FFFE0
007F46E0
00FD0000
02F40000
03E00000
0BD00000
0FC00000
1F800000
1F400000
2F000000
3F000000
3E000000
3E000000
3E000000
7E000000
3E000000
3E00B000
2F46F000
0FFFD000
02FE0000
ENDCHAR
STARTCHAR parenright
ENCODING 41
SWIDTH 613 0
DWIDTH 12 0
BBX 14 21 -2 -3
BITMAP
000BF800
007FFF00
00F91F80
00E00BC0
000007D0
000007D0
000007D0
000007D0
00000BC0
00000BC0
00000F80
00000F80
00001F40
00002F00
00007E00
0000BD00
0001F800
0003F000
791FD000
BFFF4000
1BE80000
ENDCHAR
STARTCHAR asterisk
ENCODING 42
SWIDTH 520 0
DWIDTH 10 0
BBX 9 8 2 10
BITMAP
00A000
38F000
3EEB40
0BFF40
7FF400
7AEE00
03CE00
038000
ENDCHAR
STARTCHAR plus
ENCODING 43
SWIDTH 700 0
DWIDTH 14 0
BBX 12 12 1 0
BITMAP
000500
001E00
002E00
002E00
002D00
3FFFFD
7FFFFD
057D50
007C00
007C00
00B800
007400
ENDCHAR
STARTCHAR comma
ENCODING 44
SWIDTH 257 0
DWIDTH 5 0
BBX 4 7 0 -3
BITMAP
05
3F
7F
7E
7C
B8
B0
ENDCHAR
STARTCHAR hyphen
ENCODING 45
SWIDTH 403 0
DWIDTH 8 0
BBX 7 3 1 5
BITMAP
15A0
BFF4
BFA0
ENDCHAR
STARTCHAR period
ENCODING 46
SWIDTH 257 0
DWIDTH 5 0
BBX 5 4 0 0
BITMAP
2E00
7F40
7F00
2E00
ENDCHAR
STARTCHAR slash
ENCODING 47
SWIDTH 509 0
DWIDTH 10 0
BBX 11 18 0 0
BITMAP
000028
0000BC
0000F8
0002F0
0007E0
000BC0
001F40
003F00
007D00
00F800
02F400
03E000
0BC000
1F8000
2F0000
7D0000
BC0000
B40000
ENDCHAR
STARTCHAR zero
ENCODING 48
SWIDTH 543 0
DWIDTH 11 0
BBX 9 11 1 0
BITMAP
06FD00
1FFF40
3E1F80
BC0BC0
B807C0
F807C0
F80BC0
F80F80
BD2F40
3FFD00
1BE400
ENDCHAR
STARTCHAR one
ENCODING 49
SWIDTH 376 0
DWIDTH 8 0
BBX 6 12 1 0
BITMAP
0140
6FE0
BFD0
57D0
0BD0
0BC0
0BC0
0F80
0F80
1F80
1F40
0F00
ENDCHAR
STARTCHAR two
ENCODING 50
SWIDTH 560 0
DWIDTH 11 0
BBX 10 11 1 0
BITMAP
07FE00
2FFF80
3E0FC0
7C0BC0
280F80
002F40
00BD00
06F400
6F9000
FFFFD0
FFFFC0
ENDCHAR
STARTCHAR three
ENCODING 51
SWIDTH 520 0
DWIDTH 10 0
BBX 10 11 0 0
BITMAP
06FF40
1FFFD0
2F07E0
2D07D0
001F80
01FE00
006FC0
7807D0
7D1BD0
3FFFC0
1BFA00
ENDCHAR
STARTCHAR four
ENCODING 52
SWIDTH 577 0
DWIDTH 12 0
BBX 10 12 1 0
BITMAP
014000
03D000
0BC000
1F4780
2F0B80
7D0F80
BC0F40
FFFFF0
BFFFE0
002F00
002F00
001D00
ENDCHAR
STARTCHAR five
ENCODING 53
SWIDTH 518 0
DWIDTH 10 0
BBX 9 11 1 0
BITMAP
6FFFC0
7FFF80
2E0000
3D0000
7FE400
7FFE00
016F40
A00F40
F92F40
BFFE00
1BE400
ENDCHAR
STARTCHAR six
ENCODING 54
SWIDTH 541 0
DWIDTH 11 0
BBX 10 11 1 0
BITMAP
02FE00
1FFFC0
3E47D0
7C0140
BAFD00
FFFF40
FD1F80
FC0F80
BD2F40
3FFE00
1BF800
ENDCHAR
STARTCHAR seven
ENCODING 55
SWIDTH 497 0
DWIDTH 10 0
BBX 10 11 1 0
BITMAP
FFFFD0
FFFFD0
002F40
00F800
02F000
07D000
0FC000
1F8000
1F4000
2F0000
1E0000
ENDCHAR
STARTCHAR eight
ENCODING 56
SWIDTH 512 0
DWIDTH 10 0
BBX 10 11 0 0
BITMAP
02FF40
0FFFD0
1F42E0
1F02E0
0FDF80
07FF00
1F6FC0
3D07D0
7E07D0
3FFFC0
0BFA00
ENDCHAR
STARTCHAR nine
ENCODING 57
SWIDTH 541 0
DWIDTH 11 0
BBX 9 11 1 0
BITMAP
0BF900
2FFF40
7E1F80
BC0BC0
7D1FC0
3FFFC0
1BEBC0
500F80
F86F00
BFFD00
2FE000
ENDCHAR
STARTCHAR colon
ENCODING 58
SWIDTH 257 0
DWIDTH 5 0
BBX 5 10 0 0
BITMAP
0F40
2FC0
2FC0
1F40
0000
0000
2E00
7F40
7F00
2E00
ENDCHAR
STARTCHAR semicolon
ENCODING 59
SWIDTH 257 0
DWIDTH 5 0
BBX 5 13 0 -3
BITMAP
0F40
2FC0
2FC0
1F40
0000
0000
0500
3F00
7F00
7E00
7C00
B800
B000
ENDCHAR
STARTCHAR less
ENCODING 60
SWIDTH 700 0
DWIDTH 14 0
BBX 12 9 1 1
BITMAP
000005
0001BF
006FF9
1BFE40
7F9000
3FE400
06FF90
001BFC
0001B8
ENDCHAR
STARTCHAR equal
ENCODING 61
SWIDTH 700 0
DWIDTH 14 0
BBX 12 6 1 3
BITMAP
2FFFFE
3FFFFE
000000
000000
7FFFFD
7FFFFC
ENDCHAR
STARTCHAR greater
ENCODING 62
SWIDTH 700 0
DWIDTH 14 0
BBX 12 9 1 1
BITMAP
140000
2F9000
1BFE40
006FF8
0006FE
001BFD
06FF90
7FE400
790000
ENDCHAR
STARTCHAR question
ENCODING 63
SWIDTH 476 0
DWIDTH 10 0
BBX 10 16 1 0
BITMAP
06FE00
1FFFC0
3E1BD0
7C0BD0
280FC0
002F40
00BD00
02F400
07C000
0B4000
0E0000
000000
2D0000
BF0000
BF0000
7D0000
ENDCHAR
STARTCHAR at
ENCODING 64
SWIDTH 1015 0
DWIDTH 20 0
BBX 20 19 0 -5
BITMAP
0001AFF900
001BFFFFD0
007F9007F4
01F80000BC
07E000003D
0FC01F402E
1F40BFF02E
2F02F5F02E
3E07D2F03D
3E0BC2E07D
7D0B83E0BC
7D0BCBE2F4
3E07FEFFD0
3F02F8BE40
1F40000000
0FD0000050
03F9005BE0
00BFFFFF90
001BFFE400
ENDCHAR
STARTCHAR A
ENCODING 65
SWIDTH 786 0
DWIDTH 16 0
BBX 18 16 1 0
BITMAP
0001BFE900
002FFFFE00
01FF956900
07F4029000
0FD007E000
2F8007D000
3F000BC000
7E000FC000
BD001F8000
BC002F4000
FC003F4000
BD007F4000
BE00FF41D0
7F97EF9BC0
1FFF4FFF40
06F906F800
ENDCHAR
STARTCHAR B
ENCODING 66
SWIDTH 827 0
DWIDTH 17 0
BBX 18 17 0 -1
BITMAP
005AFFE400
0BFFFFFF40
7FE5416FC0
7900000BD0
00BC000BD0
00FC001FC0
01F801BF40
01F47FF900
02F0BFD000
03F006F800
03E000FC00
07E000FC00
07D001FC00
0BD05BF400
0BFFFFD000
0BFFE90000
0B80000000
ENDCHAR
STARTCHAR C
ENCODING 67
SWIDTH 686 0
DWIDTH 14 0
BBX 16 16 1 0
BITMAP
001BF900
00FFFF40
07F91F80
0FD00BC0
2F400BC0
3F000B80
7E000100
BD000000
BD000000
BD000000
BD000000
7E000000
3F400014
1FE406BD
07FFFFF8
006FFA40
ENDCHAR
STARTCHAR D
ENCODING 68
SWIDTH 836 0
DWIDTH 17 0
BBX 16 16 1 0
BITMAP
01BFE900
2FFFFF80
FE956FE0
E40002F8
02F000FC
03E000BD
07D000BD
0BD000BD
0BC000BD
0F8000FC
1F8001F8
1F4003F4
2F401FE0
2F55BF80
2FFFFD00
1BFE9000
ENDCHAR
STARTCHAR E
ENCODING 69
SWIDTH 686 0
DWIDTH 14 0
BBX 16 16 0 0
BITMAP
001BFE40
00BFFFE0
03F947F0
07E001F4
07E002F0
03F40050
00BFD000
02FFD000
1FE40000
3F400000
7E000000
7E000000
7F000006
2FD405BF
0BFFFFFD
01AFFE90
ENDCHAR
STARTCHAR F
ENCODING 70
SWIDTH 712 0
DWIDTH 14 0
BBX 19 16 0 0
BITMAP
001AFFFFA4
02FFFFFFF8
0BE5F80150
0F40F80000
1F41F80000
0F81F80000
0501F40000
002FFFF800
002FFFF800
0002F00000
0003F00000
0003E00000
A00BD00000
F92FC00000
7FFF400000
1BF8000000
ENDCHAR
STARTCHAR G
ENCODING 71
SWIDTH 811 0
DWIDTH 16 0
BBX 18 25 1 -9
BITMAP
001BFA0000
00BFFF8000
07F91BD000
0FD003E000
2F4007D000
3F0007D000
7E00010000
BD00000000
BD00000000
BD00BFF000
BD00BFF000
7E0002F000
3F4002E1D0
1FE417EBD0
07FFFFFE00
006FEBF400
00000FC000
00007F8000
0001FB8000
0003CF4000
000B5F0000
001E2E0000
001E7C0000
001FF40000
000BD00000
ENDCHAR
STARTCHAR H
ENCODING 72
SWIDTH 873 0
DWIDTH 17 0
BBX 21 17 -1 0
BITMAP
00000000BD00
01BE0002FE00
0BFF400BDB00
2E5F800F4B00
780F801F0F00
200F802E1E00
000F803E2C00
000F807EF400
001F40BF8000
03FFFFFD0000
03FFFAFC0000
003E00BC0000
007E00BC0000
007D00BD01C0
00BC007E5B80
00F8002FFF00
00B4000BF400
ENDCHAR
STARTCHAR I
ENCODING 73
SWIDTH 495 0
DWIDTH 10 0
BBX 12 16 -1 0
BITMAP
02FFFE
03FFFE
001F80
001F80
001F40
002F40
002F00
003F00
003E00
007E00
007D00
00BD00
00BC00
00FC00
2FFFE0
7FFFE0
ENDCHAR
STARTCHAR J
ENCODING 74
SWIDTH 743 0
DWIDTH 15 0
BBX 15 18 1 -2
BITMAP
01AFFF90
1BFFFFF4
3F501BE0
7C000BC0
BC000FC0
7C000FC0
28000F80
00001F40
0002FF40
001FFF00
00BE2F00
02F43E00
07D07D00
0F80B800
0F81F400
0F87E000
0BFF8000
02FE0000
ENDCHAR
STARTCHAR K
ENCODING 75
SWIDTH 937 0
DWIDTH 19 0
BBX 22 16 0 0
BITMAP
00AFF9007C00
07FFFE00BC00
1F90FD01F800
2F00F802F400
2E01F807E000
1F01F41F8000
0502F5BE0000
000FFFE40000
000FFF900000
0003E7F40000
0007E1F80000
2007D0FD0040
780BC07E01D0
7D1F803F9BC0
2FFF001FFF00
07F80006F800
ENDCHAR
STARTCHAR L
ENCODING 76
SWIDTH 673 0
DWIDTH 13 0
BBX 17 16 -1 0
BITMAP
0000AFE000
0007FFFC00
001FD0BD00
003F003E00
007E003E00
00BD003D00
00BC000000
00BC000000
00FC000000
00F8000000
00F8000000
00F8000040
2FF90002C0
BFFFE51B80
BFEBFFFE00
6F806FE400
ENDCHAR
STARTCHAR M
ENCODING 77
SWIDTH 1232 0
DWIDTH 25 0
BBX 27 16 0 0
BITMAP
06F407E407F400
1FFC2FFC2FFC00
7D7DB87DB8BD00
F07DD03ED07E00
407E803F807D00
007F407F40BD00
00BF007F00FC00
00BE00BE00F800
00FD00BD01F800
00FC00FC02F400
01F800F802F000
01F801F803F000
02F402F403F01C
02F402F402F47C
02F002F001FFF4
01E001E0006F80
ENDCHAR
STARTCHAR N
ENCODING 78
SWIDTH 884 0
DWIDTH 18 0
BBX 21 16 0 0
BITMAP
06F806F90000
1FFD1FFF0000
7D7D792F4000
F07DE01F8000
407EC01F4000
007F402F4000
00BF003F0000
00BE003E0000
00FD007E0000
00FC00BD0000
01F800BC0000
01F800FC0000
02F400FC0740
02F400BD1F00
02F0007FFD00
01E0001BE000
ENDCHAR
STARTCHAR O
ENCODING 79
SWIDTH 816 0
DWIDTH 16 0
BBX 15 16 1 0
BITMAP
001BF900
01BFFF80
07F91BE0
0FD002F4
2F4001F8
3F0000FC
7E0000FC
BD0000FC
BD0000F8
BD0001F8
BD0002F4
7E0007E0
3F000FD0
2FD17F40
0BFFFD00
01BF9000
ENDCHAR
STARTCHAR P
ENCODING 80
SWIDTH 805 0
DWIDTH 16 0
BBX 16 19 1 -3
BITMAP
0006FE40
007FFFF0
02F917F8
0BD000FD
1F47C0BD
2E0BC0BD
7C0FC0BD
B80F81F8
B81F4BF0
F5FFFF80
F5FFF900
F43F0000
F43E0000
F47E0000
B87D0000
7DBD0000
3FFC0000
0FF40000
01500000
ENDCHAR
STARTCHAR Q
ENCODING 81
SWIDTH 816 0
DWIDTH 16 0
BBX 17 22 1 -6
BITMAP
001BF90000
00BFFF8000
07F91BE000
0FD002F400
2F4001F800
3F0000FC00
7E0000FC00
BD0000FC00
BD0000F800
BD0001F800
BD0002F400
7E0007E000
7F000FD000
2FD5BF4000
0BFFFD0000
01BFE00000
000BE00000
0003F40000
0001FC0280
0000FE0B40
00007FFE00
00001BF400
ENDCHAR
STARTCHAR R
ENCODING 82
SWIDTH 880 0
DWIDTH 18 0
BBX 19 16 1 0
BITMAP
001AFE4000
00BFFFF000
07F917F800
0F8140FC00
2F0BC0FC00
3D0F80FC00
7C1F82F400
B81F5BE000
B4FFFE4000
F4BFFD0000
F43E7F4000
B43E1FC000
B87D0BE01C
7DBD07F47C
2FFC01FFF0
06F4007F80
ENDCHAR
STARTCHAR S
ENCODING 83
SWIDTH 693 0
DWIDTH 14 0
BBX 14 16 0 0
BITMAP
002BF900
01FFFFC0
07F51BE0
0BC002E0
0FC002E0
0BD002D0
07F90000
01FF9000
002FFD00
0001BF40
2D001FC0
7D000BC0
7D000FC0
3F506F80
1FFFFE00
02BFE400
ENDCHAR
STARTCHAR T
ENCODING 84
SWIDTH 697 0
DWIDTH 14 0
BBX 18 16 0 0
BITMAP
006BFFFFE0
0BFFFFFFF0
2F94FC0140
7D00F80000
7C01F80000
3D01F40000
1802F40000
0003F00000
0003E00000
0007E00000
0007D00000
000BD00000
000BD00000
000FC00000
000FC00000
000B800000
ENDCHAR
STARTCHAR U
ENCODING 85
SWIDTH 890 0
DWIDTH 18 0
BBX 21 16 0 0
BITMAP
06F8000B4000
1FFE000F8000
7D7F001F8000
F03F001F4000
403E002F4000
007E003F0000
00BD003F0000
00BC007E0000
00FC00BE0000
01F801FD0000
01F402FD0000
02F407BD0100
02F41EBD0740
02F9BCBE6F00
01FFF47FFD00
006F801BE000
ENDCHAR
STARTCHAR V
ENCODING 86
SWIDTH 763 0
DWIDTH 15 0
BBX 16 16 2 0
BITMAP
2E002F80
3F00BFD0
3E01F6E0
7E02D2E0
7D02D2E0
7D02E3E0
BD01F7D0
BD00BFD0
BD002FFF
7D002FBE
7D007E00
7E00FC00
3F02F400
2FEFD000
0FFF4000
06F80000
ENDCHAR
STARTCHAR W
ENCODING 87
SWIDTH 1217 0
DWIDTH 24 0
BBX 25 16 2 0
BITMAP
2E0007C00BE000
3F000BD02FF800
3E000FC07DBC00
7E000FC078BC00
7D001F80B4B800
7D002F8078B800
BD003F803DF400
BD007F802FF400
BD00BF800BFFC0
BD00FF8007EFC0
7D01FB800F8000
7E03DBC02F0000
3F0BC7D0BD0000
2FBF43FBF40000
1FFD02FFD00000
07E400BE400000
ENDCHAR
STARTCHAR X
ENCODING 88
SWIDTH 712 0
DWIDTH 14 0
BBX 17 16 0 0
BITMAP
07F8007D00
2FFE01FC00
B87F03F400
901F8FD000
000FEF4000
000BFD0000
0007F40000
000BE00000
001FF00000
007FF40000
01FDF80000
07F0FC0000
1FD0BD0280
7F407E5B80
FD002FFE00
F8000BE400
ENDCHAR
STARTCHAR Y
ENCODING 89
SWIDTH 851 0
DWIDTH 17 0
BBX 19 22 0 -6
BITMAP
06F8000B40
1FFE000F80
7D7F001F80
F03F001F40
903E002F40
007E003F00
00BD007F00
00BC00BF00
00FC00FE00
00F802FE00
00F807BD00
00FD1E7D00
00BFFC7EBC
002FE5FFF8
00006FFD40
0002E4F800
000B41F400
002E02F000
003D03E000
003E1BC000
003FFF4000
000BF90000
ENDCHAR
STARTCHAR Z
ENCODING 90
SWIDTH 721 0
DWIDTH 14 0
BBX 17 16 0 0
BITMAP
00AFFE9400
0BFFFFFD00
1F9406FD00
2E0007F000
2E000FD000
2F002F8000
05007F0000
0000FD0000
0002F80000
000BE00000
001FC00000
007F400040
2FFE0002C0
BFFFE51B80
BFFBFFFE00
2F806FE400
ENDCHAR
STARTCHAR bracketleft
ENCODING 91
SWIDTH 405 0
DWIDTH 8 0
BBX 9 19 1 -1
BITMAP
02FF80
07FF80
07D000
0BC000
0BC000
0F8000
0F8000
1F4000
1F4000
2F4000
2F0000
2F0000
3E0000
3E0000
7D0000
7D0000
BD0000
BFF800
7FF800
ENDCHAR
STARTCHAR backslash
ENCODING 92
SWIDTH 509 0
DWIDTH 10 0
BBX 7 18 2 0
BITMAP
7400
B800
BC00
7D00
3E00
2F00
1F40
0F80
0FC0
0BC0
07D0
03E0
02F0
01F4
00F8
00BC
007C
0038
ENDCHAR
STARTCHAR bracketright
ENCODING 93
SWIDTH 405 0
DWIDTH 8 0
BBX 9 19 -1 -1
BITMAP
07FF40
0BFF80
001F80
001F40
001F40
002F00
002F00
003F00
003E00
007E00
007D00
007D00
00BC00
00BC00
00F800
00F800
01F400
BFF400
BFE000
ENDCHAR
STARTCHAR asciicircum
ENCODING 94
SWIDTH 700 0
DWIDTH 14 0
BBX 10 10 2 1
BITMAP
007800
00FC00
01FD00
03EE00
0B8F00
1F0B40
2E0780
7C03C0
F402D0
E001D0
ENDCHAR
STARTCHAR underscore
ENCODING 95
SWIDTH 354 0
DWIDTH 7 0
BBX 8 2 -1 -2
BITMAP
7FFD
7FFD
ENDCHAR
STARTCHAR grave
ENCODING 96
SWIDTH 600 0
DWIDTH 12 0
BBX 5 6 2 10
BITMAP
7800
BC00
3E00
1F00
0780
0280
ENDCHAR
STARTCHAR a
ENCODING 97
SWIDTH 470 0
DWIDTH 9 0
BBX 12 9 0 0
BITMAP
01B800
07FF80
1F9F80
2F0F40
3D1F40
7D2F0B
7D7F6E
3FFFF8
1B87E0
ENDCHAR
STARTCHAR b
ENCODING 98
SWIDTH 473 0
DWIDTH 9 0
BBX 11 18 1 0
BITMAP
00B800
03FD00
0BAE00
0F1D00
2E2D00
3D3C00
3D7800
7CB000
BDD000
BFF800
BFBE00
FC7F04
F87FFC
F81FF8
B81E00
7D7D00
3FF800
0BE000
ENDCHAR
STARTCHAR c
ENCODING 99
SWIDTH 368 0
DWIDTH 7 0
BBX 10 9 0 0
BITMAP
02F800
0FFD00
2F6D00
3D2C00
7D0000
7D00B0
3E47E0
2FFF80
07F900
ENDCHAR
STARTCHAR d
ENCODING 100
SWIDTH 515 0
DWIDTH 10 0
BBX 13 18 0 0
BITMAP
00007D00
0000FF00
0002EB00
0003CB00
0007CB00
000B8F00
000B8E00
000F5D00
000F6C00
01BF7400
07FFF000
1F9FD000
2E1FC000
3D1F4000
7D0F4280
7E6F9B80
3FFBFE00
1B92F400
ENDCHAR
STARTCHAR e
ENCODING 101
SWIDTH 393 0
DWIDTH 8 0
BBX 11 9 0 0
BITMAP
02F800
0FFE00
2F6E00
3D2D00
7DB800
7F9074
3E46F4
2FFFD0
06F900
ENDCHAR
STARTCHAR f
ENCODING 102
SWIDTH 371 0
DWIDTH 7 0
BBX 9 24 1 -6
BITMAP
006D00
01FF00
03DB40
07CB40
0B8B00
1F4F00
2F1D00
2E2C00
3E7400
7DE000
7F8000
BE0000
BC0000
BAFF40
FBFF40
FB8000
FAC000
F9C000
F9C000
B9D000
B9D000
7EC000
3F8000
1E0000
ENDCHAR
STARTCHAR g
ENCODING 103
SWIDTH 479 0
DWIDTH 10 0
BBX 12 18 0 -9
BITMAP
01B800
07FF80
1F9F80
2F0F40
3D1F40
7D2F1E
7D7FBD
3FFFF4
1BAF80
00BD00
02FC00
0FBC00
2DB800
78F400
F1F000
F7D000
FF8000
7E0000
ENDCHAR
STARTCHAR h
ENCODING 104
SWIDTH 502 0
DWIDTH 10 0
BBX 12 18 1 0
BITMAP
00B800
03FD00
0BAE00
0F1E00
1E2D00
2E3C00
3D7400
7CF000
7ED000
BF5F00
BEBF40
B9FF40
FB9F00
FF2E00
FE2E0E
FD3E7D
FC2FF4
B41F90
ENDCHAR
STARTCHAR i
ENCODING 105
SWIDTH 246 0
DWIDTH 5 0
BBX 7 13 1 0
BITMAP
2F40
3F40
2E00
0000
3C00
7C00
BC00
B800
F800
F474
F9F4
BFD0
2E40
ENDCHAR
STARTCHAR j
ENCODING 106
SWIDTH 254 0
DWIDTH 5 0
BBX 13 22 -5 -9
BITMAP
0002E000
000BF000
0007D000
00000000
0003C000
0007C000
000BC000
000BC000
000B8000
000F8B40
000FBE00
000FF800
001FD000
003F0000
01FE0000
07BD0000
1E3C0000
3C780000
78B40000
B9F00000
7FD00000
2F400000
ENDCHAR
STARTCHAR k
ENCODING 107
SWIDTH 525 0
DWIDTH 11 0
BBX 12 18 1 0
BITMAP
00B800
03FD00
0BAE00
0F1E00
1E2D00
2E3C00
3D7400
7CE000
7EC000
BF5F40
BDBFC0
B9D7D0
FB87C0
FF2F41
FEBD0B
FDBD2E
BC7FF8
741BE0
ENDCHAR
STARTCHAR l
ENCODING 108
SWIDTH 326 0
DWIDTH 7 0
BBX 8 18 1 0
BITMAP
00B8
03FD
0BAD
0F1E
1E1D
2D2D
3D3C
7C78
7CB4
B8E0
BAD0
FB80
FF00
BD01
B80B
7D6E
3FF8
1BE0
ENDCHAR
STARTCHAR m
ENCODING 109
SWIDTH 744 0
DWIDTH 15 0
BBX 17 9 1 0
BITMAP
2C2E0BC000
7CBF2FC000
BAFEBFC000
BB6EEB8000
FF2FCB8100
FD3F4F4740
FC3F0F9F40
F83E0FFD00
742D07E400
ENDCHAR
STARTCHAR n
ENCODING 110
SWIDTH 496 0
DWIDTH 10 0
BBX 12 9 1 0
BITMAP
2C2F00
7CBF40
BAFF00
BBAF00
FF2E00
FD3D1D
FC3E7D
F83FF4
741F90
ENDCHAR
STARTCHAR o
ENCODING 111
SWIDTH 451 0
DWIDTH 9 0
BBX 12 9 0 0
BITMAP
02F800
1FFF00
2F7F40
3D2FFE
7D0FFD
7D0F40
3E2F00
2FFD00
07E400
ENDCHAR
STARTCHAR p
ENCODING 112
SWIDTH 481 0
DWIDTH 10 0
BBX 15 18 -3 -9
BITMAP
0079B800
00BFFE00
00BE2E00
00BC2F00
00B82E00
00F87D1C
01F8FCBC
03FFFFF0
0BFFAF80
0EB80000
1DF40000
2CF40000
38F40000
79F00000
75E00000
7AD00000
3FC00000
2E400000
ENDCHAR
STARTCHAR q
ENCODING 113
SWIDTH 500 0
DWIDTH 10 0
BBX 13 18 0 -8
BITMAP
0002D000
01BFD000
07FFC000
1F9B8000
2F0F8000
3D1F4000
7D2F7F80
7D7EBF40
3FFEB000
1BBD7000
007D7000
007CB000
007CB000
007CA000
007CE000
007ED000
003FC000
001F4000
ENDCHAR
STARTCHAR r
ENCODING 114
SWIDTH 455 0
DWIDTH 9 0
BBX 11 9 1 0
BITMAP
2C2F00
7CBF40
BAFF00
BB9F28
FF1FF8
FD0FE0
FC0000
F80000
740000
ENDCHAR
STARTCHAR s
ENCODING 115
SWIDTH 427 0
DWIDTH 9 0
BBX 11 9 0 0
BITMAP
00B000
02E000
03E000
0BF400
1EBD04
3C3E2C
F6BFF8
D7FFF0
02FF80
ENDCHAR
STARTCHAR t
ENCODING 116
SWIDTH 393 0
DWIDTH 8 0
BBX 11 17 0 0
BITMAP
002E00
00BF80
01F780
02D780
03C740
07CB00
0B9D00
0FB800
BFFFC0
FFFF80
1F4000
1F4000
1F4000
0F4074
0BD1F4
07FFD0
01BE00
ENDCHAR
STARTCHAR u
ENCODING 117
SWIDTH 462 0
DWIDTH 9 0
BBX 11 9 1 0
BITMAP
2D1E00
7C2E00
BC3D00
B87D00
F4BC04
F5F828
FFFDB8
BF7FE0
7D2E40
ENDCHAR
STARTCHAR v
ENCODING 118
SWIDTH 449 0
DWIDTH 9 0
BBX 11 9 1 0
BITMAP
B42D00
F4BE00
F4BE10
F4BFF8
F8FFE4
FAE000
BFC000
BF4000
2D0000
ENDCHAR
STARTCHAR w
ENCODING 119
SWIDTH 700 0
DWIDTH 14 0
BBX 16 9 1 0
BITMAP
B42D0B40
F43D2F80
F4BD2F84
F4FE2FFE
F9FE3FF9
FBEEB800
BFAFF000
BF5FD000
2D0B4000
ENDCHAR
STARTCHAR x
ENCODING 120
SWIDTH 529 0
DWIDTH 11 0
BBX 13 9 0 0
BITMAP
0BD1F800
1FFBF800
1EBF7400
007E0000
147D0040
78BD02C0
B9FE0B80
7FFFFE00
2F4BF400
ENDCHAR
STARTCHAR y
ENCODING 121
SWIDTH 479 0
DWIDTH 10 0
BBX 12 18 0 -9
BITMAP
0B4780
1F0B80
2F0F40
2E1F40
3D2F00
3D7F1E
3FFFBD
2FEFE4
1F6F40
00BD00
02FC00
0BBC00
2DB800
78F400
F1F000
F7D000
FF8000
7E0000
ENDCHAR
STARTCHAR z
ENCODING 122
SWIDTH 445 0
DWIDTH 9 0
BBX 11 9 1 0
BITMAP
BFFF40
BFFF40
02FD00
1FD000
7E0010
BC0074
BE06F0
7FFFD0
1BF900
ENDCHAR
STARTCHAR braceleft
ENCODING 123
SWIDTH 490 0
DWIDTH 10 0
BBX 11 20 1 -2
BITMAP
000BF4
003FF4
00BD00
00F800
00F800
00F800
01F400
01F400
07F000
BFD000
BFC000
07D000
03E000
07D000
07D000
0BC000
0BC000
07E000
03FF40
01BF40
ENDCHAR
STARTCHAR bar
ENCODING 124
SWIDTH 326 0
DWIDTH 7 0
BBX 7 24 0 -6
BITMAP
00B4
01F4
01F0
01F0
02F0
02E0
03E0
03D0
07D0
07C0
0BC0
0B80
0F80
0F40
1F40
1F00
1F00
2F00
2E00
3E00
3D00
7D00
7D00
7800
ENDCHAR
STARTCHAR braceright
ENCODING 125
SWIDTH 490 0
DWIDTH 10 0
BBX 11 20 -1 -2
BITMAP
07F800
0BFE00
006F40
001F40
001F40
002F00
002F00
002F40
001FF8
001FF8
003E40
007D00
00BC00
00BC00
00BC00
00F800
00F800
06F400
BFE000
BE4000
ENDCHAR
STARTCHAR asciitilde
ENCODING 126
SWIDTH 700 0
DWIDTH 14 0
BBX 12 5 1 3
BITMAP
014005
1FF42E
3EBFBD
7C1FF8
1002E0
ENDCHAR
STARTCHAR uni00A0
ENCODING 160
SWIDTH 265 0
DWIDTH 5 0
BBX 1 1 0 0
BITMAP
00
ENDCHAR
STARTCHAR exclamdown
ENCODING 161
SWIDTH 340 0
DWIDTH 7 0
BBX 7 17 -1 -8
BITMAP
00B8
01FC
02FC
01F4
0000
01D0
02D0
03D0
07C0
0BC0
0F80
1F40
2F40
3F00
3E00
7E00
7C00
ENDCHAR
STARTCHAR cent
ENCODING 162
SWIDTH 466 0
DWIDTH 9 0
BBX 8 14 1 -3
BITMAP
0040
00D0
00D0
0BF8
3FFD
B9DE
F69C
F680
F74A
BFAE
3FF8
0B90
0700
0600
ENDCHAR
STARTCHAR sterling
ENCODING 163
SWIDTH 525 0
DWIDTH 11 0
BBX 11 11 0 0
BITMAP
00BF90
02FFF4
07E1F4
0B8060
0F8000
7FFF00
7FFE00
1F4000
1F4000
7FFFF0
7FFFE0
ENDCHAR
STARTCHAR currency
ENCODING 164
SWIDTH 700 0
DWIDTH 14 0
BBX 10 9 2 1
BITMAP
76F9E0
7FFFD0
1E4B80
2C02C0
3C02D0
3C02C0
1E0B80
3FFFD0
7AF9E0
ENDCHAR
STARTCHAR yen
ENCODING 165
SWIDTH 497 0
DWIDTH 10 0
BBX 11 12 0 0
BITMAP
140014
7D00F8
3E02F0
1F47D0
0F8F80
07EF00
03FD00
3FFFC0
05F500
3FFFC0
06F500
02E000
ENDCHAR
STARTCHAR brokenbar
ENCODING 166
SWIDTH 326 0
DWIDTH 7 0
BBX 7 24 0 -6
BITMAP
00B4
01F4
01F0
02F0
02E0
03E0
03E0
03D0
07D0
07C0
0140
0000
0000
0500
0F40
1F40
1F00
2F00
2E00
3E00
3D00
7D00
7D00
7800
ENDCHAR
STARTCHAR section
ENCODING 167
SWIDTH 607 0
DWIDTH 12 0
BBX 10 16 1 0
BITMAP
00BF80
07FFE0
0BD1F0
0F40F0
0BC0A0
07F900
1FBF80
2E0BE0
2F02E0
1FE7D0
06FF80
242F80
B807C0
BD1BC0
7FFF40
1BF900
ENDCHAR
STARTCHAR dieresis
ENCODING 168
SWIDTH 600 0
DWIDTH 12 0
BBX 8 3 2 10
BITMAP
2D2D
7E3E
3D2D
ENDCHAR
STARTCHAR copyright
ENCODING 169
SWIDTH 647 0
DWIDTH 13 0
BBX 13 11 1 7
BITMAP
01BF9000
0795B400
1D2F5D00
38A28B00
75C14700
75C00740
75C00740
38D18B00
1D7E5D00
0B407800
01BF9000
ENDCHAR
STARTCHAR ordfeminine
ENCODING 170
SWIDTH 393 0
DWIDTH 8 0
BBX 8 8 1 9
BITMAP
02E4
0FFD
2E3D
3C3D
7C7C
7CBC
7EFC
1E78
ENDCHAR
STARTCHAR guillemotleft
ENCODING 171
SWIDTH 615 0
DWIDTH 12 0
BBX 12 7 0 1
BITMAP
01E02D
0BE1FD
7F4BE0
7D0F80
2F8BE0
0BE1FC
01E02C
ENDCHAR
STARTCHAR logicalnot
ENCODING 172
SWIDTH 700 0
DWIDTH 14 0
BBX 12 6 1 0
BITMAP
3FFFFD
7FFFFE
00003D
00003D
00007C
000078
ENDCHAR
STARTCHAR uni00AD
ENCODING 173
SWIDTH 403 0
DWIDTH 8 0
BBX 7 3 1 5
BITMAP
15A0
BFF4
BFA0
ENDCHAR
STARTCHAR registered
ENCODING 174
SWIDTH 647 0
DWIDTH 13 0
BBX 13 11 1 7
BITMAP
01BF9000
0795B400
1DBE5D00
3872CB00
74728700
74BD0740
74AA0740
38D74B00
1D825D00
0B407800
01BF9000
ENDCHAR
STARTCHAR macron
ENCODING 175
SWIDTH 600 0
DWIDTH 12 0
BBX 7 2 3 10
BITMAP
FFF4
FFF0
ENDCHAR
STARTCHAR degree
ENCODING 176
SWIDTH 385 0
DWIDTH 8 0
BBX 6 6 2 10
BITMAP
2F80
BFE0
F0F0
F5F0
BFE0
2F80
ENDCHAR
STARTCHAR plusminus
ENCODING 177
SWIDTH 700 0
DWIDTH 14 0
BBX 10 11 2 0
BITMAP
007800
00B800
05B940
7FFFF0
7FFFE0
00F400
00F000
00E000
155500
FFFFC0
FFFFC0
ENDCHAR
STARTCHAR uni00B2
ENCODING 178
SWIDTH 450 0
DWIDTH 9 0
BBX 8 10 1 7
BITMAP
0BF4
2FBD
3C2E
382E
103D
00B8
02E0
2F80
BFFE
BFFE
ENDCHAR
STARTCHAR uni00B3
ENCODING 179
SWIDTH 450 0
DWIDTH 9 0
BBX 8 10 1 7
BITMAP
07F8
2FBE
3C1F
142E
01F8
02F8
107E
B42E
7EBD
1BE4
ENDCHAR
STARTCHAR acute
ENCODING 180
SWIDTH 600 0
DWIDTH 12 0
BBX 5 6 5 10
BITMAP
0740
0F80
1F40
3D00
7800
6000
ENDCHAR
STARTCHAR uni00B5
ENCODING 181
SWIDTH 462 0
DWIDTH 9 0
BBX 12 14 0 -5
BITMAP
0B4780
1F0B80
2F0F40
2E1F40
3D2F01
3D7E0A
7FFF6E
7FDFF8
7F4B90
7C0000
7C0000
7C0000
7C0000
780000
ENDCHAR
STARTCHAR paragraph
ENCODING 182
SWIDTH 739 0
DWIDTH 15 0
BBX 12 16 2 0
BITMAP
06FFE8
2FFFFE
BFFE3F
FFFD3F
FFFC3E
BFFC7D
1FF87D
01F8BC
01F4BC
01F4F8
02F0F8
03F1F4
03E1F4
03E2F4
07E2F0
03D1E0
ENDCHAR
STARTCHAR periodcentered
ENCODING 183
SWIDTH 257 0
DWIDTH 5 0
BBX 4 4 1 3
BITMAP
7D
FE
FE
B8
ENDCHAR
STARTCHAR cedilla
ENCODING 184
SWIDTH 600 0
DWIDTH 12 0
BBX 6 6 1 -5
BITMAP
1F80
2FE0
01F0
01E0
BFD0
BE40
ENDCHAR
STARTCHAR uni00B9
ENCODING 185
SWIDTH 450 0
DWIDTH 9 0
BBX 6 10 2 7
BITMAP
1AD0
BFE0
A7D0
03D0
07C0
07C0
0BC0
0B80
0B80
0B40
ENDCHAR
STARTCHAR ordmasculine
ENCODING 186
SWIDTH 408 0
DWIDTH 8 0
BBX 8 8 1 9
BITMAP
07E4
1FFC
3D3D
7C2E
7C2D
3D7C
2FF8
0A90
ENDCHAR
STARTCHAR guillemotright
ENCODING 187
SWIDTH 615 0
DWIDTH 12 0
BBX 11 7 1 1
BITMAP
B41E00
BE1F80
2F87F4
07D1F8
1FD7F4
BE1FD0
F42D00
ENDCHAR
STARTCHAR onequarter
ENCODING 188
SWIDTH 955 0
DWIDTH 19 0
BBX 17 17 2 0
BITMAP
1AD0000000
BFE0000000
A7D0000000
03D00A0000
07C02F0000
07C07D0000
0BC0F80000
0B82F1E000
0B83D3D000
0B4B879E00
001F4F6E00
003E1F2D00
00BC2D3D00
01F43FFF40
00E02FFF40
0000007C00
0000007800
ENDCHAR
STARTCHAR onehalf
ENCODING 189
SWIDTH 1024 0
DWIDTH 20 0
BBX 18 17 2 0
BITMAP
1AD0000000
BFE0000000
A7D0000000
03D00A0000
07C02F0000
07C07D0000
0BC0F80000
0B82F1BE40
0B83D3EFC0
0B4B8B83D0
001F4B43D0
003E010BC0
00BC001F40
01F4007E00
00E006F400
00000FFFD0
00000FFFD0
ENDCHAR
STARTCHAR threequarters
ENCODING 190
SWIDTH 1035 0
DWIDTH 21 0
BBX 19 17 1 0
BITMAP
07F8000000
2FBE000000
3C1F000000
142E007400
01F800F400
02F802F000
107E07D000
B42E0F8B00
7EBD2F1F00
1BE47D3DB4
0000B87CF4
0001F0B4F0
0003D1F1F0
000B81FFFC
000741FFF8
00000002E0
00000002D0
ENDCHAR
STARTCHAR questiondown
ENCODING 191
SWIDTH 476 0
DWIDTH 10 0
BBX 10 17 -1 -8
BITMAP
000B80
001FD0
001FC0
000B80
000000
001D00
002D00
007C00
01F800
07E000
1F8000
7F0000
BD0740
FC0B80
BD1F40
7FFF00
1BF800
ENDCHAR
STARTCHAR Agrave
ENCODING 192
SWIDTH 786 0
DWIDTH 16 0
BBX 18 23 1 0
BITMAP
0005000000
001F400000
001FE00000
0002F80000
00002D0000
0000000000
0000000000
0001BFE900
002FFFFE00
01FF956900
07F4029000
0FD007E000
2F8007D000
3F000BC000
7E000FC000
BD001F8000
BC002F4000
FC003F4000
BD007F4000
BE00FF41D0
7F97EF9BC0
1FFF4FFF40
06F906F800
ENDCHAR
STARTCHAR Aacute
ENCODING 193
SWIDTH 786 0
DWIDTH 16 0
BBX 18 23 1 0
BITMAP
0000000500
0000002F00
000000FE00
000007F400
00000B4000
0000000000
0000000000
0001BFE900
002FFFFE00
01FF956900
07F4029000
0FD007E000
2F8007D000
3F000BC000
7E000FC000
BD001F8000
BC002F4000
FC003F4000
BD007F4000
BE00FF41D0
7F97EF9BC0
1FFF4FFF40
06F906F800
ENDCHAR
STARTCHAR Acircumflex
ENCODING 194
SWIDTH 786 0
DWIDTH 16 0
BBX 18 23 1 0
BITMAP
00000B8000
00002FD000
000079F000
0001F4F400
0001E07400
0000000000
0000000000
0001BFE900
002FFFFE00
01FF956900
07F4029000
0FD007E000
2F8007D000
3F000BC000
7E000FC000
BD001F8000
BC002F4000
FC003F4000
BD007F4000
BE00FF41D0
7F97EF9BC0
1FFF4FFF40
06F906F800
ENDCHAR
STARTCHAR Atilde
ENCODING 195
SWIDTH 786 0
DWIDTH 16 0
BBX 18 22 1 0
BITMAP
0000B80500
0002FF6E00
0003DBFC00
000141F400
0000000000
0000000000
0001BFE900
002FFFFE00
01FF956900
07F4029000
0FD007E000
2F8007D000
3F000BC000
7E000FC000
BD001F8000
BC002F4000
FC003F4000
BD007F4000
BE00FF41D0
7F97EF9BC0
1FFF4FFF40
06F906F800
ENDCHAR
STARTCHAR Adieresis
ENCODING 196
SWIDTH 786 0
DWIDTH 16 0
BBX 18 21 1 0
BITMAP
0000B4B400
0001F9F800
0000F4B400
0000000000
0000000000
0001BFE900
002FFFFE00
01FF956900
07F4029000
0FD007E000
2F8007D000
3F000BC000
7E000FC000
BD001F8000
BC002F4000
FC003F4000
BD007F4000
BE00FF41D0
7F97EF9BC0
1FFF4FFF40
06F906F800
ENDCHAR
STARTCHAR Aring
ENCODING 197
SWIDTH 786 0
DWIDTH 16 0
BBX 18 24 1 0
BITMAP
00001F8000
00003FE000
000078F000
000079F000
00003FE000
00001F8000
0000000000
0000000000
0001BFE900
002FFFFE00
01FF956900
07F4029000
0FD007E000
2F8007D000
3F000BC000
7E000FC000
BD001F8000
BC002F4000
FC003F4000
BD007F4000
BE00FF41D0
7F97EF9BC0
1FFF4FFF40
06F906F800
ENDCHAR
STARTCHAR AE
ENCODING 198
SWIDTH 1015 0
DWIDTH 20 0
BBX 22 16 1 0
BITMAP
0006F87FFF40
006FF8FFFF40
01FF91F40000
07F402F00000
0FD003E00000
2F8007E00000
3F000BD00000
7E000FFFFC00
BD001FFFFC00
BC002F800000
FC003F800000
BD007F800000
BD00FFC00050
7F47EBF517E0
1FFF82FFFFD0
06F9006FF900
ENDCHAR
STARTCHAR Ccedilla
ENCODING 199
SWIDTH 686 0
DWIDTH 14 0
BBX 16 21 1 -5
BITMAP
001BF900
00BFFF40
07F91F80
0FD00BC0
2F400BC0
3F000B80
7E000100
BD000000
BD000000
BD000000
BD000000
7E000000
3F400014
1FE406BD
07FFFFF8
00BFFE40
006F8000
0007C000
000B8000
02FF4000
02F90000
ENDCHAR
STARTCHAR Egrave
ENCODING 200
SWIDTH 686 0
DWIDTH 14 0
BBX 16 23 0 0
BITMAP
00500000
00FC0000
00BF4000
001BD000
0001A000
00000000
00000000
001BFE40
00BFFFE0
03F947F0
07E001F4
07E002F0
03F40050
00BFD000
02FFD000
1FE40000
3F400000
7E000000
7E000000
7F000006
2FD405BF
0BFFFFFD
01AFFE90
ENDCHAR
STARTCHAR Eacute
ENCODING 201
SWIDTH 686 0
DWIDTH 14 0
BBX 16 23 0 0
BITMAP
00000010
000001F8
00000BF4
00002F80
00003800
00000000
00000000
001BFE40
00BFFFE0
03F947F0
07E001F4
07E002F0
03F40050
00BFD000
02FFD000
1FE40000
3F400000
7E000000
7E000000
7F000006
2FD405BF
0BFFFFFD
01AFFE90
ENDCHAR
STARTCHAR Ecircumflex
ENCODING 202
SWIDTH 686 0
DWIDTH 14 0
BBX 16 23 0 0
BITMAP
00007D00
0001FF00
0003DB40
000B8780
000B0380
00000000
00000000
001BFE40
00BFFFE0
03F947F0
07E001F4
07E002F0
03F40050
00BFD000
02FFD000
1FE40000
3F400000
7E000000
7E000000
7F000006
2FD405BF
0BFFFFFD
01AFFE90
ENDCHAR
STARTCHAR Edieresis
ENCODING 203
SWIDTH 686 0
DWIDTH 14 0
BBX 16 21 0 0
BITMAP
000787C0
000FCBD0
000B8780
00000000
00000000
001BFE40
00BFFFE0
03F947F0
07E001F4
07E002F0
03F40050
00BFD000
02FFD000
1FE40000
3F400000
7E000000
7E000000
7F000006
2FD405BF
0BFFFFFD
01AFFE90
ENDCHAR
STARTCHAR Igrave
ENCODING 204
SWIDTH 495 0
DWIDTH 10 0
BBX 12 23 -1 0
BITMAP
014000
07D000
07F800
00BE00
000B40
000000
000000
02FFFE
03FFFE
001F80
001F80
001F40
002F40
002F00
003F00
003E00
007E00
007D00
00BD00
00BC00
00FC00
2FFFE0
7FFFE0
ENDCHAR
STARTCHAR Iacute
ENCODING 205
SWIDTH 495 0
DWIDTH 10 0
BBX 13 23 -1 0
BITMAP
00000140
00000BC0
00007F80
0001F900
00029000
00000000
00000000
02FFFE00
03FFFE00
001F8000
001F8000
001F4000
002F4000
002F0000
003F0000
003E0000
007E0000
007D0000
00BD0000
00BC0000
00FC0000
2FFFE000
7FFFE000
ENDCHAR
STARTCHAR Icircumflex
ENCODING 206
SWIDTH 495 0
DWIDTH 10 0
BBX 12 23 -1 0
BITMAP
0002E0
000BF4
002E78
007D3D
00742D
000000
000000
02FFFE
03FFFE
001F80
001F80
001F40
002F40
002F00
003F00
003E00
007E00
007D00
00BD00
00BC00
00FC00
2FFFE0
7FFFE0
ENDCHAR
STARTCHAR Idieresis
ENCODING 207
SWIDTH 495 0
DWIDTH 10 0
BBX 12 21 -1 0
BITMAP
003D2D
007E7E
007D3D
000000
000000
02FFFE
03FFFE
001F80
001F80
001F40
002F40
002F00
003F00
003E00
007E00
007D00
00BD00
00BC00
00FC00
2FFFE0
7FFFE0
ENDCHAR
STARTCHAR Eth
ENCODING 208
SWIDTH 821 0
DWIDTH 16 0
BBX 16 16 0 0
BITMAP
002FFA00
007FFFE0
00BD1BF8
00F800FD
01F4007E
02F0003F
7FFFE03F
BFFFE03F
07D0003F
0BD0007E
0BC000BD
0FC001F8
0FC007F4
0F816FD0
1FFFFE00
0AFFA400
ENDCHAR
STARTCHAR Ntilde
ENCODING 209
SWIDTH 884 0
DWIDTH 18 0
BBX 21 22 0 0
BITMAP
0000B9050000
0001FF5E0000
0003DBFD0000
000141B40000
000000000000
000000000000
06F806F90000
1FFD1FFF0000
7D7D792F4000
F07DE01F8000
407EC01F4000
007F402F4000
00BF003F0000
00BE003E0000
00FD007E0000
00FC00BD0000
01F800BC0000
01F800FC0000
02F400FC0740
02F400BD1F00
02F0007FFD00
01E0001BE000
ENDCHAR
STARTCHAR Ograve
ENCODING 210
SWIDTH 816 0
DWIDTH 16 0
BBX 15 23 1 0
BITMAP
00500000
02F40000
01FE0000
002F8000
0002D000
00000000
00000000
001BF900
01BFFF80
07F91BE0
0FD002F4
2F4001F8
3F0000FC
7E0000FC
BD0000FC
BD0000F8
BD0001F8
BD0002F4
7E0007E0
3F000FD0
2FD17F40
0BFFFD00
01BF9000
ENDCHAR
STARTCHAR Oacute
ENCODING 211
SWIDTH 816 0
DWIDTH 16 0
BBX 15 23 1 0
BITMAP
00000050
000002F0
00001FE0
00007E40
0000A400
00000000
00000000
001BF900
01BFFF80
07F91BE0
0FD002F4
2F4001F8
3F0000FC
7E0000FC
BD0000FC
BD0000F8
BD0001F8
BD0002F4
7E0007E0
3F000FD0
2FD17F40
0BFFFD00
01BF9000
ENDCHAR
STARTCHAR Ocircumflex
ENCODING 212
SWIDTH 816 0
DWIDTH 16 0
BBX 15 23 1 0
BITMAP
0000B800
0003FD00
000B9E00
001F0F00
001D0B00
00000000
00000000
001BF900
01BFFF80
07F91BE0
0FD002F4
2F4001F8
3F0000FC
7E0000FC
BD0000FC
BD0000F8
BD0001F8
BD0002F4
7E0007E0
3F000FD0
2FD17F40
0BFFFD00
01BF9000
ENDCHAR
STARTCHAR Otilde
ENCODING 213
SWIDTH 816 0
DWIDTH 16 0
BBX 15 22 1 0
BITMAP
000B8040
002FF6D0
007DBFC0
00101F40
00000000
00000000
001BF900
01BFFF80
07F91BE0
0FD002F4
2F4001F8
3F0000FC
7E0000FC
BD0000FC
BD0000F8
BD0001F8
BD0002F4
7E0007E0
3F000FD0
2FD17F40
0BFFFD00
01BF9000
ENDCHAR
STARTCHAR Odieresis
ENCODING 214
SWIDTH 816 0
DWIDTH 16 0
BBX 15 21 1 0
BITMAP
001F4B40
002F5F80
001F0F40
00000000
00000000
001BF900
01BFFF80
07F91BE0
0FD002F4
2F4001F8
3F0000FC
7E0000FC
BD0000FC
BD0000F8
BD0001F8
BD0002F4
7E0007E0
3F000FD0
2FD17F40
0BFFFD00
01BF9000
ENDCHAR
STARTCHAR multiply
ENCODING 215
SWIDTH 700 0
DWIDTH 14 0
BBX 10 9 2 1
BITMAP
040050
3E02F0
2F8BD0
0BFF40
02FD00
07FD00
2FAF40
BD0FC0
B40380
ENDCHAR
STARTCHAR Oslash
ENCODING 216
SWIDTH 816 0
DWIDTH 16 0
BBX 15 20 1 -2
BITMAP
00002C00
00003C00
001BFD00
00BFFF80
07F9FFE0
0FD1F3F4
2F41E1F8
3F02D0FC
7E03C0FC
BD0780FC
BD0B80F8
BD0F41F8
BD0F02F4
7E1E03E0
3F2D0FD0
2FFD7F40
0BFFFD00
01FF9000
00F40000
00B00000
ENDCHAR
STARTCHAR Ugrave
ENCODING 217
SWIDTH 890 0
DWIDTH 18 0
BBX 21 23 0 0
BITMAP
000500000000
002F40000000
001FE0000000
0002F8000000
00002D000000
000000000000
000000000000
06F8000B4000
1FFE000F8000
7D7F001F8000
F03F001F4000
403E002F4000
007E003F0000
00BD003F0000
00BC007E0000
00FC00BE0000
01F801FD0000
01F402FD0000
02F407BD0100
02F41EBD0740
02F9BCBE6F00
01FFF47FFD00
006F801BE000
ENDCHAR
STARTCHAR Uacute
ENCODING 218
SWIDTH 890 0
DWIDTH 18 0
BBX 21 23 0 0
BITMAP
000000050000
0000002F0000
000001FE0000
000007E40000
00000A400000
000000000000
000000000000
06F8000B4000
1FFE000F8000
7D7F001F8000
F03F001F4000
403E002F4000
007E003F0000
00BD003F0000
00BC007E0000
00FC00BE0000
01F801FD0000
01F402FD0000
02F407BD0100
02F41EBD0740
02F9BCBE6F00
01FFF47FFD00
006F801BE000
ENDCHAR
STARTCHAR Ucircumflex
ENCODING 219
SWIDTH 890 0
DWIDTH 18 0
BBX 21 23 0 0
BITMAP
00000B800000
00003FD00000
0000B9E00000
0001F0F00000
0001D0B00000
000000000000
000000000000
06F8000B4000
1FFE000F8000
7D7F001F8000
F03F001F4000
403E002F4000
007E003F0000
00BD003F0000
00BC007E0000
00FC00BE0000
01F801FD0000
01F402FD0000
02F407BD0100
02F41EBD0740
02F9BCBE6F00
01FFF47FFD00
006F801BE000
ENDCHAR
STARTCHAR Udieresis
ENCODING 220
SWIDTH 890 0
DWIDTH 18 0
BBX 21 21 0 0
BITMAP
0001F4B40000
0002F5F80000
0001F0F40000
000000000000
000000000000
06F8000B4000
1FFE000F8000
7D7F001F8000
F03F001F4000
403E002F4000
007E003F0000
00BD003F0000
00BC007E0000
00FC00BE0000
01F801FD0000
01F402FD0000
02F407BD0100
02F41EBD0740
02F9BCBE6F00
01FFF47FFD00
006F801BE000
ENDCHAR
STARTCHAR Yacute
ENCODING 221
SWIDTH 851 0
DWIDTH 17 0
BBX 19 29 0 -6
BITMAP
0000000500
0000002F40
000000BF00
000007F400
00000B4000
0000000000
0000000000
06F8000B40
1FFE000F80
7D7F001F80
F03F001F40
903E002F40
007E003F00
00BD007F00
00BC00BF00
00FC00FE00
00F802FE00
00F807BD00
00FD1E7D00
00BFFC7EBC
002FE5FFF8
00006FFD40
0002E4F800
000B41F400
002E02F000
003D03E000
003E1BC000
003FFF4000
000BF90000
ENDCHAR
STARTCHAR Thorn
ENCODING 222
SWIDTH 776 0
DWIDTH 16 0
BBX 15 21 1 -3
BITMAP
0007C000
000BC000
000BC000
000FC000
001FFE00
01FFFFD0
07FF9BF0
1F6F42F4
3D2F01F8
7C3F02F4
B83E03F0
F47E0BE0
F6FFFF80
F2FFF900
F0BD0000
F0FC0000
F4F80000
B9F80000
3FF40000
1FE00000
01400000
ENDCHAR
STARTCHAR germandbls
ENCODING 223
SWIDTH 596 0
DWIDTH 12 0
BBX 14 19 1 -4
BITMAP
00BF9000
07FFF000
0F91F400
2F00F400
3D02F000
7C1BD000
BC7E0000
B8BC0000
B8BE0000
F83FEA40
F8FFFFD0
FAE1F440
F7E1F400
F6FFF000
F4BF8000
F4000000
F4000000
F4000000
F4000000
ENDCHAR
STARTCHAR agrave
ENCODING 224
SWIDTH 470 0
DWIDTH 9 0
BBX 12 16 0 0
BITMAP
038000
07D000
03E000
00F400
007800
002800
000000
01B800
07FF80
1F9F80
2F0F40
3D1F40
7D2F0B
7D7F6E
3FFFF8
1B87E0
ENDCHAR
STARTCHAR aacute
ENCODING 225
SWIDTH 470 0
DWIDTH 9 0
BBX 12 16 0 0
BITMAP
0001E0
0003E0
0007D0
000B80
001E00
001C00
000000
01B800
07FF80
1F9F80
2F0F40
3D1F40
7D2F0B
7D7F6E
3FFFF8
1B87E0
ENDCHAR
STARTCHAR acircumflex
ENCODING 226
SWIDTH 470 0
DWIDTH 9 0
BBX 12 17 0 0
BITMAP
000500
002F40
007F80
00B7C0
01F3D0
03D2D0
0381D0
000000
01B800
07FF80
1F9F80
2F0F40
3D1F40
7D2F0B
7D7F6E
3FFFF8
1B87E0
ENDCHAR
STARTCHAR atilde
ENCODING 227
SWIDTH 470 0
DWIDTH 9 0
BBX 12 14 0 0
BITMAP
01E014
07FD78
0B6FF4
0506D0
000000
01B800
07FF80
1F9F80
2F0F40
3D1F40
7D2F0B
7D7F6E
3FFFF8
1B87E0
ENDCHAR
STARTCHAR adieresis
ENCODING 228
SWIDTH 470 0
DWIDTH 9 0
BBX 12 13 0 0
BITMAP
02D2E0
03E3F0
02D2D0
000000
01B800
07FF80
1F9F80
2F0F40
3D1F40
7D2F0B
7D7F6E
3FFFF8
1B87E0
ENDCHAR
STARTCHAR aring
ENCODING 229
SWIDTH 470 0
DWIDTH 9 0
BBX 12 16 0 0
BITMAP
002F40
00BFC0
00E2C0
00E6C0
00FF80
006E00
000000
01B800
07FF80
1F9F80
2F0F40
3D1F40
7D2F0B
7D7F6E
3FFFF8
1B87E0
ENDCHAR
STARTCHAR ae
ENCODING 230
SWIDTH 653 0
DWIDTH 13 0
BBX 16 9 0 0
BITMAP
01BD7E00
07FFFF80
1F9BD7C0
2E0F8780
3D1FAF00
7D1FF41E
3E7FD1BD
2FF7FFF4
0BD1BF80
ENDCHAR
STARTCHAR ccedilla
ENCODING 231
SWIDTH 368 0
DWIDTH 7 0
BBX 10 14 0 -5
BITMAP
02F400
0FFD00
2F6D00
3E2D00
7D1400
7D0060
7D00F0
3F47D0
1FFE40
0BF400
007800
007C00
2FF400
2FD000
ENDCHAR
STARTCHAR egrave
ENCODING 232
SWIDTH 393 0
DWIDTH 8 0
BBX 11 16 0 0
BITMAP
0E0000
1F4000
0BC000
03D000
01E000
007000
000000
02F800
0FFE00
2F6E00
3D2D00
7DB800
7F9074
3E46F4
2FFFD0
06F900
ENDCHAR
STARTCHAR eacute
ENCODING 233
SWIDTH 393 0
DWIDTH 8 0
BBX 11 16 0 0
BITMAP
000780
000BC0
001F40
002E00
003C00
007000
000000
02F800
0FFE00
2F6E00
3D2D00
7DB800
7F9074
3E46F4
2FFFD0
06F900
ENDCHAR
STARTCHAR ecircumflex
ENCODING 234
SWIDTH 393 0
DWIDTH 8 0
BBX 11 17 0 0
BITMAP
001400
007E00
00FF00
02EF00
07CB40
0B4B80
0E0740
000000
02F800
0FFE00
2F6E00
3D2D00
7DB800
7F9074
3E46F4
2FFFD0
06F900
ENDCHAR
STARTCHAR edieresis
ENCODING 235
SWIDTH 393 0
DWIDTH 8 0
BBX 11 13 0 0
BITMAP
0B8780
0FCBC0
0B4B80
000000
02F800
0FFE00
2F6E00
3D2D00
7DB800
7F9074
3E46F4
2FFFD0
06F900
ENDCHAR
STARTCHAR igrave
ENCODING 236
SWIDTH 246 0
DWIDTH 5 0
BBX 9 16 -1 0
BITMAP
280000
7D0000
2F0000
0F4000
078000
01C000
000000
03C000
07C000
0BC000
0B8000
0F8000
0F4740
0F9F40
0BFD00
02E400
ENDCHAR
STARTCHAR iacute
ENCODING 237
SWIDTH 246 0
DWIDTH 5 0
BBX 7 16 1 0
BITMAP
01E0
02F0
03D0
0B80
0F00
1D00
0000
3C00
7C00
BC00
B800
F800
F474
F9F4
BFD0
2E40
ENDCHAR
STARTCHAR icircumflex
ENCODING 238
SWIDTH 246 0
DWIDTH 5 0
BBX 8 17 0 0
BITMAP
0140
07E0
0FF0
2EF0
7CB4
B8B8
E074
0000
0F00
1F00
2F00
2E00
3E00
3D1D
3E7D
2FF4
0B90
ENDCHAR
STARTCHAR idieresis
ENCODING 239
SWIDTH 246 0
DWIDTH 5 0
BBX 8 13 0 0
BITMAP
B878
FCBC
B4B8
0000
0F00
1F00
2F00
2E00
3E00
3D1D
3E7D
2FF4
0B90
ENDCHAR
STARTCHAR eth
ENCODING 240
SWIDTH 451 0
DWIDTH 9 0
BBX 11 18 0 0
BITMAP
02D000
02F4B4
00BFF0
007F80
02FF00
079F40
000B80
000BC0
000BC0
02FFC0
1FFFC0
2F5BC0
3D0BC0
7D0B80
7D0F40
3E2F00
2FFD00
07E400
ENDCHAR
STARTCHAR ntilde
ENCODING 241
SWIDTH 496 0
DWIDTH 10 0
BBX 12 14 1 0
BITMAP
079050
1FF9E0
2D7FD0
140B40
000000
2C2F00
7CBF40
BAFF00
BBAF00
FF2E00
FD3D1D
FC3E7D
F83FF4
741F90
ENDCHAR
STARTCHAR ograve
ENCODING 242
SWIDTH 451 0
DWIDTH 9 0
BBX 12 16 0 0
BITMAP
0E0000
1F4000
0B8000
03D000
01E000
006000
000000
02F800
1FFF00
2F7F40
3D2FFE
7D0FFD
7D0F40
3E2F00
2FFD00
07E400
ENDCHAR
STARTCHAR oacute
ENCODING 243
SWIDTH 451 0
DWIDTH 9 0
BBX 12 16 0 0
BITMAP
000780
000BC0
001F40
002E00
003800
007000
000000
02F800
1FFF00
2F7F40
3D2FFE
7D0FFD
7D0F40
3E2F00
2FFD00
07E400
ENDCHAR
STARTCHAR ocircumflex
ENCODING 244
SWIDTH 451 0
DWIDTH 9 0
BBX 12 17 0 0
BITMAP
001400
007D00
00FE00
02DF00
07CB40
0F4B80
0E0740
000000
02F800
1FFF00
2F7F40
3D2FFE
7D0FFD
7D0F40
3E2F00
2FFD00
07E400
ENDCHAR
STARTCHAR otilde
ENCODING 245
SWIDTH 451 0
DWIDTH 9 0
BBX 12 14 0 0
BITMAP
079050
1FF5E0
2D7FD0
141B40
000000
02F800
1FFF00
2F7F40
3D2FFE
7D0FFD
7D0F40
3E2F00
2FFD00
07E400
ENDCHAR
STARTCHAR odieresis
ENCODING 246
SWIDTH 451 0
DWIDTH 9 0
BBX 12 13 0 0
BITMAP
0B8780
0F8FC0
0B4B80
000000
02F800
1FFF00
2F7F40
3D2FFE
7D0FFD
7D0F40
3E2F00
2FFD00
07E400
ENDCHAR
STARTCHAR divide
ENCODING 247
SWIDTH 700 0
DWIDTH 14 0
BBX 12 11 1 0
BITMAP
002E00
003F00
002E00
000000
000000
3FFFFD
7FFFFD
000000
00B800
00FC00
00B800
ENDCHAR
STARTCHAR oslash
ENCODING 248
SWIDTH 459 0
DWIDTH 9 0
BBX 12 15 0 -3
BITMAP
001400
003800
003400
06F900
1FFF00
2EBF80
3DABEA
7CD7FE
7DDB94
3EDF40
2FFE00
0BF400
038000
034000
010000
ENDCHAR
STARTCHAR ugrave
ENCODING 249
SWIDTH 462 0
DWIDTH 9 0
BBX 11 16 1 0
BITMAP
1D0000
2F0000
1F4000
07C000
02D000
009000
000000
2D1E00
7C2E00
BC3D00
B87D00
F4BC04
F5F828
FFFDB8
BF7FE0
7D2E40
ENDCHAR
STARTCHAR uacute
ENCODING 250
SWIDTH 462 0
DWIDTH 9 0
BBX 11 16 1 0
BITMAP
000B40
000F80
002F00
003D00
007400
00A000
000000
2D1E00
7C2E00
BC3D00
B87D00
F4BC04
F5F828
FFFDB8
BF7FE0
7D2E40
ENDCHAR
STARTCHAR ucircumflex
ENCODING 251
SWIDTH 462 0
DWIDTH 9 0
BBX 11 17 1 0
BITMAP
001400
00BC00
01FD00
03DE00
0B9F00
1F0F00
1D0B00
000000
2D1E00
7C2E00
BC3D00
B87D00
F4BC04
F5F828
FFFDB8
BF7FE0
7D2E40
ENDCHAR
STARTCHAR udieresis
ENCODING 252
SWIDTH 462 0
DWIDTH 9 0
BBX 11 13 1 0
BITMAP
0F4B40
1F5F80
1F0F40
000000
2D1E00
7C2E00
BC3D00
B87D00
F4BC04
F5F828
FFFDB8
BF7FE0
7D2E40
ENDCHAR
STARTCHAR yacute
ENCODING 253
SWIDTH 479 0
DWIDTH 10 0
BBX 12 25 0 -9
BITMAP
0002D0
0003E0
000BC0
000F40
001D00
002800
000000
0B4780
1F0B80
2F0F40
2E1F40
3D2F00
3D7F1E
3FFFBD
2FEFE4
1F6F40
00BD00
02FC00
0BBC00
2DB800
78F400
F1F000
F7D000
FF8000
7E0000
ENDCHAR
STARTCHAR thorn
ENCODING 254
SWIDTH 508 0
DWIDTH 10 0
BBX 13 22 0 -7
BITMAP
03C00000
07C00000
0BC00000
0F800000
0F400000
1F400000
1F1B8000
2E7FD000
2EE7D000
3F83D000
3F47D040
3F0BC380
7E2F5F40
7FFFFD00
7FE7E400
7C000000
7C000000
7C000000
7C000000
BC000000
7C000000
14000000
ENDCHAR
STARTCHAR ydieresis
ENCODING 255
SWIDTH 479 0
DWIDTH 10 0
BBX 12 22 0 -9
BITMAP
03D2D0
07D7E0
07C3D0
000000
0B4780
1F0B80
2F0F40
2E1F40
3D2F00
3D7F1E
3FFFBD
2FEFE4
1F6F40
00BD00
02FC00
0BBC00
2DB800
78F400
F1F000
F7D000
FF8000
7E0000
ENDCHAR
STARTCHAR Amacron
ENCODING 256
SWIDTH 786 0
DWIDTH 16 0
BBX 18 20 1 0
BITMAP
0000FFF000
0000FFF000
0000000000
0000000000
0001BFE900
002FFFFE00
01FF956900
07F4029000
0FD007E000
2F8007D000
3F000BC000
7E000FC000
BD001F8000
BC002F4000
FC003F4000
BD007F4000
BE00FF41D0
7F97EF9BC0
1FFF4FFF40
06F906F800
ENDCHAR
STARTCHAR amacron
ENCODING 257
SWIDTH 470 0
DWIDTH 9 0
BBX 12 12 0 0
BITMAP
02FFD0
02FFD0
000000
01B800
07FF80
1F9F80
2F0F40
3D1F40
7D2F0B
7D7F6E
3FFFF8
1B87E0
ENDCHAR
STARTCHAR Abreve
ENCODING 258
SWIDTH 786 0
DWIDTH 16 0
BBX 18 22 1 0
BITMAP
0001400400
0003E47D00
0001FFF800
00006F9000
0000000000
0000000000
0001BFE900
002FFFFE00
01FF956900
07F4029000
0FD007E000
2F8007D000
3F000BC000
7E000FC000
BD001F8000
BC002F4000
FC003F4000
BD007F4000
BE00FF41D0
7F97EF9BC0
1FFF4FFF40
06F906F800
ENDCHAR
STARTCHAR abreve
ENCODING 259
SWIDTH 470 0
DWIDTH 9 0
BBX 12 15 0 0
BITMAP
010010
0B80B8
07D1F4
03FFE0
00BE40
000000
01B800
07FF80
1F9F80
2F0F40
3D1F40
7D2F0B
7D7F6E
3FFFF8
1B87E0
ENDCHAR
STARTCHAR Aogonek
ENCODING 260
SWIDTH 786 0
DWIDTH 16 0
BBX 18 21 1 -5
BITMAP
0001BFE900
002FFFFE00
01FE505800
07F4029000
0FD007E000
2F400BD000
3F000BC000
7E000FC000
BD001F8000
BC002F4000
FC003F4000
BD007F4000
BD00FF41D0
7F47EF87C0
1FFF5FFF40
06F907F800
000007D000
00000B4000
00000B8000
000007FE00
000001A800
ENDCHAR
STARTCHAR aogonek
ENCODING 261
SWIDTH 470 0
DWIDTH 9 0
BBX 12 14 0 -5
BITMAP
01B800
07FF80
1F9F80
2F0F40
3D1F40
7D2F0B
7D7F6E
3FFFF8
1B8BE0
001F40
003C00
003D10
002FF4
000690
ENDCHAR
STARTCHAR Cacute
ENCODING 262
SWIDTH 686 0
DWIDTH 14 0
BBX 16 23 1 0
BITMAP
00000050
000003F0
00001FE0
00007E40
0000A400
00000000
00000000
001BF900
00FFFF40
07F91F80
0FD00BC0
2F400BC0
3F000B80
7E000100
BD000000
BD000000
BD000000
BD000000
7E000000
3F400014
1FE406BD
07FFFFF8
006FFA40
ENDCHAR
STARTCHAR cacute
ENCODING 263
SWIDTH 368 0
DWIDTH 7 0
BBX 10 16 0 0
BITMAP
000780
000BC0
001F40
002E00
003800
007000
000000
02F800
0FFD00
2F6D00
3D2C00
7D0000
7D00B0
3E47E0
2FFF80
07F900
ENDCHAR
STARTCHAR Ccircumflex
ENCODING 264
SWIDTH 686 0
DWIDTH 14 0
BBX 16 23 1 0
BITMAP
0001B800
0003FD00
000B9E00
001F0F00
002D0B00
00000000
00000000
001BF900
00FFFF40
07F91F80
0FD00BC0
2F400BC0
3F000B80
7E000100
BD000000
BD000000
BD000000
BD000000
7E000000
3F400014
1FE406BD
07FFFFF8
006FFA40
ENDCHAR
STARTCHAR ccircumflex
ENCODING 265
SWIDTH 368 0
DWIDTH 7 0
BBX 10 17 0 0
BITMAP
001400
00BD00
00FE00
02DF00
07CB40
0F4B80
0E0740
000000
02F800
0FFD00
2F6D00
3D2C00
7D0000
7D00B0
3E47E0
2FFF80
07F900
ENDCHAR
STARTCHAR Cdotaccent
ENCODING 266
SWIDTH 686 0
DWIDTH 14 0
BBX 16 21 1 0
BITMAP
0001F400
0003F800
0001F400
00000000
00000000
001BF900
00FFFF40
07F91F80
0FD00BC0
2F400BC0
3F000B80
7E000100
BD000000
BD000000
BD000000
BD000000
7E000000
3F400014
1FE406BD
07FFFFF8
006FFA40
ENDCHAR
STARTCHAR cdotaccent
ENCODING 267
SWIDTH 368 0
DWIDTH 7 0
BBX 10 13 0 0
BITMAP
00B800
01FC00
00B800
000000
02F800
0FFD00
2F6D00
3D2C00
7D0000
7D00B0
3E47E0
2FFF80
07F900
ENDCHAR
STARTCHAR Ccaron
ENCODING 268
SWIDTH 686 0
DWIDTH 14 0
BBX 16 23 1 0
BITMAP
000E0740
000F4F40
0007AE00
0003FC00
0001F400
00000000
00000000
001BF900
00FFFF40
07F91F80
0FD00BC0
2F400BC0
3F000B80
7E000100
BD000000
BD000000
BD000000
BD000000
7E000000
3F400014
1FE406BD
07FFFFF8
006FFA40
ENDCHAR
STARTCHAR ccaron
ENCODING 269
SWIDTH 368 0
DWIDTH 7 0
BBX 10 17 0 0
BITMAP
014040
07C2D0
03C7C0
02DB40
02EE00
01FD00
00B400
000000
02F800
0FFD00
2F6D00
3D2C00
7D0000
7D00B0
3E47E0
2FFF80
07F900
ENDCHAR
STARTCHAR Dcaron
ENCODING 270
SWIDTH 836 0
DWIDTH 17 0
BBX 16 23 1 0
BITMAP
002C0E00
002E2E00
001F7C00
000BF400
0003D000
00000000
00000000
01BFE900
2FFFFF80
FE956FE0
E40002F8
02F000FC
03E000BD
07D000BD
0BD000BD
0BC000BD
0F8000FC
1F8001F8
1F4003F4
2F401FE0
2F55BF80
2FFFFD00
1BFE9000
ENDCHAR
STARTCHAR dcaron
ENCODING 271
SWIDTH 470 0
DWIDTH 9 0
BBX 14 19 0 0
BITMAP
00000180
000003D0
000003C0
0000F780
0001F740
0002F000
0002E000
0003E000
0003D000
0007C000
01BFC000
07FF8000
1F9F8000
2F0F4000
3D1F4000
7D2F0B00
7D7F6E00
3FFFF800
1B87E000
ENDCHAR
STARTCHAR Dcroat
ENCODING 272
SWIDTH 821 0
DWIDTH 16 0
BBX 16 16 0 0
BITMAP
002FFA00
007FFFE0
00BD1BF8
00F800FD
01F4007E
02F0003F
7FFFE03F
BFFFE03F
07D0003F
0BD0007E
0BC000BD
0FC001F8
0FC007F4
0F816FD0
1FFFFE00
0AFFA400
ENDCHAR
STARTCHAR dcroat
ENCODING 273
SWIDTH 470 0
DWIDTH 9 0
BBX 12 16 0 0
BITMAP
0000F4
0002F4
0002F0
02FFFC
02FFF4
0003D0
0007C0
01BFC0
07FF80
1F9F80
2F0F40
3D1F40
7D2F0B
7D7F6E
3FFFF8
1B87E0
ENDCHAR
STARTCHAR Emacron
ENCODING 274
SWIDTH 686 0
DWIDTH 14 0
BBX 16 20 0 0
BITMAP
000BFF80
0007FF40
00000000
00000000
001BFE40
00BFFFE0
03F947F0
07E001F4
07E002F0
03F40050
00BFD000
02FFD000
1FE40000
3F400000
7E000000
7E000000
7F000006
2FD405BF
0BFFFFFD
01AFFE90
ENDCHAR
STARTCHAR emacron
ENCODING 275
SWIDTH 393 0
DWIDTH 8 0
BBX 11 12 0 0
BITMAP
0BFF40
0BFF40
000000
02F800
0FFE00
2F6E00
3D2D00
7DB800
7F9074
3E46F4
2FFFD0
06F900
ENDCHAR
STARTCHAR Ebreve
ENCODING 276
SWIDTH 686 0
DWIDTH 14 0
BBX 16 22 0 0
BITMAP
00050050
001F46E0
000FFFD0
0002FE40
00000000
00000000
001BFE40
00BFFFE0
03F947F0
07E001F4
07E002F0
03F40050
00BFD000
02FFD000
1FE40000
3F400000
7E000000
7E000000
7F000006
2FD405BF
0BFFFFFD
01AFFE90
ENDCHAR
STARTCHAR ebreve
ENCODING 277
SWIDTH 393 0
DWIDTH 8 0
BBX 11 15 0 0
BITMAP
040050
1E01E0
1F87D0
0BFF80
02FE00
000000
02F800
0FFE00
2F6E00
3D2D00
7DB800
7F9074
3E46F4
2FFFD0
06F900
ENDCHAR
STARTCHAR Edotaccent
ENCODING 278
SWIDTH 686 0
DWIDTH 14 0
BBX 16 21 0 0
BITMAP
0000BD00
0000FD00
0000B800
00000000
00000000
001BFE40
00BFFFE0
03F947F0
07E001F4
07E002F0
03F40050
00BFD000
02FFD000
1FE40000
3F400000
7E000000
7E000000
7F000006
2FD405BF
0BFFFFFD
01AFFE90
ENDCHAR
STARTCHAR edotaccent
ENCODING 279
SWIDTH 393 0
DWIDTH 8 0
BBX 11 13 0 0
BITMAP
00B800
01FD00
00B800
000000
02F800
0FFE00
2F6E00
3D2D00
7DB800
7F9074
3E46F4
2FFFD0
06F900
ENDCHAR
STARTCHAR Eogonek
ENCODING 280
SWIDTH 686 0
DWIDTH 14 0
BBX 16 21 0 -5
BITMAP
001BFE40
00BFFFE0
03F947F0
07E001F4
07E002F0
03F40050
00BFD000
02FFD000
1FE40000
3F400000
7E000000
7E000000
7F000006
2FD405BF
0BFFFFFD
01BFFA90
0002D000
00078000
0007D500
0003FF00
0001BD00
ENDCHAR
STARTCHAR eogonek
ENCODING 281
SWIDTH 393 0
DWIDTH 8 0
BBX 11 14 0 -5
BITMAP
02F800
0FFD00
2F6E00
3D2E00
7DBC00
7FE034
3E01F4
2FAFD0
0BFE40
01F400
02D000
03D000
02FB40
00BE00
ENDCHAR
STARTCHAR Ecaron
ENCODING 282
SWIDTH 686 0
DWIDTH 14 0
BBX 16 23 0 0
BITMAP
000742D0
0007C7C0
0002DB40
0001FE00
0000B800
00000000
00000000
001BFE40
00BFFFE0
03F947F0
07E001F4
07E002F0
03F40050
00BFD000
02FFD000
1FE40000
3F400000
7E000000
7E000000
7F000006
2FD405BF
0BFFFFFD
01AFFE90
ENDCHAR
STARTCHAR ecaron
ENCODING 283
SWIDTH 393 0
DWIDTH 8 0
BBX 11 17 0 0
BITMAP
014040
03C2D0
03D7C0
02DB40
01EF00
01FD00
00B400
000000
02F800
0FFE00
2F6E00
3D2D00
7DB800
7F9074
3E46F4
2FFFD0
06F900
ENDCHAR
STARTCHAR Gcircumflex
ENCODING 284
SWIDTH 811 0
DWIDTH 16 0
BBX 18 32 1 -9
BITMAP
0000B80000
0002FE0000
0007DF0000
000F4F4000
001E074000
0000000000
0000000000
001BFA0000
00BFFF8000
07F91BD000
0FD003E000
2F4007D000
3F0007D000
7E00010000
BD00000000
BD00000000
BD00BFF000
BD00BFF000
7E0002F000
3F4002E1D0
1FE417EBD0
07FFFFFE00
006FEBF400
00000FC000
00007F8000
0001FB8000
0003CF4000
000B5F0000
001E2E0000
001E7C0000
001FF40000
000BD00000
ENDCHAR
STARTCHAR gcircumflex
ENCODING 285
SWIDTH 479 0
DWIDTH 10 0
BBX 12 26 0 -9
BITMAP
000500
002F40
007F80
00B7C0
01F3D0
03D2D0
0381D0
000000
01B800
07FF80
1F9F80
2F0F40
3D1F40
7D2F1E
7D7FBD
3FFFF4
1BAF80
00BD00
02FC00
0FBC00
2DB800
78F400
F1F000
F7D000
FF8000
7E0000
ENDCHAR
STARTCHAR Gbreve
ENCODING 286
SWIDTH 811 0
DWIDTH 16 0
BBX 18 31 1 -9
BITMAP
0014004000
002E47D000
001FFF8000
0006FE0000
0000000000
0000000000
001BFA0000
00BFFF8000
07F91BD000
0FD003E000
2F4007D000
3F0007D000
7E00010000
BD00000000
BD00000000
BD00BFF000
BD00BFF000
7E0002F000
3F4002E1D0
1FE417EBD0
07FFFFFE00
006FEBF400
00000FC000
00007F8000
0001FB8000
0003CF4000
000B5F0000
001E2E0000
001E7C0000
001FF40000
000BD00000
ENDCHAR
STARTCHAR gbreve
ENCODING 287
SWIDTH 479 0
DWIDTH 10 0
BBX 12 24 0 -9
BITMAP
010010
0B80B8
07D1F4
03FFE0
00BE40
000000
01B800
07FF80
1F9F80
2F0F40
3D1F40
7D2F1E
7D7FBD
3FFFF4
1BAF80
00BD00
02FC00
0FBC00
2DB800
78F400
F1F000
F7D000
FF8000
7E0000
ENDCHAR
STARTCHAR Gdotaccent
ENCODING 288
SWIDTH 811 0
DWIDTH 16 0
BBX 18 30 1 -9
BITMAP
0000B80000
0002FC0000
0001F40000
0000000000
0000000000
001BFA0000
00BFFF8000
07F91BD000
0FD003E000
2F4007D000
3F0007D000
7E00010000
BD00000000
BD00000000
BD00BFF000
BD00BFF000
7E0002F000
3F4002E1D0
1FE417EBD0
07FFFFFE00
006FEBF400
00000FC000
00007F8000
0001FB8000
0003CF4000
000B5F0000
001E2E0000
001E7C0000
001FF40000
000BD00000
ENDCHAR
STARTCHAR gdotaccent
ENCODING 289
SWIDTH 479 0
DWIDTH 10 0
BBX 12 22 0 -9
BITMAP
002E00
007F00
003E00
000000
01B800
07FF80
1F9F80
2F0F40
3D1F40
7D2F1E
7D7FBD
3FFFF4
1BAF80
00BD00
02FC00
0FBC00
2DB800
78F400
F1F000
F7D000
FF8000
7E0000
ENDCHAR
STARTCHAR uni0122
ENCODING 290
SWIDTH 811 0
DWIDTH 16 0
BBX 18 25 1 -9
BITMAP
001BFA0000
00BFFF8000
07F91BD000
0FD003E000
2F4007D000
3F0007D000
7E00010000
BD00000000
BD00000000
BD00BFF000
BD00BFF000
7E0002F000
3F4002E1D0
1FE417EBD0
07FFFFFE00
006FEBF400
00000FC000
02D07F8000
03D1FB8000
03C3CF4000
028B5F0000
001E2E0000
001E7C0000
001FF40000
000BD00000
ENDCHAR
STARTCHAR uni0123
ENCODING 291
SWIDTH 479 0
DWIDTH 10 0
BBX 12 24 0 -9
BITMAP
000E00
001F00
001E00
002D00
001C00
000000
01B800
07FF80
1F9F80
2F0F40
3D1F40
7D2F1E
7D7FBD
3FFFF4
1BAF80
00BD00
02FC00
0FBC00
2DB800
78F400
F1F000
F7D000
FF8000
7E0000
ENDCHAR
STARTCHAR Hcircumflex
ENCODING 292
SWIDTH 873 0
DWIDTH 17 0
BBX 21 23 -1 0
BITMAP
000006E00000
00000FF40000
00002E780000
00007C7C0000
0000B42C0000
000000000000
00000000BD00
01BE0002FE00
0BFF400BDB00
2E5F800F4B00
780F801F0F00
200F802E1E00
000F803E2C00
000F807EF400
001F40BF8000
03FFFFFD0000
03FFFAFC0000
003E00BC0000
007E00BC0000
007D00BD01C0
00BC007E5B80
00F8002FFF00
00B4000BF400
ENDCHAR
STARTCHAR hcircumflex
ENCODING 293
SWIDTH 502 0
DWIDTH 10 0
BBX 12 24 1 0
BITMAP
006E00
00FF40
02E780
07C7C0
0B42C0
000000
00B800
03FD00
0BAE00
0F1E00
1E2D00
2E3C00
3D7400
7CF000
7ED000
BF5F00
BEBF40
B9FF40
FB9F00
FF2E00
FE2E0E
FD3E7D
FC2FF4
B41F90
ENDCHAR
STARTCHAR Hbar
ENCODING 294
SWIDTH 856 0
DWIDTH 17 0
BBX 17 16 1 0
BITMAP
02E000B800
03E000FC00
2FFFFFFF40
3FFFFFFF40
07D001F400
0BD001F400
0BC002F400
BFFFFFFE00
BFFFFFFE00
1F8007E000
1F4007E000
2F4007D000
2F000BD000
3F000BC000
3E000FC000
2D000B8000
ENDCHAR
STARTCHAR hbar
ENCODING 295
SWIDTH 502 0
DWIDTH 10 0
BBX 12 16 1 0
BITMAP
078000
0F8000
0F8000
BFFE00
BFFE00
3E0000
3E0000
7D1F00
7CBF40
BDFF40
BB9F00
BF2E00
FE2E0E
FD3E7D
BC2FF4
741F90
ENDCHAR
STARTCHAR Itilde
ENCODING 296
SWIDTH 495 0
DWIDTH 10 0
BBX 13 22 -1 0
BITMAP
002E0100
00BFDB80
00F6FF00
00507D00
00000000
00000000
02FFFE00
03FFFE00
001F8000
001F8000
001F4000
002F4000
002F0000
003F0000
003E0000
007E0000
007D0000
00BD0000
00BC0000
00FC0000
2FFFE000
7FFFE000
ENDCHAR
STARTCHAR itilde
ENCODING 297
SWIDTH 246 0
DWIDTH 5 0
BBX 9 14 -1 0
BITMAP
1E4140
3FE7C0
B5FF40
502E00
000000
03C000
07C000
0BC000
0B8000
0F8000
0F4740
0F9F40
0BFD00
02E400
ENDCHAR
STARTCHAR Imacron
ENCODING 298
SWIDTH 495 0
DWIDTH 10 0
BBX 12 20 -1 0
BITMAP
003FFC
003FFC
000000
000000
02FFFE
03FFFE
001F80
001F80
001F40
002F40
002F00
003F00
003E00
007E00
007D00
00BD00
00BC00
00FC00
2FFFE0
7FFFE0
ENDCHAR
STARTCHAR imacron
ENCODING 299
SWIDTH 246 0
DWIDTH 5 0
BBX 8 12 0 0
BITMAP
BFF4
BFF4
0000
0F00
1F00
2F00
2E00
3E00
3D1D
3E7D
2FF4
0B90
ENDCHAR
STARTCHAR Ibreve
ENCODING 300
SWIDTH 495 0
DWIDTH 10 0
BBX 13 22 -1 0
BITMAP
00500500
00F81F40
00BFFE00
001BE400
00000000
00000000
02FFFE00
03FFFE00
001F8000
001F8000
001F4000
002F4000
002F0000
003F0000
003E0000
007E0000
007D0000
00BD0000
00BC0000
00FC0000
2FFFE000
7FFFE000
ENDCHAR
STARTCHAR ibreve
ENCODING 301
SWIDTH 246 0
DWIDTH 5 0
BBX 9 15 -1 0
BITMAP
100140
780780
7E1F40
2FFE00
0BF800
000000
03C000
07C000
0BC000
0B8000
0F8000
0F4740
0F9F40
0BFD00
02E400
ENDCHAR
STARTCHAR Iogonek
ENCODING 302
SWIDTH 495 0
DWIDTH 10 0
BBX 12 21 -1 -5
BITMAP
02FFFE
03FFFE
001F80
001F80
001F40
002F40
002F00
003F00
003E00
007E00
007D00
00BD00
00BC00
00FC00
2FFFE0
7FFFE0
01E000
03D000
03D100
02FF40
00BE00
ENDCHAR
STARTCHAR iogonek
ENCODING 303
SWIDTH 246 0
DWIDTH 5 0
BBX 8 18 0 -5
BITMAP
0B80
1FD0
0B80
0000
0F00
1F00
2F00
2E00
3E00
3D1D
3E7D
2FF4
1F90
3D00
7800
7800
3FE0
0A80
ENDCHAR
STARTCHAR Idotaccent
ENCODING 304
SWIDTH 495 0
DWIDTH 10 0
BBX 12 21 -1 0
BITMAP
0007E0
000BF0
0007D0
000000
000000
02FFFE
03FFFE
001F80
001F80
001F40
002F40
002F00
003F00
003E00
007E00
007D00
00BD00
00BC00
00FC00
2FFFE0
7FFFE0
ENDCHAR
STARTCHAR dotlessi
ENCODING 305
SWIDTH 246 0
DWIDTH 5 0
BBX 7 9 1 0
BITMAP
3C00
7C00
BC00
B800
F800
F474
F9F4
BFD0
2E40
ENDCHAR
STARTCHAR Jcircumflex
ENCODING 308
SWIDTH 743 0
DWIDTH 15 0
BBX 15 25 1 -2
BITMAP
0002E000
000BF400
001E7C00
007D3D00
00782D00
00000000
00000000
01AFFF90
1BFFFFF4
3F501BE0
7C000BC0
BC000FC0
7C000FC0
28000F80
00001F40
0002FF40
001FFF00
00BE2F00
02F43E00
07D07D00
0F80B800
0F81F400
0F87E000
0BFF8000
02FE0000
ENDCHAR
STARTCHAR jcircumflex
ENCODING 309
SWIDTH 254 0
DWIDTH 5 0
BBX 13 26 -5 -9
BITMAP
00005000
0001F800
0003FC00
000BBC00
001F2D00
002D2E00
00381D00
00000000
0003C000
0007C000
000BC000
000BC000
000B8000
000F8B40
000FBE00
000FF800
001FD000
003F0000
01FE0000
07BD0000
1E3C0000
3C780000
78B40000
B9F00000
7FD00000
2F400000
ENDCHAR
STARTCHAR uni0136
ENCODING 310
SWIDTH 937 0
DWIDTH 19 0
BBX 22 21 0 -5
BITMAP
00AFF9007C00
07FFFE00BC00
1F90FD01F800
2F00F802F400
2E01F807E000
1F01F41F8000
0502F5BE0000
000FFFE40000
000FFF900000
0003E7F40000
0007E1F80000
2007D0FD0040
780BC07E01D0
7D1F803F9BC0
2FFF001FFF00
07F80006F800
000000000000
00003C000000
00007C000000
000078000000
000034000000
ENDCHAR
STARTCHAR uni0137
ENCODING 311
SWIDTH 525 0
DWIDTH 11 0
BBX 12 24 1 -6
BITMAP
00B800
03FD00
0BAE00
0F1E00
1E2D00
2E3C00
3D7400
7CE000
7EC000
BF5F40
BDBFC0
B9D7D0
FB87C0
FF2F41
FEBD0B
FDBD2E
BC7FF8
741BE0
000000
078000
0B8000
0B4000
0B0000
0A0000
ENDCHAR
STARTCHAR kgreenlandic
ENCODING 312
SWIDTH 465 0
DWIDTH 9 0
BBX 11 9 1 0
BITMAP
2C6F40
7DFFC0
BAE7C0
BBC380
FFC000
FFC028
FFE1B8
F9FFE0
746F40
ENDCHAR
STARTCHAR Lacute
ENCODING 313
SWIDTH 673 0
DWIDTH 13 0
BBX 17 23 -1 0
BITMAP
0000000500
0000002F40
000000BF00
000003F800
0000074000
0000000000
0000000000
0000AFE000
0007FFFC00
001FD0BD00
003F003E00
007E003E00
00BD003D00
00BC000000
00BC000000
00FC000000
00F8000000
00F8000000
00F8000040
2FF90002C0
BFFFE51B80
BFEBFFFE00
6F806FE400
ENDCHAR
STARTCHAR lacute
ENCODING 314
SWIDTH 326 0
DWIDTH 7 0
BBX 11 24 1 0
BITMAP
000010
0001F8
0007F8
002F90
003900
000000
00B800
03FD00
0BAD00
0F1E00
1E1D00
2D2D00
3D3C00
7C7800
7CB400
B8E000
BAD000
FB8000
FF0000
BD0100
B80B00
7D6E00
3FF800
1BE000
ENDCHAR
STARTCHAR uni013B
ENCODING 315
SWIDTH 673 0
DWIDTH 13 0
BBX 17 21 -1 -5
BITMAP
0000AFE000
0007FFFC00
001FD0BD00
003F003E00
007E003E00
00BD003D00
00BC000000
00BC000000
00FC000000
00F8000000
00F8000000
00F8000040
2FF90002C0
BFFFE51B80
BFEBFFFE00
6F806FE400
0000000000
000B400000
000F400000
000F000000
000A000000
ENDCHAR
STARTCHAR uni013C
ENCODING 316
SWIDTH 326 0
DWIDTH 7 0
BBX 8 24 1 -6
BITMAP
00B8
03FD
0BAD
0F1E
1E1D
2D2D
3D3C
7C78
7CB4
B8E0
BAD0
FB80
FF00
BD01
B80B
7D6E
3FF8
1BE0
0000
1D00
2E00
2D00
2C00
2800
ENDCHAR
STARTCHAR Lcaron
ENCODING 317
SWIDTH 673 0
DWIDTH 13 0
BBX 19 18 -1 0
BITMAP
0000000024
00000000B8
0000AFE0B8
0007FFFCB4
001FD0BDA0
003F003E00
007E003E00
00BD003D00
00BC000000
00BC000000
00FC000000
00F8000000
00F8000000
00F8000040
2FF90002C0
BFFFE51B80
BFEBFFFE00
6F806FE400
ENDCHAR
STARTCHAR lcaron
ENCODING 318
SWIDTH 237 0
DWIDTH 5 0
BBX 8 19 1 0
BITMAP
0009
002E
002D
0BAC
0FA8
1F40
2F00
2F00
3E00
7D00
7D00
BC00
B800
F800
F410
F474
F5F0
FFD0
7E00
ENDCHAR
STARTCHAR Ldot
ENCODING 319
SWIDTH 673 0
DWIDTH 13 0
BBX 17 16 -1 0
BITMAP
0000AFE000
0007FFFC00
001FD0BD00
003F003E00
007E003E00
00BD003D00
00BC000000
00BC2F0000
00FC3F4000
00F82E0000
00F8000000
00F8000040
2FF90002C0
BFFFE51B80
BFEBFFFE00
6F806FE400
ENDCHAR
STARTCHAR ldot
ENCODING 320
SWIDTH 363 0
DWIDTH 7 0
BBX 9 18 1 0
BITMAP
03C000
0BC000
0BC000
0F8000
1F4000
2F0000
2F0000
3E0000
7DB800
7DFC00
BCB800
B80000
F80000
F80000
F80280
BD1B80
7FFE00
1BE400
ENDCHAR
STARTCHAR Lslash
ENCODING 321
SWIDTH 673 0
DWIDTH 13 0
BBX 17 20 -1 0
BITMAP
00006FFD00
000BFFFF00
001FE40000
0005000000
0000AFE000
0007FFFC00
001FD0BD00
003F003E00
007E003E00
00BD003D00
00BC001400
00FC000000
00FC000000
00F8000000
00F8000000
00F8000040
2FF90002C0
BFFFE51B80
BFEBFFFE00
6F806FE400
ENDCHAR
STARTCHAR lslash
ENCODING 322
SWIDTH 326 0
DWIDTH 7 0
BBX 11 20 1 0
BITMAP
006FE4
07FFF8
1FE400
1E0000
01B800
07FD00
0FAE00
1F1E00
2E2D00
3D2C00
7C3800
B8B400
B9E000
FBC000
FF4000
BD0000
B80700
7D6E00
3FFC00
1BE000
ENDCHAR
STARTCHAR Nacute
ENCODING 323
SWIDTH 884 0
DWIDTH 18 0
BBX 21 23 0 0
BITMAP
000000050000
0000002F4000
000000BF0000
000003F40000
000007400000
000000000000
000000000000
06F806F90000
1FFD1FFF0000
7D7D792F4000
F07DE01F8000
407EC01F4000
007F402F4000
00BF003F0000
00BE003E0000
00FD007E0000
00FC00BD0000
01F800BC0000
01F800FC0000
02F400FC0740
02F400BD1F00
02F0007FFD00
01E0001BE000
ENDCHAR
STARTCHAR nacute
ENCODING 324
SWIDTH 496 0
DWIDTH 10 0
BBX 12 16 1 0
BITMAP
000780
000BC0
001F40
002E00
003800
007000
000000
2C2F00
7CBF40
BAFF00
BBAF00
FF2E00
FD3D1D
FC3E7D
F83FF4
741F90
ENDCHAR
STARTCHAR uni0145
ENCODING 325
SWIDTH 884 0
DWIDTH 18 0
BBX 21 21 0 -5
BITMAP
06F806F90000
1FFD1FFF0000
7D7D792F4000
F07DE01F8000
407EC01F4000
007F402F4000
00BF003F0000
00BE003E0000
00FD007E0000
00FC00BD0000
01F800BC0000
01F800FC0000
02F400FC0740
02F400BD1F00
02F0007FFD00
01E0001BE000
000000000000
0001D0000000
0002E0000000
0002D0000000
000280000000
ENDCHAR
STARTCHAR uni0146
ENCODING 326
SWIDTH 496 0
DWIDTH 10 0
BBX 12 15 1 -6
BITMAP
2C2F00
7CBF40
BAFF00
BBAF00
FF2E00
FD3D1D
FC3E7D
F83FF4
741F90
000000
078000
0B8000
0B4000
0B0000
0A0000
ENDCHAR
STARTCHAR Ncaron
ENCODING 327
SWIDTH 884 0
DWIDTH 18 0
BBX 21 23 0 0
BITMAP
0000742C0000
000078B80000
00003DF00000
00002FD00000
00000B400000
000000000000
000000000000
06F806F90000
1FFD1FFF0000
7D7D792F4000
F07DE01F8000
407EC01F4000
007F402F4000
00BF003F0000
00BE003E0000
00FD007E0000
00FC00BD0000
01F800BC0000
01F800FC0000
02F400FC0740
02F400BD1F00
02F0007FFD00
01E0001BE000
ENDCHAR
STARTCHAR ncaron
ENCODING 328
SWIDTH 496 0
DWIDTH 10 0
BBX 12 17 1 0
BITMAP
014040
03C2D0
03C7C0
02DB40
02EE00
01FD00
00B400
000000
2C2F00
7CBF40
BAFF00
BBAF00
FF2E00
FD3D1D
FC3E7D
F83FF4
741F90
ENDCHAR
STARTCHAR napostrophe
ENCODING 329
SWIDTH 496 0
DWIDTH 10 0
BBX 13 15 0 0
BITMAP
B4000000
F4000000
F0000000
F0000000
D0000000
00000000
0B0BC000
1F2FD000
2EBFC000
2EEBC000
3FCB8000
3F4F4740
3F0F9F40
3E0FFD00
1D07E400
ENDCHAR
STARTCHAR Eng
ENCODING 330
SWIDTH 884 0
DWIDTH 18 0
BBX 21 23 0 -7
BITMAP
06F806F90000
1FFD1FFF0000
7D7D792F4000
F07DE01F4000
407EC01F4000
007F402F4000
00BF003F0000
00BE003E0000
00FD007E0000
00FC00BD0000
01F800BC0000
01F800F80000
02F401F80740
02F401F91F00
02F002FFFD00
01E003FBE000
000003D00000
000007C00000
00000B800000
01E01F400000
02F87E000000
00BFFC000000
001FE0000000
ENDCHAR
STARTCHAR eng
ENCODING 331
SWIDTH 495 0
DWIDTH 10 0
BBX 13 15 0 -6
BITMAP
0B0BC000
1F2FD000
2EBFC000
2EEBC000
3FCB8100
3F4F4740
3F0F5F40
3E1FFD00
1D2FE400
002D0000
003C0000
10780000
78F40000
3FE00000
1F400000
ENDCHAR
STARTCHAR Omacron
ENCODING 332
SWIDTH 816 0
DWIDTH 16 0
BBX 15 20 1 0
BITMAP
001FFF00
001FFE00
00000000
00000000
001BF900
01BFFF80
07F91BE0
0FD002F4
2F4001F8
3F0000FC
7E0000FC
BD0000FC
BD0000F8
BD0001F8
BD0002F4
7E0007E0
3F000FD0
2FD17F40
0BFFFD00
01BF9000
ENDCHAR
STARTCHAR omacron
ENCODING 333
SWIDTH 451 0
DWIDTH 9 0
BBX 12 12 0 0
BITMAP
0BFF40
0BFF40
000000
02F800
1FFF00
2F7F40
3D2FFE
7D0FFD
7D0F40
3E2F00
2FFD00
07E400
ENDCHAR
STARTCHAR Obreve
ENCODING 334
SWIDTH 816 0
DWIDTH 16 0
BBX 15 22 1 0
BITMAP
00140140
003E07C0
002FFF80
0006F900
00000000
00000000
001BF900
01BFFF80
07F91BE0
0FD002F4
2F4001F8
3F0000FC
7E0000FC
BD0000FC
BD0000F8
BD0001F8
BD0002F4
7E0007E0
3F000FD0
2FD17F40
0BFFFD00
01BF9000
ENDCHAR
STARTCHAR obreve
ENCODING 335
SWIDTH 451 0
DWIDTH 9 0
BBX 12 15 0 0
BITMAP
040040
2E01E0
1F47D0
0FFF80
02FD00
000000
02F800
1FFF00
2F7F40
3D2FFE
7D0FFD
7D0F40
3E2F00
2FFD00
07E400
ENDCHAR
STARTCHAR Ohungarumlaut
ENCODING 336
SWIDTH 816 0
DWIDTH 16 0
BBX 15 23 1 0
BITMAP
00014140
0003D7C0
0007CB80
000B8F00
000A0D00
00000000
00000000
001BF900
01BFFF80
07F91BE0
0FD002F4
2F4001F8
3F0000FC
7E0000FC
BD0000FC
BD0000F8
BD0001F8
BD0002F4
7E0007E0
3F000FD0
2FD17F40
0BFFFD00
01BF9000
ENDCHAR
STARTCHAR ohungarumlaut
ENCODING 337
SWIDTH 451 0
DWIDTH 9 0
BBX 12 16 0 0
BITMAP
00B4E0
00F5F0
01F2E0
02D3C0
038740
034600
000000
02F800
1FFF00
2F7F40
3D2FFE
7D0FFD
7D0F40
3E2F00
2FFD00
07E400
ENDCHAR
STARTCHAR OE
ENCODING 338
SWIDTH 1124 0
DWIDTH 22 0
BBX 24 16 1 0
BITMAP
001BF906FFF8
01BFFF8FFFF8
07F91BFF8000
0FD002FF4000
2F4001FF0000
3F0000FE0000
7E0000FD0000
BD0000FFFFD0
BD0000FFFFD0
BD0001FC0000
BD0002F80000
7E0007F80000
3F000FFD0001
2FD17FBF516F
0BFFFD2FFFFD
01BF9006FF90
ENDCHAR
STARTCHAR oe
ENCODING 339
SWIDTH 668 0
DWIDTH 13 0
BBX 16 9 0 0
BITMAP
02F86F40
1FFEFFC0
2F5FD7D0
3D0F87C0
7D0FAF41
7D0FF90B
3E2FD1BE
2FFEFFF8
0BE4BF90
ENDCHAR
STARTCHAR Racute
ENCODING 340
SWIDTH 880 0
DWIDTH 18 0
BBX 19 23 1 0
BITMAP
0000005000
000001F800
00000BF400
00002F8000
0000780000
0000000000
0000000000
001AFE4000
00BFFFF000
07F917F800
0F8140FC00
2F0BC0FC00
3D0F80FC00
7C1F82F400
B81F5BE000
B4FFFE4000
F4BFFD0000
F43E7F4000
B43E1FC000
B87D0BE01C
7DBD07F47C
2FFC01FFF0
06F4007F80
ENDCHAR
STARTCHAR racute
ENCODING 341
SWIDTH 455 0
DWIDTH 9 0
BBX 11 16 1 0
BITMAP
000B40
001F40
002F00
003D00
00B400
00A000
000000
2C2F00
7CBF40
BAFF00
BB9F28
FF1FF8
FD0FE0
FC0000
F80000
740000
ENDCHAR
STARTCHAR uni0156
ENCODING 342
SWIDTH 880 0
DWIDTH 18 0
BBX 19 21 1 -5
BITMAP
001AFE4000
00BFFFF000
07F917F800
0F8140FC00
2F0BC0FC00
3D0F80FC00
7C1F82F400
B81F5BE000
B4FFFE4000
F4BFFD0000
F43E7F4000
B43E1FC000
B87D0BE01C
7DBD07F47C
2FFC01FFF0
06F4007F80
0000000000
0001E00000
0001F00000
0001E00000
0001D00000
ENDCHAR
STARTCHAR uni0157
ENCODING 343
SWIDTH 455 0
DWIDTH 9 0
BBX 12 15 0 -6
BITMAP
0B0BC0
1F2FD0
2EBFC0
2EE7CA
3FC7FE
3F43F8
3F0000
3E0000
1D0000
000000
2C0000
3D0000
3C0000
780000
340000
ENDCHAR
STARTCHAR Rcaron
ENCODING 344
SWIDTH 880 0
DWIDTH 18 0
BBX 19 23 1 0
BITMAP
000742D000
0007C7C000
0002DF4000
0001FE0000
0000B80000
0000000000
0000000000
001AFE4000
00BFFFF000
07F917F800
0F8140FC00
2F0BC0FC00
3D0F80FC00
7C1F82F400
B81F5BE000
B4FFFE4000
F4BFFD0000
F43E7F4000
B43E1FC000
B87D0BE01C
7DBD07F47C
2FFC01FFF0
06F4007F80
ENDCHAR
STARTCHAR rcaron
ENCODING 345
SWIDTH 455 0
DWIDTH 9 0
BBX 11 17 1 0
BITMAP
010140
0B87C0
078B80
079F00
03ED00
02F800
01E000
000000
2C2F00
7CBF40
BAFF00
BB9F28
FF1FF8
FD0FE0
FC0000
F80000
740000
ENDCHAR
STARTCHAR Sacute
ENCODING 346
SWIDTH 693 0
DWIDTH 14 0
BBX 14 23 0 0
BITMAP
00000040
000007E0
00001FE0
0000BE40
0000E400
00000000
00000000
002BF900
01FFFFC0
07F51BE0
0BC002E0
0FC002E0
0BD002D0
07F90000
01FF9000
002FFD00
0001BF40
2D001FC0
7D000BC0
7D000FC0
3F506F80
1FFFFE00
02BFE400
ENDCHAR
STARTCHAR sacute
ENCODING 347
SWIDTH 427 0
DWIDTH 9 0
BBX 11 16 0 0
BITMAP
000780
000BC0
001F40
002E00
003800
007000
000000
00B000
02E000
03E000
0BF400
1EBD04
3C3E2C
F6BFF8
D7FFF0
02FF80
ENDCHAR
STARTCHAR Scircumflex
ENCODING 348
SWIDTH 693 0
DWIDTH 14 0
BBX 14 23 0 0
BITMAP
0001B800
0003FC00
000BAE00
001F1F00
002D0B00
00000000
00000000
002BF900
01FFFFC0
07F51BE0
0BC002E0
0FC002E0
0BD002D0
07F90000
01FF9000
002FFD00
0001BF40
2D001FC0
7D000BC0
7D000FC0
3F506F80
1FFFFE00
02BFE400
ENDCHAR
STARTCHAR scircumflex
ENCODING 349
SWIDTH 427 0
DWIDTH 9 0
BBX 11 17 0 0
BITMAP
001400
007E00
00FE00
02DF00
07CB40
0F4B80
0E0740
000000
00B000
02E000
03E000
0BF400
1EBD04
3C3E2C
F6BFF8
D7FFF0
02FF80
ENDCHAR
STARTCHAR Scedilla
ENCODING 350
SWIDTH 693 0
DWIDTH 14 0
BBX 14 21 0 -5
BITMAP
002BF900
01FFFF80
07F51BE0
0BC002E0
0FC002E0
0BD002D0
07F80000
02FF9000
006FF900
0002FF40
28002FC0
7D000BC0
7D000BC0
3E402F80
2FFFFF00
07FFF800
00BF8000
00078000
000B8000
03FF4000
02FD0000
ENDCHAR
STARTCHAR scedilla
ENCODING 351
SWIDTH 427 0
DWIDTH 9 0
BBX 11 14 0 -5
BITMAP
00B000
02F000
03E000
0BF000
1FF800
3D7D1C
B83E7C
E7FFF4
07FF80
0BF800
007C00
007800
2AF400
2F9000
ENDCHAR
STARTCHAR Scaron
ENCODING 352
SWIDTH 693 0
DWIDTH 14 0
BBX 14 23 0 0
BITMAP
000E0740
000F4F40
000BAE00
0003F800
0001E000
00000000
00000000
002BF900
01FFFFC0
07F51BE0
0BC002E0
0FC002E0
0BD002D0
07F90000
01FF9000
002FFD00
0001BF40
2D001FC0
7D000BC0
7D000FC0
3F506F80
1FFFFE00
02BFE400
ENDCHAR
STARTCHAR scaron
ENCODING 353
SWIDTH 427 0
DWIDTH 9 0
BBX 11 17 0 0
BITMAP
014040
03C2D0
03C7C0
02DB40
02EE00
01FD00
00B400
000000
00B000
02E000
03E000
0BF400
1EBD04
3C3E2C
F6BFF8
D7FFF0
02FF80
ENDCHAR
STARTCHAR uni0162
ENCODING 354
SWIDTH 697 0
DWIDTH 14 0
BBX 18 21 0 -5
BITMAP
006BFFFFE0
0BFFFFFFF0
2F94FC0140
7D00F80000
7C01F80000
3D02F40000
1802F40000
0003F00000
0003E00000
0007E00000
0007D00000
000BD00000
000BD00000
000FC00000
000FC00000
002F800000
003FD00000
0002E00000
0002E00000
00FFC00000
00FE400000
ENDCHAR
STARTCHAR uni0163
ENCODING 355
SWIDTH 393 0
DWIDTH 8 0
BBX 11 22 0 -5
BITMAP
002E00
00BF80
01F780
02D780
03C740
07CB00
0B9D00
0FB800
BFFFC0
FFFF80
1F4000
1F4000
1F4000
0F4034
0FC1F4
07FFD0
07FE40
06F800
003C00
007C00
1FF800
1FE000
ENDCHAR
STARTCHAR Tcaron
ENCODING 356
SWIDTH 697 0
DWIDTH 14 0
BBX 18 23 0 0
BITMAP
0001D0B000
0001E1E000
0000F7C000
00007F4000
00002E0000
0000000000
0000000000
006BFFFFE0
0BFFFFFFF0
2F94FC0140
7D00F80000
7C01F80000
3D01F40000
1802F40000
0003F00000
0003E00000
0007E00000
0007D00000
000BD00000
000BD00000
000FC00000
000FC00000
000B800000
ENDCHAR
STARTCHAR tcaron
ENCODING 357
SWIDTH 343 0
DWIDTH 7 0
BBX 10 19 0 0
BITMAP
000180
0003D0
0003C0
000780
01E340
03E000
07D000
07D000
0BC000
BFFF00
BFFE00
1F4000
1F0000
2F0000
2F0040
2F01D0
1F47C0
0FFF40
06F800
ENDCHAR
STARTCHAR Tbar
ENCODING 358
SWIDTH 697 0
DWIDTH 14 0
BBX 18 16 0 0
BITMAP
006BFFFFE0
0BFFFFFFF0
2F94FC0140
7D00F80000
7C01F80000
3D02F40000
1802F00000
00FFFFC000
01FFFFC000
0007E00000
0007D00000
000BD00000
000BD00000
000FC00000
000FC00000
000B800000
ENDCHAR
STARTCHAR tbar
ENCODING 359
SWIDTH 343 0
DWIDTH 7 0
BBX 10 15 0 0
BITMAP
01E000
03E000
07D000
07D000
0BC000
BFFF00
BFFE00
1F4000
1F4000
FFFC00
BFA400
2F01D0
1F47D0
0FFF40
06F800
ENDCHAR
STARTCHAR Utilde
ENCODING 360
SWIDTH 890 0
DWIDTH 18 0
BBX 21 22 0 0
BITMAP
0000B8040000
0002FF6D0000
0007DBFC0000
000101F40000
000000000000
000000000000
06F8000B4000
1FFE000F8000
7D7F001F8000
F03F001F4000
403E002F4000
007E003F0000
00BD003F0000
00BC007E0000
00FC00BE0000
01F801FD0000
01F402FD0000
02F407BD0100
02F41EBD0740
02F9BCBE6F00
01FFF47FFD00
006F801BE000
ENDCHAR
STARTCHAR utilde
ENCODING 361
SWIDTH 462 0
DWIDTH 9 0
BBX 11 14 1 0
BITMAP
0B8040
2FF6D0
3DBFC0
141F40
000000
2D1E00
7C2E00
BC3D00
B87D00
F4BC04
F5F828
FFFDB8
BF7FE0
7D2E40
ENDCHAR
STARTCHAR Umacron
ENCODING 362
SWIDTH 890 0
DWIDTH 18 0
BBX 21 20 0 0
BITMAP
0001FFF00000
0001FFE00000
000000000000
000000000000
06F8000B4000
1FFE000F8000
7D7F001F8000
F03F001F4000
403E002F4000
007E003F0000
00BD003F0000
00BC007E0000
00FC00BE0000
01F801FD0000
01F402FD0000
02F407BD0100
02F41EBD0740
02F9BCBE6F00
01FFF47FFD00
006F801BE000
ENDCHAR
STARTCHAR umacron
ENCODING 363
SWIDTH 462 0
DWIDTH 9 0
BBX 11 12 1 0
BITMAP
0FFF00
0FFF00
000000
2D1E00
7C2E00
BC3D00
B87D00
F4BC04
F5F828
FFFDB8
BF7FE0
7D2E40
ENDCHAR
STARTCHAR Ubreve
ENCODING 364
SWIDTH 890 0
DWIDTH 18 0
BBX 21 22 0 0
BITMAP
000140140000
0003E07C0000
0002FFF80000
00006F900000
000000000000
000000000000
06F8000B4000
1FFE000F8000
7D7F001F8000
F03F001F4000
403E002F4000
007E003F0000
00BD003F0000
00BC007E0000
00FC00BE0000
01F801FD0000
01F402FD0000
02F407BD0100
02F41EBD0740
02F9BCBE6F00
01FFF47FFD00
006F801BE000
ENDCHAR
STARTCHAR ubreve
ENCODING 365
SWIDTH 462 0
DWIDTH 9 0
BBX 11 15 1 0
BITMAP
140040
3D03D0
2F4BC0
1FFF40
06F900
000000
2D1E00
7C2E00
BC3D00
B87D00
F4BC04
F5F828
FFFDB8
BF7FE0
7D2E40
ENDCHAR
STARTCHAR Uring
ENCODING 366
SWIDTH 890 0
DWIDTH 18 0
BBX 21 24 0 0
BITMAP
00001F800000
00007FE00000
000074E00000
000079E00000
00007FD00000
00001F800000
000000000000
000000000000
06F8000B4000
1FFE000F8000
7D7F001F8000
F03F001F4000
403E002F4000
007E003F0000
00BD003F0000
00BC007E0000
00FC00BE0000
01F801FD0000
01F402FD0000
02F407BD0100
02F41EBD0740
02F9BCBE6F00
01FFF47FFD00
006F801BE000
ENDCHAR
STARTCHAR uring
ENCODING 367
SWIDTH 462 0
DWIDTH 9 0
BBX 11 16 1 0
BITMAP
01F800
03FE00
078F00
079F00
03FE00
01F800
000000
2D1E00
7C2E00
BC3D00
B87D00
F4BC04
F5F828
FFFDB8
BF7FE0
7D2E40
ENDCHAR
STARTCHAR Uhungarumlaut
ENCODING 368
SWIDTH 890 0
DWIDTH 18 0
BBX 21 23 0 0
BITMAP
000014140000
00003D7C0000
00007DB80000
0000B8F40000
0000A0D00000
000000000000
000000000000
06F8000B4000
1FFE000F8000
7D7F001F8000
F03F001F4000
403E002F4000
007E003F0000
00BD003F0000
00BC007E0000
00FC00BE0000
01F801FD0000
01F402FD0000
02F407BD0100
02F41EBD0740
02F9BCBE6F00
01FFF47FFD00
006F801BE000
ENDCHAR
STARTCHAR uhungarumlaut
ENCODING 369
SWIDTH 462 0
DWIDTH 9 0
BBX 11 16 1 0
BITMAP
00E1D0
01F3E0
02E3D0
03C780
074B00
060900
000000
2D1E00
7C2E00
BC3D00
B87D00
F4BC04
F5F828
FFFDB8
BF7FE0
7D2E40
ENDCHAR
STARTCHAR Uogonek
ENCODING 370
SWIDTH 890 0
DWIDTH 18 0
BBX 21 21 0 -5
BITMAP
06F8000B4000
1FFE000F8000
7D7F001F8000
F03F001F4000
903E002F4000
007E003F0000
00BD003F0000
00BC007E0000
00FC00BE0000
01F800FD0000
01F402FD0000
02F407BD0000
02F00EBD0340
02F87DBE1F40
01FFF47FFD00
006F801FE400
0000000B8000
0000000F0000
0000000F4400
0000000BFC00
00000002A800
ENDCHAR
STARTCHAR uogonek
ENCODING 371
SWIDTH 462 0
DWIDTH 9 0
BBX 11 14 1 -5
BITMAP
2D1E00
7C2E00
BC3D00
B87D00
F4BC04
F5F828
FFFDB8
BF7FE0
7D3F40
00B800
00F000
00F440
00BFC0
001A40
ENDCHAR
STARTCHAR Wcircumflex
ENCODING 372
SWIDTH 1217 0
DWIDTH 24 0
BBX 25 23 2 0
BITMAP
000002F0000000
00000BF8000000
00001F3C000000
00003D2D000000
0000781D000000
00000000000000
00000000000000
2E0007C00BE000
3F000BD02FF800
3E000FC07DBC00
7E000FC078BC00
7D001F80B4B800
7D002F8078B800
BD003F803DF400
BD007F802FF400
BD00BF800BFFC0
BD00FF8007EFC0
7D01FB800F8000
7E03DBC02F0000
3F0BC7D0BD0000
2FBF43FBF40000
1FFD02FFD00000
07E400BE400000
ENDCHAR
STARTCHAR wcircumflex
ENCODING 373
SWIDTH 700 0
DWIDTH 14 0
BBX 16 17 1 0
BITMAP
00050000
001F8000
002FC000
007AD000
00F5E000
02E1F000
02D0E000
00000000
B42D0B40
F43D2F80
F4BD2F84
F4FE2FFE
F9FE3FF9
FBEEB800
BFAFF000
BF5FD000
2D0B4000
ENDCHAR
STARTCHAR Ycircumflex
ENCODING 374
SWIDTH 851 0
DWIDTH 17 0
BBX 19 29 0 -6
BITMAP
00000B8000
00002FE000
00007CF000
0000F4F400
0001E07400
0000000000
0000000000
06F8000B40
1FFE000F80
7D7F001F80
F03F001F40
903E002F40
007E003F00
00BD007F00
00BC00BF00
00FC00FE00
00F802FE00
00F807BD00
00FD1E7D00
00BFFC7EBC
002FE5FFF8
00006FFD40
0002E4F800
000B41F400
002E02F000
003D03E000
003E1BC000
003FFF4000
000BF90000
ENDCHAR
STARTCHAR ycircumflex
ENCODING 375
SWIDTH 479 0
DWIDTH 10 0
BBX 12 26 0 -9
BITMAP
000500
002F00
007F40
00F780
02E7C0
07C3C0
0742C0
000000
0B4780
1F0B80
2F0F40
2E1F40
3D2F00
3D7F1E
3FFFBD
2FEFE4
1F6F40
00BD00
02FC00
0BBC00
2DB800
78F400
F1F000
F7D000
FF8000
7E0000
ENDCHAR
STARTCHAR Ydieresis
ENCODING 376
SWIDTH 851 0
DWIDTH 17 0
BBX 19 27 0 -6
BITMAP
0000B4B800
0001F8FC00
0000F4B400
0000000000
0000000000
06F8000B40
1FFE000F80
7D7F001F80
F03F001F40
903E002F40
007E003F00
00BD007F00
00BC00BF00
00FC00FE00
00F802FE00
00F807BD00
00FD1E7D00
00BFFC7EBC
002FE5FFF8
00006FFD40
0002E4F800
000B41F400
002E02F000
003D03E000
003E1BC000
003FFF4000
000BF90000
ENDCHAR
STARTCHAR Zacute
ENCODING 377
SWIDTH 721 0
DWIDTH 14 0
BBX 17 23 0 0
BITMAP
0000005000
000002F400
00000BF000
00003F4000
0000740000
0000000000
0000000000
00AFFE9400
0BFFFFFD00
1F9406FD00
2E0007F000
2E000FD000
2F002F8000
05007F0000
0000FD0000
0002F80000
000BE00000
001FC00000
007F400040
2FFE0002C0
BFFFE51B80
BFFBFFFE00
2F806FE400
ENDCHAR
STARTCHAR zacute
ENCODING 378
SWIDTH 445 0
DWIDTH 9 0
BBX 11 16 1 0
BITMAP
000B00
001F40
002E00
007C00
00B400
00A000
000000
BFFF40
BFFF40
02FD00
1FD000
7E0010
BC0074
BE06F0
7FFFD0
1BF900
ENDCHAR
STARTCHAR Zdotaccent
ENCODING 379
SWIDTH 721 0
DWIDTH 14 0
BBX 17 21 0 0
BITMAP
0000B80000
0001FC0000
0001F80000
0000000000
0000000000
00AFFE9400
0BFFFFFD00
1F9406FD00
2E0007F000
2E000FD000
2F002F8000
05007F0000
0000FD0000
0002F80000
000BE00000
001FC00000
007F400040
2FFE0002C0
BFFFE51B80
BFFBFFFE00
2F806FE400
ENDCHAR
STARTCHAR zdotaccent
ENCODING 380
SWIDTH 445 0
DWIDTH 9 0
BBX 11 13 1 0
BITMAP
01F400
02F800
01F400
000000
BFFF40
BFFF40
02FD00
1FD000
7E0010
BC0074
BE06F0
7FFFD0
1BF900
ENDCHAR
STARTCHAR Zcaron
ENCODING 381
SWIDTH 721 0
DWIDTH 14 0
BBX 17 23 0 0
BITMAP
000742C000
00078B8000
0003DF0000
0002FD0000
0000B40000
0000000000
0000000000
00AFFE9400
0BFFFFFD00
1F9406FD00
2E0007F000
2E000FD000
2F002F8000
05007F0000
0000FD0000
0002F80000
000BE00000
001FC00000
007F400040
2FFE0002C0
BFFFE51B80
BFFBFFFE00
2F806FE400
ENDCHAR
STARTCHAR zcaron
ENCODING 382
SWIDTH 445 0
DWIDTH 9 0
BBX 11 17 1 0
BITMAP
050140
0B47C0
0B8B40
079F00
03ED00
02F800
01E000
000000
BFFF40
BFFF40
02FD00
1FD000
7E0010
BC0074
BE06F0
7FFFD0
1BF900
ENDCHAR
STARTCHAR uni018F
ENCODING 399
SWIDTH 792 0
DWIDTH 16 0
BBX 15 16 1 0
BITMAP
006FE800
07FFFF40
0FD46FD0
1D0007E0
000002F0
000002F4
000001F4
7FFFFFF4
BFFFFFF4
BD0003F0
BD0007E0
BD000BD0
3F002F80
2F91BF00
0BFFF800
01BF9000
ENDCHAR
STARTCHAR florin
ENCODING 402
SWIDTH 478 0
DWIDTH 10 0
BBX 13 20 -2 -5
BITMAP
0000BF40
0003FF80
0007E400
000BC000
000F8000
000F8000
03FFFE00
03FFFD00
001F4000
002F0000
002F0000
002E0000
003E0000
003E0000
007D0000
007D0000
007C0000
01FC0000
7FF40000
7F900000
ENDCHAR
STARTCHAR Ohorn
ENCODING 416
SWIDTH 816 0
DWIDTH 16 0
BBX 16 20 1 0
BITMAP
00000005
0000000F
0000001F
0000003F
001BFFFD
01BFFFF4
07F91BF0
0FD002F4
2F4001F8
3F0000FC
7E0000FC
BD0000FC
BD0000F8
BD0001F8
BD0002F4
7E0007E0
3F000FC0
2FD17F40
0BFFFD00
01BF9000
ENDCHAR
STARTCHAR ohorn
ENCODING 417
SWIDTH 451 0
DWIDTH 9 0
BBX 12 12 0 0
BITMAP
000050
0000F0
0001F0
02FFD0
1FFF40
2F7F40
3D2FFE
7D0FFD
7D0F40
3E2F00
2FFD00
07E400
ENDCHAR
STARTCHAR Uhorn
ENCODING 431
SWIDTH 890 0
DWIDTH 18 0
BBX 21 20 0 0
BITMAP
000000000500
000000001E00
000000002E00
000000007D00
06F8000BF800
1FFE000F9000
7D7F001F8000
F03F001F4000
403E002F4000
007E003F0000
00BD003F0000
00BC007E0000
00FC00BE0000
01F801FD0000
01F402FD0000
02F407BC0100
02F41EBD0740
02F9BCBE6F00
01FFF47FFD00
006F801BE000
ENDCHAR
STARTCHAR uhorn
ENCODING 432
SWIDTH 512 0
DWIDTH 10 0
BBX 12 12 1 0
BITMAP
000010
0000B4
0001F0
2D1FE0
7C2F80
BC3D00
B87D00
F4BC01
F5F80A
FFFC6E
BF7FF8
7D2F90
ENDCHAR
STARTCHAR uni01C4
ENCODING 452
SWIDTH 1531 0
DWIDTH 31 0
BBX 32 23 1 0
BITMAP
00000000001D0B00
00000000001F1F00
00000000000B7D00
000000000007F800
000000000002E000
0000000000000000
0000000000000000
01BFE40001BFFA90
0BFFFF401FFFFFF8
0A556FD07E501BF4
000007F0BC000FC0
07D002F4B8002F40
0BD001F87C007E00
0FC000F81400FC00
0F8001F80002F400
1F4001F8000BE000
2F4002F4001FC000
2F0003F0007F4000
3F000BE000FE0001
3E002FC06FFD0007
7E56FF41FFFFE46F
7FFFF801FFEFFFFC
2FFE4000BE01AFE0
ENDCHAR
STARTCHAR uni01C5
ENCODING 453
SWIDTH 1191 0
DWIDTH 24 0
BBX 24 17 1 0
BITMAP
000000000405
01BFE4001E0F
0BFFFF401F2E
0A556FD00F3C
000007F00BB8
07D002F40BF0
0BD001F803D0
0FC000F80000
0F8001F9FFFC
1F4001F9FFFC
2F4002F40BF4
2F0003F02F80
3F000BE0BD00
3E002FC1F400
7E56FF43E000
7FFFF807FFFC
2FFE4003FFFC
ENDCHAR
STARTCHAR uni01C6
ENCODING 454
SWIDTH 895 0
DWIDTH 18 0
BBX 21 16 0 0
BITMAP
0000F4B43800
0001F4B8B800
0002F079F000
0002E03FD000
0003E02F8000
0003D01A0000
0007C0000000
01BFCBFFF400
07FF8BFFF400
1F9F802F9000
2F0F41F90000
3D1F07E00100
7D2F0BC00740
7E7F6FE5BF00
3FEBFBFFFD00
1B87D1BF9000
ENDCHAR
STARTCHAR uni01C7
ENCODING 455
SWIDTH 1276 0
DWIDTH 26 0
BBX 27 18 -1 -2
BITMAP
0001BF9006FFA4
0007FFF42FFFFC
001FD1F8BE47F4
003F00BCF803E0
007E00F8F403E0
00BD00F4F807E0
00BC00007407D0
00BC0000000BC0
00FC0000007FC0
00F8000007EF80
00F800002F5F40
00F80000B81F40
2FF90002E02F00
BFFFE51BD03D00
BFEBFFFFD0BC00
6F806FEBE2F400
00000003FFD000
00000000BE4000
ENDCHAR
STARTCHAR uni01C8
ENCODING 456
SWIDTH 927 0
DWIDTH 19 0
BBX 22 25 -1 -9
BITMAP
0000AFE00000
0007FFFC0000
001FD0BD0000
003F003EBC00
007E003EFD00
00BD003DB800
00BC00140000
00BC0000B800
00FC0000F800
00F80000F400
00F80000F400
00F80001F410
2FF90001F1E0
BFFFE51BF7D0
BFEBFFFFFE00
6F806FEBF400
0000000BD000
0000002FC000
000000BBC000
000002DB8000
0000078F4000
00000F1F0000
00000F7D0000
00000FF80000
000007E00000
ENDCHAR
STARTCHAR uni01C9
ENCODING 457
SWIDTH 610 0
DWIDTH 12 0
BBX 14 27 1 -9
BITMAP
00B80000
03FD0000
0BAE0000
0F1E0000
1E1D0000
2D2DB800
3D3DFC00
7C78F800
7CB40000
B8E0B400
BAD1F400
FB81F000
FF02F000
BD02E040
B80BE2D0
7D6FEFC0
3FFFFE00
1BE7F400
001FC000
007F8000
01FB8000
07CF4000
0B5F0000
1E2E0000
1E7C0000
1FF40000
0BD00000
ENDCHAR
STARTCHAR uni01CA
ENCODING 458
SWIDTH 1497 0
DWIDTH 30 0
BBX 31 18 0 -2
BITMAP
06F806F9006BFFA0
1FFD1FFF02FFFFF4
7D7D792F4BE40BE0
F07DE01F8F800BD0
407EC01F4F400BC0
007F402F4F800FC0
00BF003F07400F80
00BE003E00001F80
00FD007E0002FF40
00FC00BD001FFF00
01F800BC00BE2F00
01F800FC02F43E00
02F400FC07D07D00
02F400BD1F80B800
02F0007FFF81F400
01E0001BEFD7E000
0000000007FF8000
0000000001FD0000
ENDCHAR
STARTCHAR uni01CB
ENCODING 459
SWIDTH 1138 0
DWIDTH 23 0
BBX 25 25 0 -9
BITMAP
02F806F9000000
1FFD1FFF000000
7D7D792F400000
F07DE01F81F400
907EC01F43F800
007F402F41F400
00BF003F000000
00BE003E01E000
00FD007E02E000
00FC00BD03E000
01F800BC03E000
01F800FC03D000
02F400FC07D2C0
02F400BD1FDF80
02F0007FFFFD00
01E0001BEBE000
000000001F8000
00000000BF4000
00000002EF0000
0000000B9F0000
0000001E2E0000
0000002D3C0000
0000002DB80000
0000002FF00000
0000000B900000
ENDCHAR
STARTCHAR uni01CC
ENCODING 460
SWIDTH 750 0
DWIDTH 15 0
BBX 16 22 1 -9
BITMAP
000007E0
00000BF0
000007D0
00000000
2C2F07C0
7CBF47C0
BAFF0BC0
BBAF0B80
FF2E0B81
FD3D1F4B
FC3E7FBE
F83FFFF4
741FAF80
00007E00
0001FE00
0007BD00
001E3C00
003C7800
0074F400
00BAF000
007FD000
002F4000
ENDCHAR
STARTCHAR Gcaron
ENCODING 486
SWIDTH 811 0
DWIDTH 16 0
BBX 18 32 1 -9
BITMAP
000B028000
000B8B8000
0003DF0000
0002FD0000
0000F40000
0000000000
0000000000
001BFA0000
00BFFF8000
07F91BD000
0FD003E000
2F4007D000
3F0007D000
7E00010000
BD00000000
BD00000000
BD00BFF000
BD00BFF000
7E0002F000
3F4002E1D0
1FE417EBD0
07FFFFFE00
006FEBF400
00000FC000
00007F8000
0001FB8000
0003CF4000
000B5F0000
001E2E0000
001E7C0000
001FF40000
000BD00000
ENDCHAR
STARTCHAR gcaron
ENCODING 487
SWIDTH 479 0
DWIDTH 10 0
BBX 12 26 0 -9
BITMAP
005010
01F0F4
00F1F0
00F3D0
00BB80
007F00
002D00
000000
01B800
07FF80
1F9F80
2F0F40
3D1F40
7D2F1E
7D7FBD
3FFFF4
1BAF80
00BD00
02FC00
0FBC00
2DB800
78F400
F1F000
F7D000
FF8000
7E0000
ENDCHAR
STARTCHAR uni01EA
ENCODING 490
SWIDTH 816 0
DWIDTH 16 0
BBX 15 21 1 -5
BITMAP
001BF900
00BFFF80
07F91BE0
0FD002F4
2F4001F8
3F0000FC
7E0000FC
BD0000FC
BD0000F8
BD0001F8
BD0002F4
BE0007F0
7F000FD0
2FD17F80
0BFFFD00
02FFE400
001F4000
002D0000
002E0000
001FF800
000BF400
ENDCHAR
STARTCHAR uni01EB
ENCODING 491
SWIDTH 451 0
DWIDTH 9 0
BBX 12 14 0 -5
BITMAP
02F800
0FFE00
2F7F40
3D3F95
7D2FFE
7D0BF9
3D0F40
2FBE00
0FF800
02E000
078000
078000
07EE00
01FD00
ENDCHAR
STARTCHAR Aringacute
ENCODING 506
SWIDTH 786 0
DWIDTH 16 0
BBX 19 25 1 0
BITMAP
00000000B4
00000002F4
00001FDB90
00003FF500
000079F000
00003FE000
00001F8000
0000000000
0000000000
0001BFE900
002FFFFE00
01FF956900
07F4029000
0FD007E000
2F8007D000
3F000BC000
7E000FC000
BD001F8000
BC002F4000
FC003F4000
BD007F4000
BE00FF41D0
7F97EF9BC0
1FFF4FFF40
06F906F800
ENDCHAR
STARTCHAR aringacute
ENCODING 507
SWIDTH 470 0
DWIDTH 9 0
BBX 13 18 0 0
BITMAP
00000140
000007C0
002E5F80
00BFD400
00E2C000
00E6C000
00FF8000
006E0000
00000000
01B80000
07FF8000
1F9F8000
2F0F4000
3D1F4000
7D2F0B00
7D7F6E00
3FFFF800
1B87E000
ENDCHAR
STARTCHAR AEacute
ENCODING 508
SWIDTH 1015 0
DWIDTH 20 0
BBX 22 23 1 0
BITMAP
000000005000
00000002F400
0000000BF000
0000003F8000
000000740000
000000000000
000000000000
0006F87FFF40
006FF8FFFF40
01FF91F40000
07F402F00000
0FD003E00000
2F8007E00000
3F000BD00000
7E000FFFFC00
BD001FFFFC00
BC002F800000
FC003F800000
BD007F800000
BD00FFC00050
7F47EBF517E0
1FFF82FFFFD0
06F9006FF900
ENDCHAR
STARTCHAR aeacute
ENCODING 509
SWIDTH 653 0
DWIDTH 13 0
BBX 16 16 0 0
BITMAP
00000B00
00001F40
00002E00
00007C00
0000B400
00009000
00000000
01BD7E00
07FFFF80
1F9BD7C0
2E0F8780
3D1FAF00
7D1FF41E
3E7FD1BD
2FF7FFF4
0BD1BF80
ENDCHAR
STARTCHAR Oslashacute
ENCODING 510
SWIDTH 816 0
DWIDTH 16 0
BBX 15 25 1 -2
BITMAP
00000500
00002F00
0000FE00
0007F400
000B4000
00002C00
00003C00
001BFD00
00BFFF80
07F9FFE0
0FD1F3F4
2F41E1F8
3F02D0FC
7E03C0FC
BD0780FC
BD0B80F8
BD0F41F8
BD0F02F4
7E1E03E0
3F2D0FD0
2FFD7F40
0BFFFD00
01FF9000
00F40000
00B00000
ENDCHAR
STARTCHAR oslashacute
ENCODING 511
SWIDTH 459 0
DWIDTH 9 0
BBX 12 19 0 -3
BITMAP
003800
00BC00
00F800
01E000
03D400
037800
003400
06F900
1FFF00
2EBF80
3DABEA
7CD7FE
7DDB94
3EDF40
2FFE00
0BF400
038000
034000
010000
ENDCHAR
STARTCHAR uni0200
ENCODING 512
SWIDTH 786 0
DWIDTH 16 0
BBX 18 23 1 0
BITMAP
0001410000
0003D78000
0003E7C000
0001E2D000
0000A0D000
0000000000
0000000000
0001BFE900
002FFFFE00
01FF956900
07F4029000
0FD007E000
2F8007D000
3F000BC000
7E000FC000
BD001F8000
BC002F4000
FC003F4000
BD007F4000
BE00FF41D0
7F97EF9BC0
1FFF4FFF40
06F906F800
ENDCHAR
STARTCHAR uni0201
ENCODING 513
SWIDTH 470 0
DWIDTH 9 0
BBX 12 16 0 0
BITMAP
1E2D00
2F3E00
1F6F00
0B8F40
03C780
01C280
000000
01B800
07FF80
1F9F80
2F0F40
3D1F40
7D2F0B
7D7F6E
3FFFF8
1B87E0
ENDCHAR
STARTCHAR uni0202
ENCODING 514
SWIDTH 786 0
DWIDTH 16 0
BBX 18 22 1 0
BITMAP
00006FE400
0001FFFC00
0002E07D00
0001401400
0000000000
0000000000
0001BFE900
002FFFFE00
01FF956900
07F4029000
0FD007E000
2F8007D000
3F000BC000
7E000FC000
BD001F8000
BC002F4000
FC003F4000
BD007F4000
BE00FF41D0
7F97EF9BC0
1FFF4FFF40
06F906F800
ENDCHAR
STARTCHAR uni0203
ENCODING 515
SWIDTH 470 0
DWIDTH 9 0
BBX 12 15 0 0
BITMAP
00BF80
02FFF0
07D1F4
0B40B8
010010
000000
01B800
07FF80
1F9F80
2F0F40
3D1F40
7D2F0B
7D7F6E
3FFFF8
1B87E0
ENDCHAR
STARTCHAR uni0204
ENCODING 516
SWIDTH 686 0
DWIDTH 14 0
BBX 16 23 0 0
BITMAP
00041400
002E3D00
001F2E00
000B4F00
00034700
00000000
00000000
001BFE40
00BFFFE0
03F947F0
07E001F4
07E002F0
03F40050
00BFD000
02FFD000
1FE40000
3F400000
7E000000
7E000000
7F000006
2FD405BF
0BFFFFFD
01AFFE90
ENDCHAR
STARTCHAR uni0205
ENCODING 517
SWIDTH 393 0
DWIDTH 8 0
BBX 11 16 0 0
BITMAP
78B400
7CB800
3D7C00
1E2D00
0B1E00
074600
000000
02F800
0FFE00
2F6E00
3D2D00
7DB800
7F9074
3E46F4
2FFFD0
06F900
ENDCHAR
STARTCHAR uni0206
ENCODING 518
SWIDTH 686 0
DWIDTH 14 0
BBX 16 22 0 0
BITMAP
0002FF40
000BFFE0
001F42F0
00040050
00000000
00000000
001BFE40
00BFFFE0
03F947F0
07E001F4
07E002F0
03F40050
00BFD000
02FFD000
1FE40000
3F400000
7E000000
7E000000
7F000006
2FD405BF
0BFFFFFD
01AFFE90
ENDCHAR
STARTCHAR uni0207
ENCODING 519
SWIDTH 393 0
DWIDTH 8 0
BBX 11 15 0 0
BITMAP
01FE40
0BFFC0
1F47E0
1E02E0
040040
000000
02F800
0FFE00
2F6E00
3D2D00
7DB800
7F9074
3E46F4
2FFFD0
06F900
ENDCHAR
STARTCHAR uni0208
ENCODING 520
SWIDTH 495 0
DWIDTH 10 0
BBX 12 23 -1 0
BITMAP
005040
00F2E0
00F5F0
0078B4
002834
000000
000000
02FFFE
03FFFE
001F80
001F80
001F40
002F40
002F00
003F00
003E00
007E00
007D00
00BD00
00BC00
00FC00
2FFFE0
7FFFE0
ENDCHAR
STARTCHAR uni0209
ENCODING 521
SWIDTH 246 0
DWIDTH 5 0
BBX 10 16 -2 0
BITMAP
787400
7DB800
3D7C00
1E2D00
0B0E00
034600
000000
00F000
01F000
02F000
02E000
03E000
03D1D0
03E7D0
02FF40
00B900
ENDCHAR
STARTCHAR uni020A
ENCODING 522
SWIDTH 495 0
DWIDTH 10 0
BBX 13 22 -1 0
BITMAP
001BF800
007FFF00
00F81F40
00500500
00000000
00000000
02FFFE00
03FFFE00
001F8000
001F8000
001F4000
002F4000
002F0000
003F0000
003E0000
007E0000
007D0000
00BD0000
00BC0000
00FC0000
2FFFE000
7FFFE000
ENDCHAR
STARTCHAR uni020B
ENCODING 523
SWIDTH 246 0
DWIDTH 5 0
BBX 9 15 -1 0
BITMAP
07F900
2FFF00
7D1F80
780B80
100100
000000
03C000
07C000
0BC000
0B8000
0F8000
0F4740
0F9F40
0BFD00
02E400
ENDCHAR
STARTCHAR uni020C
ENCODING 524
SWIDTH 816 0
DWIDTH 16 0
BBX 15 23 1 0
BITMAP
00141000
007CB800
003D7C00
001E2D00
000A1D00
00000000
00000000
001BF900
01BFFF80
07F91BE0
0FD002F4
2F4001F8
3F0000FC
7E0000FC
BD0000FC
BD0000F8
BD0001F8
BD0002F4
7E0007E0
3F000FD0
2FD17F40
0BFFFD00
01BF9000
ENDCHAR
STARTCHAR uni020D
ENCODING 525
SWIDTH 451 0
DWIDTH 9 0
BBX 12 16 0 0
BITMAP
78B400
7CF800
3D7C00
1E2D00
0F1E00
070A00
000000
02F800
1FFF00
2F7F40
3D2FFE
7D0FFD
7D0F40
3E2F00
2FFD00
07E400
ENDCHAR
STARTCHAR uni020E
ENCODING 526
SWIDTH 816 0
DWIDTH 16 0
BBX 15 22 1 0
BITMAP
0006FE00
001FFFC0
003E07D0
00140140
00000000
00000000
001BF900
01BFFF80
07F91BE0
0FD002F4
2F4001F8
3F0000FC
7E0000FC
BD0000FC
BD0000F8
BD0001F8
BD0002F4
7E0007E0
3F000FD0
2FD17F40
0BFFFD00
01BF9000
ENDCHAR
STARTCHAR uni020F
ENCODING 527
SWIDTH 451 0
DWIDTH 9 0
BBX 12 15 0 0
BITMAP
02FE00
0BFFC0
1F47D0
2E02E0
040040
000000
02F800
1FFF00
2F7F40
3D2FFE
7D0FFD
7D0F40
3E2F00
2FFD00
07E400
ENDCHAR
STARTCHAR uni0210
ENCODING 528
SWIDTH 880 0
DWIDTH 18 0
BBX 19 23 1 0
BITMAP
0004140000
002E3D0000
001F2E0000
000B5F0000
00074B0000
0000000000
0000000000
001AFE4000
00BFFFF000
07F917F800
0F8140FC00
2F0BC0FC00
3D0F80FC00
7C1F82F400
B81F5BE000
B4FFFE4000
F4BFFD0000
F43E7F4000
B43E1FC000
B87D0BE01C
7DBD07F47C
2FFC01FFF0
06F4007F80
ENDCHAR
STARTCHAR uni0211
ENCODING 529
SWIDTH 455 0
DWIDTH 9 0
BBX 11 16 1 0
BITMAP
B4E000
F9F400
7CF800
3D7C00
1E2D00
0A0D00
000000
2C2F00
7CBF40
BAFF00
BB9F28
FF1FF8
FD0FE0
FC0000
F80000
740000
ENDCHAR
STARTCHAR uni0212
ENCODING 530
SWIDTH 880 0
DWIDTH 18 0
BBX 19 22 1 0
BITMAP
0002FF4000
000FFFD000
001F42E000
0004005000
0000000000
0000000000
001AFE4000
00BFFFF000
07F917F800
0F8140FC00
2F0BC0FC00
3D0F80FC00
7C1F82F400
B81F5BE000
B4FFFE4000
F4BFFD0000
F43E7F4000
B43E1FC000
B87D0BE01C
7DBD07F47C
2FFC01FFF0
06F4007F80
ENDCHAR
STARTCHAR uni0213
ENCODING 531
SWIDTH 455 0
DWIDTH 9 0
BBX 11 15 1 0
BITMAP
06FD00
1FFF80
2E0BC0
3C03D0
140140
000000
2C2F00
7CBF40
BAFF00
BB9F28
FF1FF8
FD0FE0
FC0000
F80000
740000
ENDCHAR
STARTCHAR uni0214
ENCODING 532
SWIDTH 890 0
DWIDTH 18 0
BBX 21 23 0 0
BITMAP
000141000000
0007CB800000
0003D7C00000
0001E2D00000
0000A0D00000
000000000000
000000000000
06F8000B4000
1FFE000F8000
7D7F001F8000
F03F001F4000
403E002F4000
007E003F0000
00BD003F0000
00BC007E0000
00FC00BE0000
01F801FD0000
01F402FD0000
02F407BD0100
02F41EBD0740
02F9BCBE6F00
01FFF47FFD00
006F801BE000
ENDCHAR
STARTCHAR uni0215
ENCODING 533
SWIDTH 462 0
DWIDTH 9 0
BBX 11 16 1 0
BITMAP
B4E000
F9F400
7CB800
2D7C00
1E2D00
0A0D00
000000
2D1E00
7C2E00
BC3D00
B87D00
F4BC04
F5F828
FFFDB8
BF7FE0
7D2E40
ENDCHAR
STARTCHAR uni0216
ENCODING 534
SWIDTH 890 0
DWIDTH 18 0
BBX 21 22 0 0
BITMAP
00006FE00000
0001FFFC0000
0003E07D0000
000140140000
000000000000
000000000000
06F8000B4000
1FFE000F8000
7D7F001F8000
F03F001F4000
403E002F4000
007E003F0000
00BD003F0000
00BC007E0000
00FC00BE0000
01F801FD0000
01F402FD0000
02F407BD0100
02F41EBD0740
02F9BCBE6F00
01FFF47FFD00
006F801BE000
ENDCHAR
STARTCHAR uni0217
ENCODING 535
SWIDTH 462 0
DWIDTH 9 0
BBX 11 15 1 0
BITMAP
02FE00
0FFF80
2E0BC0
3D03D0
140140
000000
2D1E00
7C2E00
BC3D00
B87D00
F4BC04
F5F828
FFFDB8
BF7FE0
7D2E40
ENDCHAR
STARTCHAR uni0218
ENCODING 536
SWIDTH 693 0
DWIDTH 14 0
BBX 14 21 0 -5
BITMAP
002BF900
01FFFFC0
07F51BE0
0BC002E0
0FC002E0
0BD002D0
07F90000
01FF9000
002FFD00
0001BF40
2D001FC0
7D000BC0
7D000FC0
3F506F80
1FFFFE00
02BFE400
00000000
002D0000
003D0000
003C0000
00280000
ENDCHAR
STARTCHAR uni0219
ENCODING 537
SWIDTH 427 0
DWIDTH 9 0
BBX 11 15 0 -6
BITMAP
00B000
02E000
03E000
0BF400
1EBD04
3C3E2C
F6BFF8
D7FFF0
02FF80
000000
01D000
02E000
02D000
03C000
028000
ENDCHAR
STARTCHAR uni021A
ENCODING 538
SWIDTH 697 0
DWIDTH 14 0
BBX 18 21 0 -5
BITMAP
006BFFFFE0
0BFFFFFFF0
2F94FC0140
7D00F80000
7C01F80000
3D01F40000
1802F40000
0003F00000
0003E00000
0007E00000
0007D00000
000BD00000
000BD00000
000FC00000
000FC00000
000B800000
0000000000
000B000000
000F400000
000F000000
000D000000
ENDCHAR
STARTCHAR uni021B
ENCODING 539
SWIDTH 393 0
DWIDTH 8 0
BBX 11 23 0 -6
BITMAP
002E00
00BF80
01F780
02D780
03C740
07CB00
0B9D00
0FB800
BFFFC0
FFFF80
1F4000
1F4000
1F4000
0F4074
0BD1F4
07FFD0
01BE00
000000
01E000
02E000
02E000
02D000
028000
ENDCHAR
STARTCHAR uni022A
ENCODING 554
SWIDTH 816 0
DWIDTH 16 0
BBX 15 24 1 0
BITMAP
000BFF40
000BFF40
00000000
001F4B40
002F5F80
001F0F40
00000000
00000000
001BF900
01BFFF80
07F91BE0
0FD002F4
2F4001F8
3F0000FC
7E0000FC
BD0000FC
BD0000F8
BD0001F8
BD0002F4
7E0007E0
3F000FD0
2FD17F40
0BFFFD00
01BF9000
ENDCHAR
STARTCHAR uni022B
ENCODING 555
SWIDTH 451 0
DWIDTH 9 0
BBX 12 17 0 0
BITMAP
07FFC0
07FF80
000000
000000
0B8780
0F8FC0
0B4B80
000000
02F800
1FFF00
2F7F40
3D2FFE
7D0FFD
7D0F40
3E2F00
2FFD00
07E400
ENDCHAR
STARTCHAR uni022C
ENCODING 556
SWIDTH 816 0
DWIDTH 16 0
BBX 15 25 1 0
BITMAP
000BFF80
0007FF40
00000000
000B8040
002FF6D0
007DBFC0
00101F40
00000000
00000000
001BF900
01BFFF80
07F91BE0
0FD002F4
2F4001F8
3F0000FC
7E0000FC
BD0000FC
BD0000F8
BD0001F8
BD0002F4
7E0007E0
3F000FD0
2FD17F40
0BFFFD00
01BF9000
ENDCHAR
STARTCHAR uni022D
ENCODING 557
SWIDTH 451 0
DWIDTH 9 0
BBX 12 17 0 0
BITMAP
03FFC0
03FFC0
000000
079050
1FF5E0
2D7FD0
141B40
000000
02F800
1FFF00
2F7F40
3D2FFE
7D0FFD
7D0F40
3E2F00
2FFD00
07E400
ENDCHAR
STARTCHAR uni0230
ENCODING 560
SWIDTH 816 0
DWIDTH 16 0
BBX 15 24 1 0
BITMAP
000BFF40
000BFF40
00000000
0001F400
0002F800
0001F400
00000000
00000000
001BF900
01BFFF80
07F91BE0
0FD002F4
2F4001F8
3F0000FC
7E0000FC
BD0000FC
BD0000F8
BD0001F8
BD0002F4
7E0007E0
3F000FD0
2FD17F40
0BFFFD00
01BF9000
ENDCHAR
STARTCHAR uni0231
ENCODING 561
SWIDTH 451 0
DWIDTH 9 0
BBX 12 17 0 0
BITMAP
07FFC0
07FF80
000000
000000
00B800
01FC00
00B800
000000
02F800
1FFF00
2F7F40
3D2FFE
7D0FFD
7D0F40
3E2F00
2FFD00
07E400
ENDCHAR
STARTCHAR uni0232
ENCODING 562
SWIDTH 851 0
DWIDTH 17 0
BBX 19 26 0 -6
BITMAP
0000FFF400
0000FFF000
0000000000
0000000000
06F8000B40
1FFE000F80
7D7F001F80
F03F001F40
903E002F40
007E003F00
00BD007F00
00BC00BF00
00FC00FE00
00F802FE00
00F807BD00
00FD1E7D00
00BFFC7EBC
002FE5FFF8
00006FFD40
0002E4F800
000B41F400
002E02F000
003D03E000
003E1BC000
003FFF4000
000BF90000
ENDCHAR
STARTCHAR uni0233
ENCODING 563
SWIDTH 479 0
DWIDTH 10 0
BBX 12 21 0 -9
BITMAP
03FFC0
03FFC0
000000
0B4780
1F0B80
2F0F40
2E1F40
3D2F00
3D7F1E
3FFFBD
2FEFE4
1F6F40
00BD00
02FC00
0BBC00
2DB800
78F400
F1F000
F7D000
FF8000
7E0000
ENDCHAR
STARTCHAR uni0237
ENCODING 567
SWIDTH 254 0
DWIDTH 5 0
BBX 13 18 -5 -9
BITMAP
0003C000
0007C000
000BC000
000BC000
000B8000
000F8B40
000FBE00
000FF800
001FD000
003F0000
01FE0000
07BD0000
1E3C0000
3C780000
78B40000
B9F00000
7FD00000
2F400000
ENDCHAR
STARTCHAR uni0259
ENCODING 601
SWIDTH 458 0
DWIDTH 9 0
BBX 9 9 0 0
BITMAP
1BF800
2FFF00
141F40
000F80
2FFF80
7FFF80
3D1F40
2FFE00
0BF400
ENDCHAR
STARTCHAR uni02BC
ENCODING 700
SWIDTH 600 0
DWIDTH 12 0
BBX 3 5 5 10
BITMAP
78
B8
B8
B4
A0
ENDCHAR
STARTCHAR circumflex
ENCODING 710
SWIDTH 600 0
DWIDTH 12 0
BBX 8 7 2 10
BITMAP
0050
02F4
07F8
0F7C
2E3C
3D3D
782D
ENDCHAR
STARTCHAR caron
ENCODING 711
SWIDTH 600 0
DWIDTH 12 0
BBX 8 7 3 10
BITMAP
1014
783D
7CB8
3CF0
2EE0
2FC0
0F40
ENDCHAR
STARTCHAR uni02C9
ENCODING 713
SWIDTH 600 0
DWIDTH 12 0
BBX 7 2 3 10
BITMAP
FFF4
FFF0
ENDCHAR
STARTCHAR breve
ENCODING 728
SWIDTH 600 0
DWIDTH 12 0
BBX 9 5 2 10
BITMAP
500100
B40B40
BD2F00
3FFE00
0BE400
ENDCHAR
STARTCHAR dotaccent
ENCODING 729
SWIDTH 600 0
DWIDTH 12 0
BBX 4 3 4 10
BITMAP
2E
BF
7D
ENDCHAR
STARTCHAR ring
ENCODING 730
SWIDTH 600 0
DWIDTH 12 0
BBX 6 6 3 10
BITMAP
1F80
3FE0
78F0
79F0
3FE0
1F80
ENDCHAR
STARTCHAR ogonek
ENCODING 731
SWIDTH 600 0
DWIDTH 12 0
BBX 6 6 2 -5
BITMAP
0A00
2D00
3800
7D00
3FF0
1BD0
ENDCHAR
STARTCHAR tilde
ENCODING 732
SWIDTH 600 0
DWIDTH 12 0
BBX 9 4 2 10
BITMAP
2E0100
7FDB80
F6FF00
507D00
ENDCHAR
STARTCHAR hungarumlaut
ENCODING 733
SWIDTH 600 0
DWIDTH 12 0
BBX 8 6 3 10
BITMAP
0B1E
1F6F
2E3D
3D78
78B4
70A0
ENDCHAR
STARTCHAR gravecomb
ENCODING 768
SWIDTH 0 0
DWIDTH 0 0
BBX 5 6 -10 10
BITMAP
7800
BC00
3E00
1F00
0780
0280
ENDCHAR
STARTCHAR acutecomb
ENCODING 769
SWIDTH 0 0
DWIDTH 0 0
BBX 5 6 -7 10
BITMAP
0740
0F80
1F40
3D00
7800
6000
ENDCHAR
STARTCHAR uni0302
ENCODING 770
SWIDTH 0 0
DWIDTH 0 0
BBX 8 7 -10 10
BITMAP
0050
02F4
07F8
0F7C
2E3C
3D3D
782D
ENDCHAR
STARTCHAR tildecomb
ENCODING 771
SWIDTH 0 0
DWIDTH 0 0
BBX 9 4 -10 10
BITMAP
2E0100
7FDB80
F6FF00
507D00
ENDCHAR
STARTCHAR uni0304
ENCODING 772
SWIDTH 0 0
DWIDTH 0 0
BBX 7 2 -9 10
BITMAP
FFF4
FFF0
ENDCHAR
STARTCHAR uni0306
ENCODING 774
SWIDTH 0 0
DWIDTH 0 0
BBX 9 5 -10 10
BITMAP
500100
B40B40
BD2F00
3FFE00
0BE400
ENDCHAR
STARTCHAR uni0307
ENCODING 775
SWIDTH 0 0
DWIDTH 0 0
BBX 4 3 -8 10
BITMAP
2E
BF
7D
ENDCHAR
STARTCHAR uni0308
ENCODING 776
SWIDTH 0 0
DWIDTH 0 0
BBX 8 3 -10 10
BITMAP
2D2D
7E3E
3D2D
ENDCHAR
STARTCHAR hookabovecomb
ENCODING 777
SWIDTH 0 0
DWIDTH 0 0
BBX 5 6 -8 10
BITMAP
7F40
BF80
03C0
07C0
3F80
2E00
ENDCHAR
STARTCHAR uni030A
ENCODING 778
SWIDTH 0 0
DWIDTH 0 0
BBX 6 6 -9 10
BITMAP
1F80
3FE0
78F0
79F0
3FE0
1F80
ENDCHAR
STARTCHAR uni030B
ENCODING 779
SWIDTH 0 0
DWIDTH 0 0
BBX 8 6 -9 10
BITMAP
0B1E
1F6F
2E3D
3D78
78B4
70A0
ENDCHAR
STARTCHAR uni030C
ENCODING 780
SWIDTH 0 0
DWIDTH 0 0
BBX 8 7 -9 10
BITMAP
1014
783D
7CB8
3CF0
2EE0
2FC0
0F40
ENDCHAR
STARTCHAR uni030F
ENCODING 783
SWIDTH 0 0
DWIDTH 0 0
BBX 8 6 -11 10
BITMAP
74B0
BCF4
7DB8
2D3C
0E1D
0609
ENDCHAR
STARTCHAR uni0311
ENCODING 785
SWIDTH 0 0
DWIDTH 0 0
BBX 9 5 -10 10
BITMAP
0BF800
3FFE00
BD2F40
B40B40
500100
ENDCHAR
STARTCHAR uni0312
ENCODING 786
SWIDTH 0 0
DWIDTH 0 0
BBX 3 5 -7 10
BITMAP
78
B8
B8
B4
A0
ENDCHAR
STARTCHAR uni031B
ENCODING 795
SWIDTH 0 0
DWIDTH 0 0
BBX 5 5 -7 7
BITMAP
0100
0B40
1F00
7E00
7400
ENDCHAR
STARTCHAR dotbelowcomb
ENCODING 803
SWIDTH 0 0
DWIDTH 0 0
BBX 4 3 -10 -4
BITMAP
2E
7F
3E
ENDCHAR
STARTCHAR uni0324
ENCODING 804
SWIDTH 0 0
DWIDTH 0 0
BBX 7 3 -11 -4
BITMAP
B4B8
F8FC
B4B4
ENDCHAR
STARTCHAR uni0326
ENCODING 806
SWIDTH 0 0
DWIDTH 0 0
BBX 3 5 -9 -6
BITMAP
74
B8
B4
B0
A0
ENDCHAR
STARTCHAR uni0327
ENCODING 807
SWIDTH 0 0
DWIDTH 0 0
BBX 6 6 -11 -5
BITMAP
1F80
2FE0
01F0
01E0
BFD0
BE40
ENDCHAR
STARTCHAR uni0328
ENCODING 808
SWIDTH 0 0
DWIDTH 0 0
BBX 6 6 -10 -5
BITMAP
0A00
2D00
3800
7D00
3FF0
1BD0
ENDCHAR
STARTCHAR uni032E
ENCODING 814
SWIDTH 0 0
DWIDTH 0 0
BBX 9 5 -12 -6
BITMAP
500100
B40B40
BD2F00
7FFD00
1BE400
ENDCHAR
STARTCHAR uni0331
ENCODING 817
SWIDTH 0 0
DWIDTH 0 0
BBX 7 2 -11 -3
BITMAP
BFF8
BFF4
ENDCHAR
STARTCHAR uni0394
ENCODING 916
SWIDTH 700 0
DWIDTH 14 0
BBX 13 17 0 0
BITMAP
0001D000
0003E000
000BF000
000FF000
001FB400
003DB400
007C7800
00B87C00
00F43C00
02E03D00
03D02D00
07C02E00
0F801F00
1F001F00
2E555F40
7FFFFF40
7FFFFF40
ENDCHAR
STARTCHAR uni03A9
ENCODING 937
SWIDTH 816 0
DWIDTH 16 0
BBX 17 17 -1 0
BITMAP
0001BF9000
000BFFF800
003FE6FE00
00BE007F40
01F8001F80
03F0001F80
07E0000FC0
07D0000FC0
0BD0000F80
0BD0001F80
0BD0001F40
0BD0003F00
07E0007E00
03F001FC00
16FC07F900
7FFE0FFFC0
7FFD0FFF80
ENDCHAR
STARTCHAR uni03BC
ENCODING 956
SWIDTH 462 0
DWIDTH 9 0
BBX 12 15 0 -5
BITMAP
0B4780
1F0B80
2F0F40
2E1F40
3E2F00
3D3F06
3DBE1E
7FFF7D
7FDFF4
7F4B90
7C0000
7C0000
7C0000
7C0000
780000
ENDCHAR
STARTCHAR pi
ENCODING 960
SWIDTH 496 0
DWIDTH 10 0
BBX 13 10 0 0
BITMAP
7FFFFC00
7FFFF800
1F47C000
2F0BC000
2E0F8000
3E0F4100
3D0F4740
7D0F9F00
7D0BFD00
7C02E400
ENDCHAR
STARTCHAR uni0400
ENCODING 1024
SWIDTH 686 0
DWIDTH 14 0
BBX 16 23 0 0
BITMAP
00500000
00FC0000
00BF4000
001BD000
0001A000
00000000
00000000
001BFE40
00BFFFE0
03F947F0
07E001F4
07E002F0
03F40050
00BFD000
02FFD000
1FE40000
3F400000
7E000000
7E000000
7F000006
2FD405BF
0BFFFFFD
01AFFE90
ENDCHAR
STARTCHAR uni0401
ENCODING 1025
SWIDTH 686 0
DWIDTH 14 0
BBX 16 21 0 0
BITMAP
000787C0
000FCBD0
000B8780
00000000
00000000
001BFE40
00BFFFE0
03F947F0
07E001F4
07E002F0
03F40050
00BFD000
02FFD000
1FE40000
3F400000
7E000000
7E000000
7F000006
2FD405BF
0BFFFFFD
01AFFE90
ENDCHAR
STARTCHAR uni0402
ENCODING 1026
SWIDTH 974 0
DWIDTH 19 0
BBX 22 25 0 -9
BITMAP
006BFFFFE000
0BFFFFFFF000
2F90FC000000
3D00F8000000
7C01F8000000
3D02F4000000
1902F4000000
0003F0BF8000
0003F7FFE000
0007FE47F000
0007F402F400
000BE002F090
000BD002F7E0
000FC003FFD0
000FC003FE00
000B8007F400
0000002FD000
000000BFC000
000002FF8000
00000BDF8000
00001F5F0000
00002E2E0000
00002E7D0000
00002FF80000
00000BD00000
ENDCHAR
STARTCHAR uni0403
ENCODING 1027
SWIDTH 635 0
DWIDTH 13 0
BBX 17 23 0 0
BITMAP
0000014000
000007E000
00002FD000
0000BE0000
0001E00000
0000000000
0000000000
01AFFFFFC0
0BFFFFFF80
2F9BD00000
7D0FC00000
7C0F800000
3D1F800000
181F400000
002F400000
003F000000
003F000000
007E000000
007E000000
00BD000000
00BD000000
00BC000000
00B8000000
ENDCHAR
STARTCHAR uni0404
ENCODING 1028
SWIDTH 687 0
DWIDTH 14 0
BBX 16 16 1 0
BITMAP
001BF900
00FFFF40
07F91FC0
0FD00BC0
2F400BC0
3F000640
7E000000
BFFFE000
BFFFE000
BD000000
BD000000
7E000000
3F400004
1FE405BD
07FFFFF8
006FFA40
ENDCHAR
STARTCHAR uni0405
ENCODING 1029
SWIDTH 693 0
DWIDTH 14 0
BBX 14 16 0 0
BITMAP
002BF900
01FFFFC0
07F51BE0
0BC002E0
0FC002E0
0BD002D0
07F90000
01FF9000
002FFD00
0001BF40
2D001FC0
7D000BC0
7D000FC0
3F506F80
1FFFFE00
02BFE400
ENDCHAR
STARTCHAR uni0406
ENCODING 1030
SWIDTH 495 0
DWIDTH 10 0
BBX 12 16 -1 0
BITMAP
02FFFE
03FFFE
001F80
001F80
001F40
002F40
002F00
003F00
003E00
007E00
007D00
00BD00
00BC00
00FC00
2FFFE0
7FFFE0
ENDCHAR
STARTCHAR uni0407
ENCODING 1031
SWIDTH 495 0
DWIDTH 10 0
BBX 12 21 -1 0
BITMAP
003D2D
007E7E
007D3D
000000
000000
02FFFE
03FFFE
001F80
001F80
001F40
002F40
002F00
003F00
003E00
007E00
007D00
00BD00
00BC00
00FC00
2FFFE0
7FFFE0
ENDCHAR
STARTCHAR uni0408
ENCODING 1032
SWIDTH 743 0
DWIDTH 15 0
BBX 15 18 1 -2
BITMAP
01AFFF90
1BFFFFF4
3F501BE0
7C000BC0
BC000FC0
7C000FC0
28000F80
00001F40
0002FF40
001FFF00
00BE2F00
02F43E00
07D07D00
0F80B800
0F81F400
0F87E000
0BFF8000
02FE0000
ENDCHAR
STARTCHAR uni0409
ENCODING 1033
SWIDTH 1158 0
DWIDTH 23 0
BBX 23 16 0 0
BITMAP
000002F00000
000007F40000
00000BF40000
00000FF00000
00001FF00000
00002FF00000
00003EF6FF80
00007EFFFFF0
0000BAF906F8
0001F6F001FC
0002F2F000FC
1007D2F401F8
B40F81F802F4
BC6F40FD1BE0
7FFD007FFF80
1BE4001BF900
ENDCHAR
STARTCHAR uni040A
ENCODING 1034
SWIDTH 1182 0
DWIDTH 24 0
BBX 25 16 -1 0
BITMAP
01BE000B800000
0BFF400F800000
2E5F801F800000
780F801F400000
200F802F000000
000F803E000000
000F803EBFE400
001F41BFFFFE00
02FFFFFE407F40
03FFFEBC002F40
003F00BC002F40
007E00BC002F40
007D00BD007E00
00BC007F46FD00
00F8002FFFF400
00B40006FE4000
ENDCHAR
STARTCHAR uni040B
ENCODING 1035
SWIDTH 979 0
DWIDTH 20 0
BBX 22 16 0 0
BITMAP
006BFFFFE000
0BFFFFFFF000
2F90FC000000
3D00F8000000
7C01F8000000
3D02F4000000
1902F4000000
0003F0BF8000
0003F7FFE000
0007FE47F000
0007F402F400
000BE002F000
000BD003F070
000FC003F1F0
000FC003FFC0
000B8001FD00
ENDCHAR
STARTCHAR uni040C
ENCODING 1036
SWIDTH 937 0
DWIDTH 19 0
BBX 22 23 0 0
BITMAP
000000005000
00000002F400
0000000BE000
0000007F4000
000000B40000
000000000000
000000000000
00AFF9007C00
07FFFE00BC00
1F90FD01F800
2F00F802F400
2E01F807E000
1F01F41F8000
0502F5BE0000
000FFFE40000
000FFF900000
0003E7F40000
0007E1F80000
2007D0FD0040
780BC07E01D0
7D1F803F9BC0
2FFF001FFF00
07F80006F800
ENDCHAR
STARTCHAR uni040D
ENCODING 1037
SWIDTH 890 0
DWIDTH 18 0
BBX 21 23 0 0
BITMAP
000400000000
002F40000000
001FD0000000
0002F8000000
00002C000000
000000000000
000000000000
06F8000B4000
1FFE000F8000
7D7F001F8000
F03F001F4000
403E002F4000
007E003F0000
00BD003F0000
00BC007E0000
00FC00BE0000
01F801FD0000
01F402FD0000
02F407BD0100
02F41EBD0740
02F9BCBE6F00
01FFF47FFD00
006F801BE000
ENDCHAR
STARTCHAR uni040E
ENCODING 1038
SWIDTH 824 0
DWIDTH 16 0
BBX 19 29 0 -5
BITMAP
0000001400
0001403800
0002E0B800
0002FFF000
0000BF8000
0000000000
0000000000
0000000000
06F8000B40
2FFE001F80
7D7E001F40
103E002F40
007E003F00
00BD00BF00
00BC00FE00
00FC03FE00
00FD1F7D00
007FFD7D00
001FE47DA8
000000BFFC
00001BFF94
0000BFF800
0007F4F400
001F41F400
003E02F000
007D03D000
007E1F8000
003FFF0000
000BF80000
ENDCHAR
STARTCHAR uni040F
ENCODING 1039
SWIDTH 890 0
DWIDTH 18 0
BBX 21 20 0 -4
BITMAP
06F8000B4000
1FFE000F8000
7D3F001F8000
F03F001F4000
403E002F4000
007E003F0000
00BD003F0000
00BC007E0000
00FC00BE0000
01F801FD0000
01F402FD0000
02F407BD0100
02F41EBD0740
02F9BCBE6F00
01FFF47FFD00
007F801BE000
002F00000000
003E00000000
003E00000000
001400000000
ENDCHAR
STARTCHAR uni0410
ENCODING 1040
SWIDTH 786 0
DWIDTH 16 0
BBX 18 16 1 0
BITMAP
0001BFE900
002FFFFE00
01FF956900
07F4029000
0FD007E000
2F8007D000
3F000BC000
7E000FC000
BD001F8000
BC002F4000
FC003F4000
BD007F4000
BE00FF41D0
7F97EF9BC0
1FFF4FFF40
06F906F800
ENDCHAR
STARTCHAR uni0411
ENCODING 1041
SWIDTH 917 0
DWIDTH 18 0
BBX 18 17 0 -1
BITMAP
006BFFFFC0
0BFFFFFF80
2F43F00000
3D07E00000
7C07E00000
3D0BD00000
2D0BC00000
000FEFF900
007FFFFFC0
00FF901FE0
006F4007F0
002F4003F0
002F0007E0
003F000BD0
003F007F80
003E1BFE00
002D1FA000
ENDCHAR
STARTCHAR uni0412
ENCODING 1042
SWIDTH 827 0
DWIDTH 17 0
BBX 18 17 0 -1
BITMAP
005AFFE400
0BFFFFFF40
7FE5416FC0
7900000BD0
00BC000BD0
00FC001FC0
01F801BF40
01F47FF900
02F0BFD000
03F006F800
03E000FC00
07E000FC00
07D001FC00
0BD05BF400
0BFFFFD000
0BFFE90000
0B80000000
ENDCHAR
STARTCHAR uni0413
ENCODING 1043
SWIDTH 635 0
DWIDTH 13 0
BBX 17 16 0 0
BITMAP
01AFFFFFC0
0BFFFFFF80
2F9BD00000
7D0FC00000
7C0F800000
3D1F800000
181F400000
002F400000
003F000000
003F000000
007E000000
007E000000
00BD000000
00BD000000
00BC000000
00B8000000
ENDCHAR
STARTCHAR uni0414
ENCODING 1044
SWIDTH 964 0
DWIDTH 19 0
BBX 19 16 0 0
BITMAP
0006BFE400
00BFFFFF40
02FA406FD0
01900007F0
0002E002F4
0007D001F8
000BC001F8
000F8000F8
001F4001F8
002F0001F8
002F0002F4
1FFE0003F0
7FFE000BD0
B8BFE46F80
BFF5FFFE00
2F902BE400
ENDCHAR
STARTCHAR uni0415
ENCODING 1045
SWIDTH 686 0
DWIDTH 14 0
BBX 16 16 0 0
BITMAP
001BFE40
00BFFFE0
03F947F0
07E001F4
07E002F0
03F40050
00BFD000
02FFD000
1FE40000
3F400000
7E000000
7E000000
7F000006
2FD405BF
0BFFFFFD
01AFFE90
ENDCHAR
STARTCHAR uni0416
ENCODING 1046
SWIDTH 1234 0
DWIDTH 25 0
BBX 27 16 0 0
BITMAP
00BF401F002F90
02FFD02F40BFF0
0387F02F01F5F0
0001F43F03E000
0000F83E0BC000
0000BC3E1F8000
00007E7EBE0000
00001FFFF40000
00006FFFE00000
0001FDFDFC0000
0007E0F87E0000
000FC1F83F0000
141F41F41F8024
7D7E01F40FE1B4
7FFC02F007FFD0
1BE001E001BE40
ENDCHAR
STARTCHAR uni0417
ENCODING 1047
SWIDTH 725 0
DWIDTH 15 0
BBX 13 16 1 0
BITMAP
006FE400
07FFFE00
0FD07F00
1F402F00
1F402F00
0A003D00
0001F800
006FF800
00BE7F40
00001F80
78000F80
BC001F80
BC003F40
BE41FE00
2FFFF800
06FE9000
ENDCHAR
STARTCHAR uni0418
ENCODING 1048
SWIDTH 890 0
DWIDTH 18 0
BBX 21 16 0 0
BITMAP
06F8000B4000
1FFE000F8000
7D7F001F8000
F03F001F4000
403E002F4000
007E003F0000
00BD003F0000
00BC007E0000
00FC00BE0000
01F801FD0000
01F402FD0000
02F407BD0100
02F41EBD0740
02F9BCBE6F00
01FFF47FFD00
006F801BE000
ENDCHAR
STARTCHAR uni0419
ENCODING 1049
SWIDTH 890 0
DWIDTH 18 0
BBX 21 24 0 0
BITMAP
000000140000
0000402C0000
0002F0B80000
0001FFF40000
00006F800000
000000000000
000000000000
000000000000
06F8000B4000
1FFE000F8000
7D7F001F8000
F03F001F4000
403E002F4000
007E003F0000
00BD003F0000
00BC007E0000
00FC00BE0000
01F801FD0000
01F402FD0000
02F407BD0100
02F41EBD0740
02F9BCBE6F00
01FFF47FFD00
006F801BE000
ENDCHAR
STARTCHAR uni041A
ENCODING 1050
SWIDTH 937 0
DWIDTH 19 0
BBX 22 16 0 0
BITMAP
00AFF9007C00
07FFFE00BC00
1F90FD01F800
2F00F802F400
2E01F807E000
1F01F41F8000
0502F5BE0000
000FFFE40000
000FFF900000
0003E7F40000
0007E1F80000
2007D0FD0040
780BC07E01D0
7D1F803F9BC0
2FFF001FFF00
07F80006F800
ENDCHAR
STARTCHAR uni041B
ENCODING 1051
SWIDTH 861 0
DWIDTH 17 0
BBX 20 16 0 0
BITMAP
000002F000
000007F400
00000BF400
00000FF000
00001FF000
00002FF000
00003FF000
00007EF000
0000BAF000
0001F6F000
0002F2F000
1007D1F401
B40FC1F80A
BD7F40FD7D
7FFD007FF8
1BE4001F90
ENDCHAR
STARTCHAR uni041C
ENCODING 1052
SWIDTH 1133 0
DWIDTH 23 0
BBX 26 16 0 0
BITMAP
00002E002E0000
00007F407F4000
0000BF40FF0000
0000FF01FF0000
0000FF02FF0000
0001FF07EF0000
0002EF4BAE0000
0002EF4F6E0000
0003DF5F3E0000
0007CF6E3E0000
000B8FBD3E0000
100F4BFC2F0040
B42F0BF82F01D0
BD7E07F41F9BC0
7FF803E00FFF00
1BE002D002F800
ENDCHAR
STARTCHAR uni041D
ENCODING 1053
SWIDTH 873 0
DWIDTH 17 0
BBX 21 17 -1 0
BITMAP
00000000BD00
01BE0002FE00
0BFF400BDB00
2E5F800F4B00
780F801F0F00
200F802E1E00
000F803E2C00
000F807EF400
001F40BF8000
03FFFFFD0000
03FFFAFC0000
003E00BC0000
007E00BC0000
007D00BD01C0
00BC007E5B80
00F8002FFF00
00B4000BF400
ENDCHAR
STARTCHAR uni041E
ENCODING 1054
SWIDTH 816 0
DWIDTH 16 0
BBX 15 16 1 0
BITMAP
001BF900
01BFFF80
07F91BE0
0FD002F4
2F4001F8
3F0000FC
7E0000FC
BD0000FC
BD0000F8
BD0001F8
BD0002F4
7E0007E0
3F000FD0
2FD17F40
0BFFFD00
01BF9000
ENDCHAR
STARTCHAR uni041F
ENCODING 1055
SWIDTH 892 0
DWIDTH 18 0
BBX 21 16 0 0
BITMAP
006AFFFFA900
0BFFFFFFFF40
2F9BD00FD600
3D0BD00F8000
7C0FC01F8000
3D0F801F4000
181F802F4000
001F403F0000
002F403E0000
002F007E0000
003F007D0000
003E00BC0000
007E00BC0340
007D00BE1F40
00BD003FFD00
0078001BE400
ENDCHAR
STARTCHAR uni0420
ENCODING 1056
SWIDTH 805 0
DWIDTH 16 0
BBX 16 19 1 -3
BITMAP
0006FE40
007FFFF0
02F917F8
0BD000FD
1F47C0BD
2E0BC0BD
7C0FC0BD
B80F81F8
B81F4BF0
F5FFFF80
F5FFF900
F43F0000
F43E0000
F47E0000
B87D0000
7DBD0000
3FFC0000
0FF40000
01500000
ENDCHAR
STARTCHAR uni0421
ENCODING 1057
SWIDTH 686 0
DWIDTH 14 0
BBX 16 16 1 0
BITMAP
001BF900
00FFFF40
07F91F80
0FD00BC0
2F400BC0
3F000B80
7E000100
BD000000
BD000000
BD000000
BD000000
7E000000
3F400014
1FE406BD
07FFFFF8
006FFA40
ENDCHAR
STARTCHAR uni0422
ENCODING 1058
SWIDTH 697 0
DWIDTH 14 0
BBX 18 16 0 0
BITMAP
006BFFFFE0
0BFFFFFFF0
2F94FC0140
7D00F80000
7C01F80000
3D01F40000
1802F40000
0003F00000
0003E00000
0007E00000
0007D00000
000BD00000
000BD00000
000FC00000
000FC00000
000B800000
ENDCHAR
STARTCHAR uni0423
ENCODING 1059
SWIDTH 824 0
DWIDTH 16 0
BBX 19 21 0 -5
BITMAP
06F8000B40
2FFE001F80
7D7E001F40
103E002F40
007E003F00
00BD00BF00
00BC00FE00
00FC03FE00
00FD1F7D00
007FFD7D00
001FE47DA8
000000BFFC
00001BFF94
0000BFF800
0007F4F400
001F41F400
003E02F000
007D03D000
007E1F8000
003FFF0000
000BF80000
ENDCHAR
STARTCHAR uni0424
ENCODING 1060
SWIDTH 977 0
DWIDTH 20 0
BBX 18 24 1 -5
BITMAP
0100000000
0B90000000
0BFFFF8000
01BFFF8000
00002E0000
01BE7D2F80
07FFFDFFE0
1FD2FFD3F0
2F00BF42F0
7E00BD02F0
7D00F802F0
BC00F403F0
BC01F403E0
FC07F007E0
BC0FF00BC0
BD7FF92F80
7FF7FFFE00
1F93EBE400
0007D00000
0407C00000
2E0B800000
2F5F400000
0FFE000000
06F4000000
ENDCHAR
STARTCHAR uni0425
ENCODING 1061
SWIDTH 712 0
DWIDTH 14 0
BBX 17 16 0 0
BITMAP
07F8007D00
2FFE01FC00
B87F03F400
901F8FD000
000FEF4000
000BFD0000
0007F40000
000BE00000
001FF00000
007FF40000
01FDF80000
07F0FC0000
1FD0BD0280
7F407E5B80
FD002FFE00
F8000BE400
ENDCHAR
STARTCHAR uni0426
ENCODING 1062
SWIDTH 890 0
DWIDTH 18 0
BBX 21 22 0 -6
BITMAP
06F8000B4000
1FFE000F8000
7D3F001F8000
F03F001F4000
903E002F4000
007E003F0000
00BD003F0000
00BC007E0000
00FC00BE0000
01F800FD0000
01F402FD0000
02F403BD0000
02F00ABD0000
02F47DBF8B40
01FFF42FFE00
006F800BF400
0000007FC000
000003EB8000
00000F8F4000
00001F5F0000
00001FFE0000
000007F40000
ENDCHAR
STARTCHAR uni0427
ENCODING 1063
SWIDTH 773 0
DWIDTH 15 0
BBX 13 16 2 0
BITMAP
2E000B40
3F000F80
3F000F80
3F001F80
7E002F40
7D003F40
BD007F00
BC00FF00
BE07FF00
7FFFAE00
2FFD3E00
01503D00
00007D00
00007D00
0000BC00
00007800
ENDCHAR
STARTCHAR uni0428
ENCODING 1064
SWIDTH 1272 0
DWIDTH 25 0
BBX 28 16 0 0
BITMAP
06F8001F000F00
1FFE002F401F40
7D3F002F402F40
F03F003F002F00
403E003E003F00
007E007D007E00
00BD00BD007E00
00BC00FC00BD00
00FC01F800FD00
01F802F802FC00
01F403F403FC00
02F40BF40BB801
02F42DF41DFC0B
02F9B8F9B8FEBE
01FFF0BFF0BFF8
007F802F802FD0
ENDCHAR
STARTCHAR uni0429
ENCODING 1065
SWIDTH 1272 0
DWIDTH 25 0
BBX 28 22 0 -6
BITMAP
06F8001F000F00
1FFE002F401F40
7D3F002F402F40
F03F003F002F00
403E003E003F00
007E007D007E00
00BD00BD007E00
00BC00FC00BD00
00FC01F800FD00
01F802F802FC00
01F403F403FC00
02F40BF40BB800
02F42DF41DFC01
02F9B8F9B8FF9F
01FFF0FFF07FFD
007F806F801BD0
0000000000BF80
0000000007EF40
000000001F5F00
000000002F2E00
000000002FFC00
000000000BE400
ENDCHAR
STARTCHAR uni042A
ENCODING 1066
SWIDTH 863 0
DWIDTH 17 0
BBX 15 16 2 0
BITMAP
005B8000
BFFF8000
7FFE0000
007D0000
00BC0000
00FAFF80
02FFFFF4
1FF506F8
1FE000FC
03E000FC
03E000FC
03E001F8
02F002F4
01F81BE0
00BFFF40
001FE800
ENDCHAR
STARTCHAR uni042B
ENCODING 1067
SWIDTH 1078 0
DWIDTH 22 0
BBX 21 16 0 0
BITMAP
00B400000B80
01F800000FC0
01F400000F80
02F000001F80
03E000001F40
07EBFE402F40
07FFFFD02F00
7FE41BF03F00
7FC003F03E00
0BC002F47E00
0BC002F07D00
0BC003E0BD00
0BC00BD0BC00
07E46F80FC00
02FFFE00FC00
006FE400B400
ENDCHAR
STARTCHAR uni042C
ENCODING 1068
SWIDTH 721 0
DWIDTH 14 0
BBX 15 16 0 0
BITMAP
00B40000
01F80000
01F40000
02F00000
03E00000
07EBFE40
07FFFFD0
7FE41BF0
7FC003F0
0BC002F4
0BC002F0
0BC003E0
0BC00BD0
07E46F80
02FFFE00
006FE400
ENDCHAR
STARTCHAR uni042D
ENCODING 1069
SWIDTH 755 0
DWIDTH 15 0
BBX 14 16 1 0
BITMAP
01BFE400
0BFFFE00
2F907F40
38001FC0
00000BD0
000007E0
000007E0
02FFFFE0
02FFFFE0
00000BD0
50000BC0
F8001F80
F8003F00
FD01FD00
7FFFF400
1BFE4000
ENDCHAR
STARTCHAR uni042E
ENCODING 1070
SWIDTH 1246 0
DWIDTH 25 0
BBX 26 16 -1 0
BITMAP
01BE0007D3E400
0BFF401FE3FE00
2F5F803DE06F40
780F80BAD00FC0
100F80FBC00BD0
000F81FF4007D0
000F82FD0007E0
001F9BF40007E0
02FFFFE0000BD0
03FFA7E0000BD0
003E03F0000FC0
007E03F4002F40
00BD02F800BE00
00BC00FE57FC00
00F8007FFFE000
00B4000BFE4000
ENDCHAR
STARTCHAR uni042F
ENCODING 1071
SWIDTH 850 0
DWIDTH 17 0
BBX 20 16 0 0
BITMAP
0006FEAE00
002FFFFF00
00BE417E00
00FC007E00
01F800BD00
01F800FD00
01F801FC00
00FE42FC00
007FFFF800
000BFFF800
00002EF400
0000BCF400
B002F4F40E
B81FD0FD7D
7FFE00BFF4
1BE4002F90
ENDCHAR
STARTCHAR uni0430
ENCODING 1072
SWIDTH 470 0
DWIDTH 9 0
BBX 12 9 0 0
BITMAP
01B800
07FF80
1F9F80
2F0F40
3D1F40
7D2F0B
7D7F6E
3FFFF8
1B87E0
ENDCHAR
STARTCHAR uni0431
ENCODING 1073
SWIDTH 473 0
DWIDTH 9 0
BBX 12 18 0 0
BITMAP
000040
006BD0
02FF80
0BD400
0B8000
07E000
01F800
00BD00
002F00
02FF80
0FFFC0
2F5FC1
3E1FFF
3D0FFA
7D1F40
3E2F00
2FFD00
0BE400
ENDCHAR
STARTCHAR uni0432
ENCODING 1074
SWIDTH 473 0
DWIDTH 9 0
BBX 11 18 1 0
BITMAP
00B800
03FD00
0BAE00
0F1D00
2E2D00
3D3C00
3D7800
7CB000
BDD000
BFF800
BFBE00
FC7F04
F87FFC
F81FF8
B81E00
7D7D00
3FF800
0BE000
ENDCHAR
STARTCHAR uni0433
ENCODING 1075
SWIDTH 380 0
DWIDTH 8 0
BBX 10 9 0 0
BITMAP
1BF800
2FFD00
147D00
01B800
0BD000
2E0070
7D06F0
3FFF80
1BF900
ENDCHAR
STARTCHAR uni0434
ENCODING 1076
SWIDTH 479 0
DWIDTH 10 0
BBX 12 18 0 -9
BITMAP
01B800
07FF80
1F9F80
2F0F40
3D1F40
7D2F1E
7D7FBD
3FFFF4
1BAF80
00BD00
02FC00
0FBC00
2DB800
78F400
F1F000
F7D000
FF8000
7E0000
ENDCHAR
STARTCHAR uni0435
ENCODING 1077
SWIDTH 393 0
DWIDTH 8 0
BBX 11 9 0 0
BITMAP
02F800
0FFE00
2F6E00
3D2D00
7DB800
7F9074
3E46F4
2FFFD0
06F900
ENDCHAR
STARTCHAR uni0436
ENCODING 1078
SWIDTH 717 0
DWIDTH 14 0
BBX 17 9 0 0
BITMAP
0BD2D2F400
1FF7CFFC00
1E7BEE3C00
007FBD3800
147FFC0040
78BBFC02C0
B9F7EE1B80
7FD79FFE00
2F4746F400
ENDCHAR
STARTCHAR uni0437
ENCODING 1079
SWIDTH 435 0
DWIDTH 9 0
BBX 12 18 -1 -9
BITMAP
01BE00
07FF80
0647C0
000780
001F40
01FD0A
0BD07E
0BE2F8
01FF80
00BD00
02FD00
0BBD00
2D3D00
787C00
B4F800
B6F000
BFD000
6E4000
ENDCHAR
STARTCHAR uni0438
ENCODING 1080
SWIDTH 462 0
DWIDTH 9 0
BBX 11 9 1 0
BITMAP
2D1E00
7C2E00
BC3D00
B87D00
F4BC04
F5F828
FFFDB8
BF7FE0
7D2E40
ENDCHAR
STARTCHAR uni0439
ENCODING 1081
SWIDTH 462 0
DWIDTH 9 0
BBX 11 15 1 0
BITMAP
000100
140380
3E1F40
2FFE00
0BE400
000000
2D1E00
7C2E00
BC3D00
B87D00
F4BC04
F5F828
FFFDB8
BF7FE0
7D2E40
ENDCHAR
STARTCHAR uni043A
ENCODING 1082
SWIDTH 465 0
DWIDTH 9 0
BBX 11 9 1 0
BITMAP
2C6F40
7DFFC0
BAE7C0
BBC380
FFC000
FFC028
FFE1B8
F9FFE0
746F40
ENDCHAR
STARTCHAR uni043B
ENCODING 1083
SWIDTH 549 0
DWIDTH 11 0
BBX 14 9 0 0
BITMAP
000B8000
001FD000
002FC000
007FC000
24BBC040
B5F7C1D0
FAE3D7C0
BFC3FF40
7E01F800
ENDCHAR
STARTCHAR uni043C
ENCODING 1084
SWIDTH 734 0
DWIDTH 15 0
BBX 18 9 0 0
BITMAP
001F02D000
002F4FE000
003F5FD000
00BF7ED000
64FBBAD040
B5F7F6D1D0
FAD7E2E7C0
BFC3D2FF40
7E0280B800
ENDCHAR
STARTCHAR uni043D
ENCODING 1085
SWIDTH 475 0
DWIDTH 10 0
BBX 11 9 1 0
BITMAP
2C0F00
7C1F00
B82E00
BFFD00
FFFD08
F47C2C
F47DB8
F43FE0
702F40
ENDCHAR
STARTCHAR uni043E
ENCODING 1086
SWIDTH 451 0
DWIDTH 9 0
BBX 12 9 0 0
BITMAP
02F800
1FFF00
2F7F40
3D2FFE
7D0FFD
7D0F40
3E2F00
2FFD00
07E400
ENDCHAR
STARTCHAR uni043F
ENCODING 1087
SWIDTH 496 0
DWIDTH 10 0
BBX 12 9 1 0
BITMAP
2C2F00
7CBF40
BAFF00
BBAF00
FF2E00
FD3D1D
FC3E7D
F83FF4
741F90
ENDCHAR
STARTCHAR uni0440
ENCODING 1088
SWIDTH 481 0
DWIDTH 10 0
BBX 15 18 -3 -9
BITMAP
0079B800
00BFFE00
00BE2E00
00BC2F00
00B82E00
00F87D1C
01F8FCBC
03FFFFF0
0BFFAF80
0EB80000
1DF40000
2CF40000
38F40000
79F00000
75E00000
7AD00000
3FC00000
2E400000
ENDCHAR
STARTCHAR uni0441
ENCODING 1089
SWIDTH 368 0
DWIDTH 7 0
BBX 10 9 0 0
BITMAP
02F800
0FFD00
2F6D00
3D2C00
7D0000
7D00B0
3E47E0
2FFF80
07F900
ENDCHAR
STARTCHAR uni0442
ENCODING 1090
SWIDTH 744 0
DWIDTH 15 0
BBX 17 9 1 0
BITMAP
2C2E0BC000
7CBF2FC000
BAFEBFC000
BB6EEB8000
FF2FCB8100
FD3F4F4740
FC3F0F9F40
F83E0FFD00
742D07E400
ENDCHAR
STARTCHAR uni0443
ENCODING 1091
SWIDTH 479 0
DWIDTH 10 0
BBX 12 18 0 -9
BITMAP
0B4780
1F0B80
2F0F40
2E1F40
3D2F00
3D7F1E
3FFFBD
2FEFE4
1F6F40
00BD00
02FC00
0BBC00
2DB800
78F400
F1F000
F7D000
FF8000
7E0000
ENDCHAR
STARTCHAR uni0444
ENCODING 1092
SWIDTH 721 0
DWIDTH 14 0
BBX 17 23 0 -7
BITMAP
0000500000
0001F00000
0002E00000
0002E00000
0003D00000
0007C00000
0007C00000
01BF9F4000
07FFBFD000
1F8FD3E000
2E0F83E000
3D1F83D040
7D2F4BC2C0
7D7F5F8B80
3FEFFFFE00
1B9FE6F400
001F000000
001E000000
002E000000
002E000000
002E000000
002E000000
0005000000
ENDCHAR
STARTCHAR uni0445
ENCODING 1093
SWIDTH 529 0
DWIDTH 11 0
BBX 13 9 0 0
BITMAP
0BD1F800
1FFBF800
1EBF7400
007E0000
147D0040
78BD02C0
B9FE0B80
7FFFFE00
2F4BF400
ENDCHAR
STARTCHAR uni0446
ENCODING 1094
SWIDTH 501 0
DWIDTH 10 0
BBX 11 15 1 -6
BITMAP
2D1E00
7C2E00
BC3D00
B87C00
F4BC00
F5F804
FFFD7C
BF7FF4
7D2F80
00BE00
07ED00
0F3C00
1E7800
1FF000
0B9000
ENDCHAR
STARTCHAR uni0447
ENCODING 1095
SWIDTH 555 0
DWIDTH 11 0
BBX 14 11 0 0
BITMAP
00500000
01F80000
02FFFD00
03DFFC00
0782F400
0B4F8000
1E2E0050
7C7D01E0
F47D1BD0
903FFF40
001BE800
ENDCHAR
STARTCHAR uni0448
ENCODING 1096
SWIDTH 693 0
DWIDTH 14 0
BBX 16 9 1 0
BITMAP
2D1E0B40
7C2E0F40
BC3D1F00
B87D2E00
F4BC7E04
F5FCBD1D
FFFFFD7C
BF7FAFF4
7D2E1F80
ENDCHAR
STARTCHAR uni0449
ENCODING 1097
SWIDTH 732 0
DWIDTH 15 0
BBX 16 15 1 -6
BITMAP
2D1E0B40
7C2E0F40
BC3D1F00
B87D2E00
F4BC7E00
F5FCBD05
FFFFFE2E
BF7FAFFD
7D2E0FE0
00007F40
0002EF00
00079E00
000F6D00
000FF800
0007E000
ENDCHAR
STARTCHAR uni044A
ENCODING 1098
SWIDTH 542 0
DWIDTH 11 0
BBX 13 9 1 0
BITMAP
FFD00000
6F800000
2EBE0000
7FFF4000
7E4F8100
7D0F8740
7E1F9F00
2FFFFD00
0BFBE000
ENDCHAR
STARTCHAR uni044B
ENCODING 1099
SWIDTH 702 0
DWIDTH 14 0
BBX 16 9 1 0
BITMAP
2D000B40
7D001F40
BDB83F00
BFFEBE00
FD2FFE05
F81FFE1E
BD6F7E7D
7FFD2FF4
1BE00B90
ENDCHAR
STARTCHAR uni044C
ENCODING 1100
SWIDTH 517 0
DWIDTH 10 0
BBX 12 9 1 0
BITMAP
2D0000
7D0000
BDB900
BFFF00
FD2F01
F81F0F
BD6F6E
7FFFF8
1BEB90
ENDCHAR
STARTCHAR uni044D
ENCODING 1101
SWIDTH 466 0
DWIDTH 9 0
BBX 12 9 0 0
BITMAP
0BF900
1FFF40
041BC5
01FFFF
25FFFE
780BC0
7D1F80
3FFF00
0BF800
ENDCHAR
STARTCHAR uni044E
ENCODING 1102
SWIDTH 676 0
DWIDTH 14 0
BBX 15 9 1 0
BITMAP
2C07F400
7C2FFE00
B87E7F04
BFFC7FFC
FFF81FF8
F4B81F00
F4BD3D00
F43FF800
700BE000
ENDCHAR
STARTCHAR uni044F
ENCODING 1103
SWIDTH 543 0
DWIDTH 11 0
BBX 14 9 0 0
BITMAP
00BFB400
02FFF000
03D1F000
02D2E000
75FFE050
F41ED1D0
F87AD7C0
BFF1FF40
2F80B800
ENDCHAR
STARTCHAR uni0450
ENCODING 1104
SWIDTH 393 0
DWIDTH 8 0
BBX 11 16 0 0
BITMAP
0E0000
1F4000
0BC000
03D000
01E000
007000
000000
02F800
0FFE00
2F6E00
3D2D00
7DB800
7F9074
3E46F4
2FFFD0
06F900
ENDCHAR
STARTCHAR uni0451
ENCODING 1105
SWIDTH 393 0
DWIDTH 8 0
BBX 11 13 0 0
BITMAP
0B8780
0FCBC0
0B4B80
000000
02F800
0FFE00
2F6E00
3D2D00
7DB800
7F9074
3E46F4
2FFFD0
06F900
ENDCHAR
STARTCHAR uni0452
ENCODING 1106
SWIDTH 514 0
DWIDTH 10 0
BBX 13 25 0 -9
BITMAP
01E00000
03E00000
03E00000
2FFF8000
2FFF8000
0F800000
0F800000
1F47C000
1F2FD000
2F7FD000
2EE7C000
2FCBC100
3F8B8B40
3F4BBF00
2F0FF800
1D0FD000
002F0000
01FF0000
07EE0000
0F3D0000
2D3C0000
38B80000
79F40000
7FE00000
1F800000
ENDCHAR
STARTCHAR uni0453
ENCODING 1107
SWIDTH 380 0
DWIDTH 8 0
BBX 10 16 0 0
BITMAP
001E00
002F00
007D00
00B800
00F000
01C000
000000
1BF800
2FFD00
147D00
01B800
0BD000
2E0070
7D06F0
3FFF80
1BF900
ENDCHAR
STARTCHAR uni0454
ENCODING 1108
SWIDTH 379 0
DWIDTH 8 0
BBX 10 9 0 0
BITMAP
06F900
1FFF00
2E4E00
3FF000
7FF020
7D00B0
3F47E0
2FFF80
06F900
ENDCHAR
STARTCHAR uni0455
ENCODING 1109
SWIDTH 427 0
DWIDTH 9 0
BBX 11 9 0 0
BITMAP
00B000
02E000
03E000
0BF400
1EBD04
3C3E2C
F6BFF8
D7FFF0
02FF80
ENDCHAR
STARTCHAR uni0456
ENCODING 1110
SWIDTH 246 0
DWIDTH 5 0
BBX 7 13 1 0
BITMAP
2F40
3F40
2E00
0000
3C00
7C00
BC00
B800
F800
F474
F9F4
BFD0
2E40
ENDCHAR
STARTCHAR uni0457
ENCODING 1111
SWIDTH 246 0
DWIDTH 5 0
BBX 8 13 0 0
BITMAP
B878
FCBC
B4B8
0000
0F00
1F00
2F00
2E00
3E00
3D1D
3E7D
2FF4
0B90
ENDCHAR
STARTCHAR uni0458
ENCODING 1112
SWIDTH 254 0
DWIDTH 5 0
BBX 13 22 -5 -9
BITMAP
0002E000
000BF000
0007D000
00000000
0003C000
0007C000
000BC000
000BC000
000B8000
000F8B40
000FBE00
000FF800
001FD000
003F0000
01FE0000
07BD0000
1E3C0000
3C780000
78B40000
B9F00000
7FD00000
2F400000
ENDCHAR
STARTCHAR uni0459
ENCODING 1113
SWIDTH 794 0
DWIDTH 16 0
BBX 19 9 0 0
BITMAP
000BC00000
001FD00000
002FDBE000
007FFFF400
74BBE4F810
F5F7D0B874
FAE3E5F9F0
BF82FFFFD0
6E00BFBE00
ENDCHAR
STARTCHAR uni045A
ENCODING 1114
SWIDTH 751 0
DWIDTH 15 0
BBX 17 9 1 0
BITMAP
2C0F000000
7C2F000000
B82EBE0000
BFFFFF8000
FFFF4B8140
F43D0B8780
F43E1F9F40
F41FFFFD00
7007FBE400
ENDCHAR
STARTCHAR uni045B
ENCODING 1115
SWIDTH 502 0
DWIDTH 10 0
BBX 12 16 1 0
BITMAP
078000
0F8000
0F8000
BFFE00
BFFE00
3E0000
3E0000
7D1F00
7CBF40
BDFF40
BB9F00
BF2E00
FE2E0E
FD3E7D
BC2FF4
741F90
ENDCHAR
STARTCHAR uni045C
ENCODING 1116
SWIDTH 465 0
DWIDTH 9 0
BBX 11 16 1 0
BITMAP
000B40
001F40
002F00
003D00
00B400
00A000
000000
2C6F40
7DFFC0
BAE7C0
BBC380
FFC000
FFC028
FFE1B8
F9FFE0
746F40
ENDCHAR
STARTCHAR uni045D
ENCODING 1117
SWIDTH 462 0
DWIDTH 9 0
BBX 11 16 1 0
BITMAP
1D0000
2F0000
1F4000
07C000
02D000
009000
000000
2D1E00
7C2E00
BC3D00
B87D00
F4BC04
F5F828
FFFDB8
BF7FE0
7D2E40
ENDCHAR
STARTCHAR uni045E
ENCODING 1118
SWIDTH 479 0
DWIDTH 10 0
BBX 12 24 0 -9
BITMAP
000040
0500E0
0F87D0
0BFF80
02F900
000000
0B4780
1F0B80
2F0F40
2E1F40
3D2F00
3D7F1E
3FFFBD
2FEFE4
1F6F40
00BD00
02FC00
0BBC00
2DB800
78F400
F1F000
F7D000
FF8000
7E0000
ENDCHAR
STARTCHAR uni045F
ENCODING 1119
SWIDTH 600 0
DWIDTH 12 0
BBX 11 11 1 -2
BITMAP
2D1E00
7C2E00
BC3D00
B87D00
F4BC04
F5F828
FFFDB8
BF7FE0
7D2E40
3C0000
280000
ENDCHAR
STARTCHAR uni0462
ENCODING 1122
SWIDTH 721 0
DWIDTH 14 0
BBX 15 16 0 0
BITMAP
00F40000
2FFFC000
2FFF8000
03F00000
03E00000
07EBFE40
0BFFFFD0
7FE41BF0
7FC003F0
0BC002F4
0BC002F0
0BC003E0
0BC00BD0
07E46F80
02FFFE00
006FE400
ENDCHAR
STARTCHAR uni0463
ENCODING 1123
SWIDTH 517 0
DWIDTH 10 0
BBX 13 13 0 0
BITMAP
01400000
07C00000
0F800000
7FFC0000
7FFC0000
2F000000
2E6E4000
3FFFC000
3F4BC040
3E07C2C0
2F0BCB80
1FFFFE00
06FAE400
ENDCHAR
STARTCHAR uni046A
ENCODING 1130
SWIDTH 1234 0
DWIDTH 25 0
BBX 27 16 0 0
BITMAP
00BFFFFFFFFF80
00FFFFFFFFFF80
0002F00002F400
0001F40003E000
0000F8000BC000
0000BC001F8000
00007E01BE0000
00001FFFF40000
00006FFFE00000
0001FDFDFC0000
0007E0F87E0000
000FC1F83F0000
141F41F41F8024
7D7E01F40FE1B4
7FFC02F007FFD0
1BE001E001BE40
ENDCHAR
STARTCHAR uni046B
ENCODING 1131
SWIDTH 788 0
DWIDTH 16 0
BBX 19 16 0 0
BITMAP
00000B8000
00001FC000
00002F8000
00003F8000
00007B8000
0000BB8000
0000F78000
007EEBAE00
007FDBFE00
000BCBD000
000B8B8000
001F8F8000
783FEF8074
B9BBFBE1F0
BFF3F5FFD0
2F82E07E40
ENDCHAR
STARTCHAR uni0472
ENCODING 1138
SWIDTH 816 0
DWIDTH 16 0
BBX 15 16 1 0
BITMAP
001BF900
01BFFF80
07F41BE0
0FC002F4
2F4001F8
3F0000FC
7FFE41FC
BFFFFFFC
BD06FFF8
BD0002F8
BD0003F4
7E0007E0
3F000FD0
2FD07F40
0BFFFD00
01BF9000
ENDCHAR
STARTCHAR uni0473
ENCODING 1139
SWIDTH 451 0
DWIDTH 9 0
BBX 12 9 0 0
BITMAP
02F800
1FFE00
2F5F40
3D0B99
7FFFFE
7FFFF9
3E1F40
2FFE00
07F400
ENDCHAR
STARTCHAR uni0474
ENCODING 1140
SWIDTH 797 0
DWIDTH 16 0
BBX 18 16 2 0
BITMAP
2E0001FF90
3F0002FFE0
7E0003F150
7E0007E000
7E0007D000
7D000BC000
BD000F8000
BD001F4000
BD002F0000
7D007E0000
7E00BC0000
3E01F80000
3F47F00000
1FEFD00000
0FFF400000
02F8000000
ENDCHAR
STARTCHAR uni0475
ENCODING 1141
SWIDTH 420 0
DWIDTH 8 0
BBX 10 9 1 0
BITMAP
B41FE0
F42FE0
F43D00
F4BC00
F8F400
FAF000
BFD000
BF8000
2E0000
ENDCHAR
STARTCHAR uni048A
ENCODING 1162
SWIDTH 890 0
DWIDTH 18 0
BBX 21 26 0 -4
BITMAP
0000402C0000
0002F07C0000
0001FFF40000
00007F900000
000000000000
000000000000
06F8000B4000
1FFE000F8000
7D3F001F8000
F03F001F4000
403E002F4000
007E003F0000
00BD003F0000
00BC007E0000
00FC00BE0000
01F801FD0000
01F402FD0000
02F407BD0100
02F41EBD0740
02F9BCBE6F00
01FFF47FFD00
006F801BF400
00000007D000
0000000F8000
0000002F0000
0000002D0000
ENDCHAR
STARTCHAR uni048B
ENCODING 1163
SWIDTH 462 0
DWIDTH 9 0
BBX 11 19 1 -4
BITMAP
000140
2C0380
3E1F40
2FFE00
0BE400
000000
2D1E00
7C2E00
BC3D00
B87D00
F4BC04
F5F828
FFFDB8
BF7FE0
7D2F80
002E00
007C00
00F400
005000
ENDCHAR
STARTCHAR uni048C
ENCODING 1164
SWIDTH 721 0
DWIDTH 14 0
BBX 15 16 0 0
BITMAP
00F40000
2FFFC000
2FFF8000
03F00000
03E00000
07EBFE40
0BFFFFD0
7FE41BF0
7FC003F0
0BC002F4
0BC002F0
0BC003E0
0BC00BD0
07E46F80
02FFFE00
006FE400
ENDCHAR
STARTCHAR uni048D
ENCODING 1165
SWIDTH 517 0
DWIDTH 10 0
BBX 13 13 0 0
BITMAP
01400000
07C00000
0F800000
7FFC0000
7FFC0000
2F000000
2E6E4000
3FFFC000
3F4BC040
3E07C2C0
2F0BCB80
1FFFFE00
06FAE400
ENDCHAR
STARTCHAR uni048E
ENCODING 1166
SWIDTH 805 0
DWIDTH 16 0
BBX 17 19 1 -3
BITMAP
0006FE4000
007FFFF000
02F906F800
0BD000FD00
1F47C0BD00
2E0BC5BD00
7C0FCBFD00
B80F82FE40
B81F47FB80
F5FFFF8000
F5FFF90000
F43F000000
F43E000000
F47E000000
B87D000000
7DBD000000
3FFC000000
0FF4000000
0150000000
ENDCHAR
STARTCHAR uni048F
ENCODING 1167
SWIDTH 481 0
DWIDTH 10 0
BBX 15 18 -3 -9
BITMAP
0079B800
00BFFD00
00BE2E00
00BC2F00
00B82E00
00FABD1C
01FAFC7C
03FFFFF4
07FFAF80
0EB80000
1DF40000
2CF40000
38F40000
79F00000
75E00000
7AD00000
3FC00000
2E400000
ENDCHAR
STARTCHAR uni0490
ENCODING 1168
SWIDTH 645 0
DWIDTH 13 0
BBX 18 21 0 0
BITMAP
00000001D0
00000001E0
00000002E0
00000002E0
00000003D0
01AFFFFFD0
0BFFFFFF40
2F9BD00000
7D0FC00000
7C0F800000
3D1F800000
181F400000
002F400000
003F000000
003F000000
007E000000
007E000000
00BD000000
00BD000000
00BC000000
00B8000000
ENDCHAR
STARTCHAR uni0491
ENCODING 1169
SWIDTH 394 0
DWIDTH 8 0
BBX 8 12 1 0
BITMAP
001D
001D
002D
2FFC
7FF4
B800
B800
F400
F400
F400
F400
7000
ENDCHAR
STARTCHAR uni0492
ENCODING 1170
SWIDTH 635 0
DWIDTH 13 0
BBX 17 16 0 0
BITMAP
01AFFFFFC0
0BFFFFFF80
2F9BD00000
7D0FC00000
7C0F800000
3D1F800000
142F400000
02FFF80000
03FFF80000
003F000000
003E000000
007E000000
007D000000
00BD000000
00BD000000
00B8000000
ENDCHAR
STARTCHAR uni0493
ENCODING 1171
SWIDTH 380 0
DWIDTH 8 0
BBX 10 9 0 0
BITMAP
1BF800
2FFD00
147D00
11BC00
7FE000
3FF070
7D06F0
3FFF80
1BF900
ENDCHAR
STARTCHAR uni0494
ENCODING 1172
SWIDTH 884 0
DWIDTH 18 0
BBX 20 25 0 -9
BITMAP
016BFFFFC0
0BFFFFFF80
2F9BD00000
3D0FC00000
7C0F800000
3D1F800000
291F400000
002F4BF800
003F7FFF00
003FE42F40
007F801F40
007E001F46
00BD002F6E
00BD002FFD
00BC003FE4
00B8007F40
000001FE00
00000BFD00
00002FFC00
00007DF800
0000F4F400
0001F2F000
0002E7D000
0001FF8000
0000BE0000
ENDCHAR
STARTCHAR uni0495
ENCODING 1173
SWIDTH 441 0
DWIDTH 9 0
BBX 11 15 0 -6
BITMAP
1BF800
2FFD00
147D00
01B800
0BD000
2E0004
7D0578
3FFFF4
1FFF80
01FD00
07BC00
1E3C00
2DB400
2FE000
0B8000
ENDCHAR
STARTCHAR uni0496
ENCODING 1174
SWIDTH 1234 0
DWIDTH 25 0
BBX 27 22 0 -6
BITMAP
00BF401F002F90
02FFD02F40BFF0
0387F02F01F5F0
0001F43F03E000
0000F83E0BC000
0000BC3E1F8000
00007E7EBE0000
00001FFFF40000
00007FFFE40000
0001F9FDFC0000
0007E0F87E0000
000FC1F83F4000
241F41F41F8004
7D7E01F40BEA7C
3FFC02F003FFF8
1BE001E000BF80
0000000002FE00
000000001FAE00
000000003E3D00
000000007DBC00
000000007FF400
000000002FD000
ENDCHAR
STARTCHAR uni0497
ENCODING 1175
SWIDTH 803 0
DWIDTH 16 0
BBX 18 15 0 -6
BITMAP
0BD2D2F400
1FF7CFFC00
1E7BEE3C00
007FBD3800
147FFC0000
78BBFC0010
B9F7EE15F0
7FD79FFFD0
2F4747FE40
000002F800
00001FB400
00003CB000
000079E000
00007FC000
00002E4000
ENDCHAR
STARTCHAR uni0498
ENCODING 1176
SWIDTH 725 0
DWIDTH 15 0
BBX 13 22 1 -6
BITMAP
006FE400
07FFFE00
0FD07F00
1F402F00
1F402F00
0A003D00
0001F800
006FF900
00BE7F40
00001F80
78000F80
BC001F80
BC003F40
BE41FE00
2FFFF400
06FFE000
007FD000
02F7C000
07C7C000
0B8F4000
0BFF0000
02F80000
ENDCHAR
STARTCHAR uni0499
ENCODING 1177
SWIDTH 445 0
DWIDTH 9 0
BBX 11 15 0 -6
BITMAP
06F900
1FFF00
2D1F00
142E00
02F800
106E18
782EBC
7FFFF4
1BFF80
01BD00
07BC00
0E7800
1DB400
1FF000
0B8000
ENDCHAR
STARTCHAR uni049A
ENCODING 1178
SWIDTH 937 0
DWIDTH 19 0
BBX 21 22 0 -6
BITMAP
00AFF9007C00
07FFFE00BC00
1F90FD01F800
2E00F802F400
2E01F807E000
1F01F41F8000
0502F5BE0000
000FFFE40000
000FFF900000
0003E7F40000
0007E1F80000
2007D0FD0000
780BC07E0180
7D1F803FEBC0
2FFF001FFF40
07F80007F400
0000002FE000
000001FAE000
000003E3D000
000007D7C000
000007FF4000
000002FD0000
ENDCHAR
STARTCHAR uni049B
ENCODING 1179
SWIDTH 531 0
DWIDTH 11 0
BBX 12 15 1 -6
BITMAP
2C6F40
7DFFC0
BAE3C0
BBC380
FFC000
FFC000
FFE11E
FDFFFD
746FE0
007F40
02EF00
079E00
0B6D00
0FF800
07E000
ENDCHAR
STARTCHAR uni049C
ENCODING 1180
SWIDTH 937 0
DWIDTH 19 0
BBX 22 16 0 0
BITMAP
00AFF9007C00
07FFFE00BC00
1F90FD01F800
2E00F802F400
2E01FA87E000
1F01F79F8000
0502F7FE0000
000FFFE40000
000FFF900000
0003EBF40000
0007EBF80000
2007DBFD0040
780BCBBE01D0
7D1F853F9BC0
2FFF001FFF00
07F80006F800
ENDCHAR
STARTCHAR uni049D
ENCODING 1181
SWIDTH 485 0
DWIDTH 10 0
BBX 12 9 1 0
BITMAP
2C2F80
7C7FD0
BAF6D0
BEE180
FFD008
FFD02D
FFF4B8
FAFFF0
746F80
ENDCHAR
STARTCHAR uni049E
ENCODING 1182
SWIDTH 937 0
DWIDTH 19 0
BBX 22 16 0 0
BITMAP
00AFF9007C00
07FFFE00BC00
1F90FD01F800
2F00F802F400
2E1FFF47E000
1F2FFF5F8000
0902F5BE0000
000FFFE40000
000FFF900000
0003E7F40000
0007E1F80000
2007D0FD0040
780BC07E01D0
7D1F803F9BC0
2FFF001FFF00
07F80006F800
ENDCHAR
STARTCHAR uni049F
ENCODING 1183
SWIDTH 473 0
DWIDTH 9 0
BBX 11 16 1 0
BITMAP
078000
0F8000
1F8000
BFFE00
BFFE00
3E0000
3E0000
7D2F40
7CFFC0
BEE3C0
BBD380
BFC004
BFD02C
BFE0B8
BDFFE0
786F80
ENDCHAR
STARTCHAR uni04A0
ENCODING 1184
SWIDTH 937 0
DWIDTH 19 0
BBX 22 16 0 0
BITMAP
000054007C00
0FFFFE00BC00
0BFFFD01F800
0000F802F400
0001F807E000
0001F41F8000
0002F5BE0000
000FFFE40000
000FFF900000
0003E7F40000
0007E1F80000
2007D0FD0040
780BC07E01D0
7D1F803F9BC0
2FFF001FFF00
07F80006F800
ENDCHAR
STARTCHAR uni04A1
ENCODING 1185
SWIDTH 555 0
DWIDTH 11 0
BBX 13 9 1 0
BITMAP
FFC6E000
BF9FF800
0BBE7800
0FBC7800
0FF81000
1FFC0280
1FFD1F40
0FAFFE00
0B47E400
ENDCHAR
STARTCHAR uni04A2
ENCODING 1186
SWIDTH 907 0
DWIDTH 18 0
BBX 22 23 -1 -6
BITMAP
00000000BD00
01BE0002FE00
0BFF4007DB00
2E5F800F4B00
780F801F0F00
200F802E1E00
000F803D2C00
000F807EF400
001F407F9000
02FFFFFD0000
03FFFAFC0000
003E00BC0000
007E00BC0000
007D00BD0000
00BC007F95E0
00F8002FFFD0
00B40007FD00
0000001FF400
000000BEF000
000002F1F000
000003E7D000
000003FF8000
000001BE0000
ENDCHAR
STARTCHAR uni04A3
ENCODING 1187
SWIDTH 515 0
DWIDTH 10 0
BBX 12 15 1 -6
BITMAP
2C0F00
7C1F00
B82E00
BFFD00
FFFD00
F47C08
F47E7D
F43FF4
701F90
00BE00
02EE00
0B6D00
1E7C00
1FF400
0B9000
ENDCHAR
STARTCHAR uni04A4
ENCODING 1188
SWIDTH 873 0
DWIDTH 17 0
BBX 24 17 -1 0
BITMAP
00000000BFE8
01BE0002FFFD
0BFF4007D054
2E5F800F8000
780F801F4000
200F802F0000
000F803E0000
000F807D0000
001F40BC0000
02FFFFFC0000
03FFFAFC0000
003E00BC0000
007E00BC0000
007D00BD01C0
00BC007E0BC0
00F8002FFF00
00B4000BF400
ENDCHAR
STARTCHAR uni04A5
ENCODING 1189
SWIDTH 475 0
DWIDTH 10 0
BBX 11 10 1 0
BITMAP
000050
2C0FE0
7C1F40
B82E00
BFFD00
FFFD08
F47C2C
F47DB8
F43FE0
702F40
ENDCHAR
STARTCHAR uni04A8
ENCODING 1192
SWIDTH 997 0
DWIDTH 20 0
BBX 22 16 1 0
BITMAP
002B80000000
01FFC2BE4000
07F91FFFD000
0FD07F9BF400
2F40FD01F800
3F01F800FC00
7E02F400FC00
BD02F000BC00
BD03F000FC00
BD02F001F800
BD02F402F400
7E01F80BD000
3F40BE6F8190
1FE57FFE6FD0
07FFFFFFFF80
006FFAAFE400
ENDCHAR
STARTCHAR uni04A9
ENCODING 1193
SWIDTH 574 0
DWIDTH 11 0
BBX 14 9 0 0
BITMAP
02E00000
0FE6E400
2F0FF800
3D2D3C00
7D3C3C10
7D3C78B0
3E2EF6E0
2FFFFF80
07FBF900
ENDCHAR
STARTCHAR uni04AA
ENCODING 1194
SWIDTH 781 0
DWIDTH 16 0
BBX 17 25 1 -9
BITMAP
001BF90000
00BFFF4000
07F91F8000
0FD00BC000
2F400BC000
3F000B8000
7E00010000
BD00000000
BD00000000
BD00000000
BD00000000
7E00004000
3F0002C280
1FD05FDF80
0BFFFFFD00
01BFEFE000
00002F8000
0000BF4000
0002EF0000
000B6E0000
001E2D0000
002C7C0000
003CB80000
003FF00000
001F800000
ENDCHAR
STARTCHAR uni04AB
ENCODING 1195
SWIDTH 431 0
DWIDTH 9 0
BBX 11 15 0 -6
BITMAP
02F800
0FFD00
2F6D00
3D2C00
7D0000
7D0014
3E05B8
2FFFF4
0BFF80
01FD00
0BBC00
1E7800
2DB400
3FE000
1F8000
ENDCHAR
STARTCHAR uni04AC
ENCODING 1196
SWIDTH 697 0
DWIDTH 14 0
BBX 18 23 0 -7
BITMAP
006BFFFFE0
0BFFFFFFF0
2F90FC0000
7D00F80000
7C01F80000
3D01F40000
1902F40000
0003F00000
0003F00000
0007E00000
0007E00000
000BD00000
000BD00000
000BC00000
000FE40000
000FF80000
000BF80000
002FF40000
00B8F40000
01F1F00000
02F2E00000
02FFC00000
00BE000000
ENDCHAR
STARTCHAR uni04AD
ENCODING 1197
SWIDTH 784 0
DWIDTH 16 0
BBX 17 15 1 -6
BITMAP
2C2E0BC000
7CBF2FC000
BAFEBFC000
BB6EEB8000
FF2FCB8000
FD3F4F4140
FC3F0F8B80
F83E0BFF40
742D03F800
00001FD000
0000BBC000
0001E78000
0002DB4000
0002FE0000
0001F80000
ENDCHAR
STARTCHAR uni04AE
ENCODING 1198
SWIDTH 677 0
DWIDTH 14 0
BBX 12 16 3 0
BITMAP
F4002E
FC00BD
BD01F8
7E03F0
2F4BD0
1F8F80
0FEF00
0BFD00
03F800
02F400
02F000
02F000
02F000
02F000
02E000
02E000
ENDCHAR
STARTCHAR uni04AF
ENCODING 1199
SWIDTH 472 0
DWIDTH 9 0
BBX 11 16 1 -7
BITMAP
B41E00
F43F40
B87F00
B87F14
BC3FFC
7CBFF4
7DF000
7FD000
3F8000
3E0000
3E0000
3E0000
2E0000
2E0000
2E0000
050000
ENDCHAR
STARTCHAR uni04B0
ENCODING 1200
SWIDTH 677 0
DWIDTH 14 0
BBX 12 16 3 0
BITMAP
F4002E
FC00BD
BD01F8
7F03F0
2F4BD0
1F9F80
0BFF00
07FD00
03F800
3FFF40
3FFF40
02F000
02F000
02F000
02E000
02E000
ENDCHAR
STARTCHAR uni04B1
ENCODING 1201
SWIDTH 472 0
DWIDTH 9 0
BBX 12 16 0 -7
BITMAP
2D0780
3D0FD0
2E1FC0
2E1FC5
2F0FFF
1F2FFD
1F7C00
1FF400
0FE000
BFFC00
7FF800
0F8000
0B8000
0B8000
0B8000
014000
ENDCHAR
STARTCHAR uni04B2
ENCODING 1202
SWIDTH 716 0
DWIDTH 14 0
BBX 17 22 0 -6
BITMAP
07F8007D00
2FFE01FC00
B87F07F400
901F8FD000
000FFF4000
000BFD0000
0007F40000
000BE00000
002FF00000
007FF40000
01F9F80000
07F0FC0000
1FC0BD0040
7F407F9B80
FD002FFE40
F4000BF400
00006FD000
0001FBD000
0007D7C000
000B8B8000
000BFF0000
0002F80000
ENDCHAR
STARTCHAR uni04B3
ENCODING 1203
SWIDTH 601 0
DWIDTH 12 0
BBX 14 15 0 -6
BITMAP
0BE1F800
1FFFF800
1E7F7400
007E0000
147D0000
78BD0010
B8FE05F0
7FFFFFD0
2F5BFE40
0002F800
001FB400
003CB000
0075E000
007FC000
002E4000
ENDCHAR
STARTCHAR uni04B4
ENCODING 1204
SWIDTH 1040 0
DWIDTH 21 0
BBX 24 22 0 -6
BITMAP
006BFFE42D00
0BFFFFFC3E00
2F90BD007E00
3D00BC007D00
7C00F800BD00
3D01F800FC00
1902F400FC00
0002F001F800
0003F002F800
0007E003F400
0007D00BF400
000BD00EF400
000BC02AF400
000BE1F6FE2D
0007FFD0BFF8
0001BE002FD0
00000001FF00
0000000FAE00
0000003E3D00
0000007D7C00
0000007FF800
0000001FD000
ENDCHAR
STARTCHAR uni04B5
ENCODING 1205
SWIDTH 501 0
DWIDTH 10 0
BBX 11 19 1 -6
BITMAP
0BFF40
0BFF40
000000
000000
2D1E00
7C2E00
BC3D00
B87C00
F4BC00
F5F804
FFFD7C
BF7FF4
7D2F80
00BE00
07ED00
0F3C00
1E7800
1FF000
0B9000
ENDCHAR
STARTCHAR uni04B6
ENCODING 1206
SWIDTH 804 0
DWIDTH 16 0
BBX 17 22 2 -6
BITMAP
2E000B4000
3F000F8000
3F000F8000
3F001F8000
7E002F4000
7D003F4000
BD007F0000
BC00FF0000
BE07EF0000
7FFFAE0000
2FFD3E0000
01503D0000
00007E0100
00007FDB80
00002FFE00
000007E400
00007FD000
0002FBC000
000BCB8000
000F9F4000
000FFE0000
0006F80000
ENDCHAR
STARTCHAR uni04B7
ENCODING 1207
SWIDTH 631 0
DWIDTH 13 0
BBX 15 17 0 -6
BITMAP
00500000
01F80000
02FFFD00
03DFFC00
0782F400
0B4B8000
1E2E0000
7C7D0014
F47D05B8
903FFFE0
001FFF40
0001FD00
000BBC00
001D7800
003DB400
003FE000
001F8000
ENDCHAR
STARTCHAR uni04B8
ENCODING 1208
SWIDTH 773 0
DWIDTH 15 0
BBX 13 16 2 0
BITMAP
2E000B40
3F000F80
3F000F80
3F001F80
7E101F40
7E282F40
BD383F00
BD38BF00
BD75FF00
BFBFEE00
7FFF3E00
1BF43D00
00B07D00
00A07D00
0000BC00
00007800
ENDCHAR
STARTCHAR uni04B9
ENCODING 1209
SWIDTH 575 0
DWIDTH 12 0
BBX 14 11 0 0
BITMAP
00018000
00B78000
01FFAE00
02DFFE00
07D9F800
0B47D000
1E1F4010
7C2E00B0
F43E5BE0
902FFF80
000BF900
ENDCHAR
STARTCHAR uni04BA
ENCODING 1210
SWIDTH 755 0
DWIDTH 15 0
BBX 17 16 1 0
BITMAP
03D0000000
07D0000000
0BD0000000
0BD0000000
0BC0000000
0F80000000
0F80000000
1F46F90000
1F7FFF4000
2FF42F8000
2FC00F8000
3F401F8000
3E001F4280
7E001F5B40
7D001FFD00
7C000BE400
ENDCHAR
STARTCHAR uni04BB
ENCODING 1211
SWIDTH 502 0
DWIDTH 10 0
BBX 12 18 1 0
BITMAP
00B800
03FD00
0BAE00
0F1E00
1E2D00
2E3C00
3D7400
7CF000
7ED000
BF5F00
BEBF40
B9FF40
FB9F00
FF2E00
FE2E0E
FD3E7D
FC2FF4
B41F90
ENDCHAR
STARTCHAR uni04BC
ENCODING 1212
SWIDTH 808 0
DWIDTH 16 0
BBX 18 16 1 0
BITMAP
0001BF9000
000BFFF800
002F91FC00
00BE007D00
01F8007D00
02F4007D00
B7F0007D00
FFFFFFFC00
7FFFFFF400
07E0000000
03E0000000
03F4000000
02F8000050
00BF401BE0
002FFFFFD0
0006BFA900
ENDCHAR
STARTCHAR uni04BD
ENCODING 1213
SWIDTH 483 0
DWIDTH 10 0
BBX 13 9 0 0
BITMAP
006F8000
01FFD000
03E2D000
07C3D000
BBDF8100
7FF90B40
07E06F00
02FFF800
006F9000
ENDCHAR
STARTCHAR uni04BE
ENCODING 1214
SWIDTH 808 0
DWIDTH 16 0
BBX 18 21 1 -5
BITMAP
0001BF9000
000BFFF800
002F91FC00
00BE007D00
01F8007D00
02F4007D00
B7F0007D00
FFFFFFFC00
7FFFFFF400
07E0000000
07E0000000
03F4000000
02F8000050
00BF401BE0
002FFFFFD0
0007FFA900
000F000000
001E000000
002E000000
001FF80000
0007F40000
ENDCHAR
STARTCHAR uni04BF
ENCODING 1215
SWIDTH 483 0
DWIDTH 10 0
BBX 12 14 0 -5
BITMAP
006F80
01FFD0
03E2E0
07C2D0
BBDB80
BFFE07
1BE02F
03FAFD
00BFE0
002E00
003C00
003C00
003FB0
001BE0
ENDCHAR
STARTCHAR uni04C0
ENCODING 1216
SWIDTH 495 0
DWIDTH 10 0
BBX 12 16 -1 0
BITMAP
02FFFE
03FFFE
001F80
001F80
001F40
002F40
002F00
003F00
003E00
007E00
007D00
00BD00
00BC00
00FC00
2FFFE0
7FFFE0
ENDCHAR
STARTCHAR uni04C1
ENCODING 1217
SWIDTH 1234 0
DWIDTH 25 0
BBX 27 24 0 0
BITMAP
00000000040000
000000502D0000
000001F47C0000
000000FFF40000
0000006F900000
00000000000000
00000000000000
00000000000000
00BF401F002F90
02FFD02F40BFF0
0387F02F01F5F0
0001F43F03E000
0000F83E0BC000
0000BC3E1F8000
00007E7EBE0000
00001FFFF40000
00006FFFE00000
0001FDFDFC0000
0007E0F87E0000
000FC1F83F0000
141F41F41F8024
7D7E01F40FE1B4
7FFC02F007FFD0
1BE001E001BE40
ENDCHAR
STARTCHAR uni04C2
ENCODING 1218
SWIDTH 717 0
DWIDTH 14 0
BBX 17 15 0 0
BITMAP
0000010000
0014074000
003D1F0000
003FFD0000
000BE40000
0000000000
0BD2D2F400
1FF7CFFC00
1E7BEE3C00
007FBD3800
147FFC0040
78BBFC02C0
B9F7EE1B80
7FD79FFE00
2F4746F400
ENDCHAR
STARTCHAR uni04C3
ENCODING 1219
SWIDTH 937 0
DWIDTH 19 0
BBX 21 22 0 -6
BITMAP
00AFF9007C00
07FFFE00BC00
1F90FD01F800
2E00F802F400
2E01F807E000
1F01F41F8000
0502F5BE0000
000FFFE40000
000FFF900000
0003E7F40000
0007E1F80000
2007D0FD0000
780BC07E0180
7D1F803FEBC0
2FFF001FFF40
07F80007F400
0000002FE000
000001FAE000
000003E3D000
000007D7C000
000007FF4000
000002FD0000
ENDCHAR
STARTCHAR uni04C4
ENCODING 1220
SWIDTH 531 0
DWIDTH 11 0
BBX 12 15 1 -6
BITMAP
2C6F40
7DFFC0
BAE3C0
BBC380
FFC000
FFC000
FFE11E
FDFFFD
746FE0
007F40
02EF00
079E00
0B6D00
0FF800
07E000
ENDCHAR
STARTCHAR uni04C5
ENCODING 1221
SWIDTH 861 0
DWIDTH 17 0
BBX 20 20 0 -4
BITMAP
000002F000
000007F400
00000BF400
00000FF000
00001FF000
00002FF000
00003FF000
00007EF000
0000BAF000
0001F6F000
0002F2F000
1007D1F401
B40FC1F80A
BD7F40FD7D
7FFD007FF8
1BE4001FE0
0000000F80
0000002F00
0000007D00
0000007800
ENDCHAR
STARTCHAR uni04C6
ENCODING 1222
SWIDTH 549 0
DWIDTH 11 0
BBX 14 12 0 -3
BITMAP
000B8000
001FD000
002FC000
007FC000
24BBC040
B5F7C1D0
FAE3D7C0
BFC3FF00
7E01FC00
0001F000
0003D000
00078000
ENDCHAR
STARTCHAR uni04C7
ENCODING 1223
SWIDTH 907 0
DWIDTH 18 0
BBX 22 23 -1 -6
BITMAP
00000000BD00
01BE0002FE00
0BFF4007DB00
2E5F800F4B00
780F801F0F00
200F802E1E00
000F803D2C00
000F807EF400
001F407F9000
02FFFFFD0000
03FFFAFC0000
003E00BC0000
007E00BC0000
007D00BD0000
00BC007F95E0
00F8002FFFD0
00B40007FD00
0000001FF400
000000BEF000
000002F1F000
000003E7D000
000003FF8000
000001BE0000
ENDCHAR
STARTCHAR uni04C8
ENCODING 1224
SWIDTH 515 0
DWIDTH 10 0
BBX 12 15 1 -6
BITMAP
2C0F00
7C1F00
B82E00
BFFD00
FFFD00
F47C08
F47E7D
F43FF4
701F90
00BE00
02EE00
0B6D00
1E7C00
1FF400
0B9000
ENDCHAR
STARTCHAR uni04C9
ENCODING 1225
SWIDTH 873 0
DWIDTH 17 0
BBX 21 21 -1 -4
BITMAP
00000000BD00
01BE0002FE00
0BFF4007DB00
2E5F800F4B00
780F801F0F00
200F802E1E00
000F803D2C00
000F807EF400
001F407F8000
02FFFFFD0000
03FFFAFC0000
003E00BC0000
007E00BC0000
007D00BD01C0
00BC007F5BC0
00F8002FFF00
00B4000BFC00
00000002F000
00000007D000
0000000F8000
0000000E0000
ENDCHAR
STARTCHAR uni04CA
ENCODING 1226
SWIDTH 475 0
DWIDTH 10 0
BBX 11 13 1 -4
BITMAP
2C0F00
7C1F00
B82E00
BFFD00
FFFD08
F47C2C
F47DB8
F43FE0
702F80
001F00
007D00
00B800
001000
ENDCHAR
STARTCHAR uni04CB
ENCODING 1227
SWIDTH 773 0
DWIDTH 15 0
BBX 13 22 2 -6
BITMAP
2E000B40
3F000F80
3F000F80
3F001F80
7E002F40
7D003F40
BD007F00
BC00FF00
BE07FF00
7FFFAE00
2FFD3E00
01503D00
00007D00
0000BD00
0003FC00
001BF800
00BFC000
07EB8000
0F8B4000
1F5F0000
1FFD0000
07F40000
ENDCHAR
STARTCHAR uni04CC
ENCODING 1228
SWIDTH 555 0
DWIDTH 11 0
BBX 14 13 0 -2
BITMAP
00500000
01F80000
02FFFD00
03DFFC00
0782F400
0B4F8000
1E2E0050
7C7D01E0
F47D1BD0
903FFF40
001BFD00
00003C00
00002800
ENDCHAR
STARTCHAR uni04CD
ENCODING 1229
SWIDTH 1133 0
DWIDTH 23 0
BBX 26 20 0 -4
BITMAP
00002E002E0000
00007F407F4000
0000BF40FF0000
0000BF01FF0000
0000FF02FF0000
0001FF03EF0000
0002EF4BAE0000
0002EF4F6E0000
0003DF5F3E0000
0007CF6E3E0000
000B8FBD3E0000
000F4BFC2F0000
B41F0BF82F01D0
BC7E07F41F87C0
7FF803F00BFF40
1BE002D002FD00
0000000002F400
0000000007D000
000000000F8000
000000000B0000
ENDCHAR
STARTCHAR uni04CE
ENCODING 1230
SWIDTH 734 0
DWIDTH 15 0
BBX 18 13 0 -4
BITMAP
001F02D000
002F4FE000
003F5FD000
00BF7ED000
64FBBAD040
B5F7F6D1D0
FAD7E2E7C0
BFC3D2FF40
7E0280FD00
000001F800
000002E000
000007D000
0000074000
ENDCHAR
STARTCHAR uni04CF
ENCODING 1231
SWIDTH 222 0
DWIDTH 4 0
BBX 6 16 0 0
BITMAP
0140
03E0
07D0
07C0
0BC0
0B80
0F80
1F40
1F40
2F00
2F00
3E00
3E00
7D00
7D00
7C00
ENDCHAR
STARTCHAR uni04D0
ENCODING 1232
SWIDTH 786 0
DWIDTH 16 0
BBX 18 24 1 0
BITMAP
0000000400
0000502D00
0001F47C00
0000FFF400
00006F9000
0000000000
0000000000
0000000000
0001BFE900
002FFFFE00
01FF956900
07F4029000
0FD007E000
2F8007D000
3F000BC000
7E000FC000
BD001F8000
BC002F4000
FC003F4000
BD007F4000
BE00FF41D0
7F97EF9BC0
1FFF4FFF40
06F906F800
ENDCHAR
STARTCHAR uni04D1
ENCODING 1233
SWIDTH 470 0
DWIDTH 9 0
BBX 12 15 0 0
BITMAP
000010
0100B0
0B82E0
07FFC0
01FE00
000000
01B800
07FF80
1F9F80
2F0F40
3D1F40
7D2F0B
7D7F6E
3FFFF8
1B87E0
ENDCHAR
STARTCHAR uni04D2
ENCODING 1234
SWIDTH 786 0
DWIDTH 16 0
BBX 18 21 1 0
BITMAP
0000B4B400
0001F9F800
0000F4B400
0000000000
0000000000
0001BFE900
002FFFFE00
01FF956900
07F4029000
0FD007E000
2F8007D000
3F000BC000
7E000FC000
BD001F8000
BC002F4000
FC003F4000
BD007F4000
BE00FF41D0
7F97EF9BC0
1FFF4FFF40
06F906F800
ENDCHAR
STARTCHAR uni04D3
ENCODING 1235
SWIDTH 470 0
DWIDTH 9 0
BBX 12 13 0 0
BITMAP
02D2E0
03E3F0
02D2D0
000000
01B800
07FF80
1F9F80
2F0F40
3D1F40
7D2F0B
7D7F6E
3FFFF8
1B87E0
ENDCHAR
STARTCHAR uni04D4
ENCODING 1236
SWIDTH 1015 0
DWIDTH 20 0
BBX 22 16 1 0
BITMAP
0006F87FFF40
006FF8FFFF40
01FF91F40000
07F402F00000
0FD003E00000
2F8007E00000
3F000BD00000
7E000FFFFC00
BD001FFFFC00
BC002F800000
FC003F800000
BD007F800000
BD00FFC00050
7F47EBF517E0
1FFF82FFFFD0
06F9006FF900
ENDCHAR
STARTCHAR uni04D5
ENCODING 1237
SWIDTH 653 0
DWIDTH 13 0
BBX 16 9 0 0
BITMAP
01BD7E00
07FFFF80
1F9BD7C0
2E0F8780
3D1FAF00
7D1FF41E
3E7FD1BD
2FF7FFF4
0BD1BF80
ENDCHAR
STARTCHAR uni04D6
ENCODING 1238
SWIDTH 686 0
DWIDTH 14 0
BBX 16 24 0 0
BITMAP
00000050
000500E0
000B82E0
000BFFC0
0002FE00
00000000
00000000
00000000
001BFE40
00BFFFE0
03F947F0
07E001F4
07E002F0
03F40050
00BFD000
02FFD000
1FE40000
3F400000
7E000000
7E000000
7F000006
2FD405BF
0BFFFFFD
01AFFE90
ENDCHAR
STARTCHAR uni04D7
ENCODING 1239
SWIDTH 393 0
DWIDTH 8 0
BBX 11 15 0 0
BITMAP
000040
0502C0
1F0B80
1FFF40
06F800
000000
02F800
0FFE00
2F6E00
3D2D00
7DB800
7F9074
3E46F4
2FFFD0
06F900
ENDCHAR
STARTCHAR uni04D8
ENCODING 1240
SWIDTH 792 0
DWIDTH 16 0
BBX 15 16 1 0
BITMAP
006FE800
07FFFF40
0FD46FD0
1D0007E0
000002F0
000002F4
000001F4
7FFFFFF4
BFFFFFF4
BD0003F0
BD0007E0
BD000BD0
3F002F80
2F91BF00
0BFFF800
01BF9000
ENDCHAR
STARTCHAR uni04D9
ENCODING 1241
SWIDTH 455 0
DWIDTH 9 0
BBX 12 9 0 0
BITMAP
0BF900
2FFF40
041F85
3FFFFE
7FFFFD
780B80
7C2F40
3FFE00
1BE400
ENDCHAR
STARTCHAR uni04DA
ENCODING 1242
SWIDTH 792 0
DWIDTH 16 0
BBX 15 21 1 0
BITMAP
002D2E00
007E3F00
003D2D00
00000000
00000000
006FE800
07FFFF40
0FD46FD0
1D0007E0
000002F0
000002F4
000001F4
7FFFFFF4
BFFFFFF4
BD0003F0
BD0007E0
BD000BD0
3F002F80
2F91BF00
0BFFF800
01BF9000
ENDCHAR
STARTCHAR uni04DB
ENCODING 1243
SWIDTH 455 0
DWIDTH 9 0
BBX 12 13 0 0
BITMAP
0B8780
0FCFC0
0B4B80
000000
0BF900
2FFF40
041F85
3FFFFE
7FFFFD
780B80
7C2F40
3FFE00
1BE400
ENDCHAR
STARTCHAR uni04DC
ENCODING 1244
SWIDTH 1234 0
DWIDTH 25 0
BBX 27 21 0 0
BITMAP
000000B4B40000
000001F9F80000
000000F4B40000
00000000000000
00000000000000
00BF401F002F90
02FFD02F40BFF0
0387F02F01F5F0
0001F43F03E000
0000F83E0BC000
0000BC3E1F8000
00007E7EBE0000
00001FFFF40000
00006FFFE00000
0001FDFDFC0000
0007E0F87E0000
000FC1F83F0000
141F41F41F8024
7D7E01F40FE1B4
7FFC02F007FFD0
1BE001E001BE40
ENDCHAR
STARTCHAR uni04DD
ENCODING 1245
SWIDTH 717 0
DWIDTH 14 0
BBX 17 13 0 0
BITMAP
001F0F4000
002F5F4000
001E1F0000
0000000000
0BD2D2F400
1FF7CFFC00
1E7BEE3C00
007FBD3800
147FFC0040
78BBFC02C0
B9F7EE1B80
7FD79FFE00
2F4746F400
ENDCHAR
STARTCHAR uni04DE
ENCODING 1246
SWIDTH 725 0
DWIDTH 15 0
BBX 13 21 1 0
BITMAP
002D2E00
007E3E00
003D2D00
00000000
00000000
006FE400
07FFFE00
0FD07F00
1F402F00
1F402F00
0A003D00
0001F800
006FF800
00BE7F40
00001F80
78000F80
BC001F80
BC003F40
BE41FE00
2FFFF800
06FE9000
ENDCHAR
STARTCHAR uni04DF
ENCODING 1247
SWIDTH 435 0
DWIDTH 9 0
BBX 12 22 -1 -9
BITMAP
0787C0
0BDBD0
078780
000000
01BE00
07FF80
0647C0
000780
001F40
01FD0A
0BD07E
0BE2F8
01FF80
00BD00
02FD00
0BBD00
2D3D00
787C00
B4F800
B6F000
BFD000
6E4000
ENDCHAR
STARTCHAR uni04E0
ENCODING 1248
SWIDTH 744 0
DWIDTH 15 0
BBX 15 16 1 0
BITMAP
01BFFA50
0BFFFFF4
1F901BE0
1F001F80
0F402F40
0600BE00
0001F800
007FF900
00BE7F40
00001F80
78000F80
BC001F80
BC003F40
BE41FE00
2FFFF800
06FE9000
ENDCHAR
STARTCHAR uni04E1
ENCODING 1249
SWIDTH 435 0
DWIDTH 9 0
BBX 12 18 -1 -9
BITMAP
0BFFF4
0BFFF4
001FD0
00BD00
02E001
0BC01E
0F80BD
07FBE4
00BF40
00FD00
07FD00
1F7D00
3D3D00
787C00
B4F400
B6F000
BFD000
6E4000
ENDCHAR
STARTCHAR uni04E2
ENCODING 1250
SWIDTH 890 0
DWIDTH 18 0
BBX 21 20 0 0
BITMAP
0001FFE00000
0001FFE00000
000000000000
000000000000
06F8000B4000
1FFE000F8000
7D7F001F8000
F03F001F4000
403E002F4000
007E003F0000
00BD003F0000
00BC007E0000
00FC00BE0000
01F801FD0000
01F402FD0000
02F407BD0100
02F41EBD0740
02F9BCBE6F00
01FFF47FFD00
006F801BE000
ENDCHAR
STARTCHAR uni04E3
ENCODING 1251
SWIDTH 462 0
DWIDTH 9 0
BBX 11 12 1 0
BITMAP
0FFF00
0FFF00
000000
2D1E00
7C2E00
BC3D00
B87D00
F4BC04
F5F828
FFFDB8
BF7FE0
7D2E40
ENDCHAR
STARTCHAR uni04E4
ENCODING 1252
SWIDTH 890 0
DWIDTH 18 0
BBX 21 21 0 0
BITMAP
0001F0F40000
0002F5F40000
0001E1F00000
000000000000
000000000000
06F8000B4000
1FFE000F8000
7D7F001F8000
F03F001F4000
403E002F4000
007E003F0000
00BD003F0000
00BC007E0000
00FC00BE0000
01F801FD0000
01F402FD0000
02F407BD0100
02F41EBD0740
02F9BCBE6F00
01FFF47FFD00
006F801BE000
ENDCHAR
STARTCHAR uni04E5
ENCODING 1253
SWIDTH 462 0
DWIDTH 9 0
BBX 11 13 1 0
BITMAP
0F4B40
1F5F80
1F0F40
000000
2D1E00
7C2E00
BC3D00
B87D00
F4BC04
F5F828
FFFDB8
BF7FE0
7D2E40
ENDCHAR
STARTCHAR uni04E6
ENCODING 1254
SWIDTH 816 0
DWIDTH 16 0
BBX 15 21 1 0
BITMAP
001F4B40
002F5F80
001F0F40
00000000
00000000
001BF900
01BFFF80
07F91BE0
0FD002F4
2F4001F8
3F0000FC
7E0000FC
BD0000FC
BD0000F8
BD0001F8
BD0002F4
7E0007E0
3F000FD0
2FD17F40
0BFFFD00
01BF9000
ENDCHAR
STARTCHAR uni04E7
ENCODING 1255
SWIDTH 451 0
DWIDTH 9 0
BBX 12 13 0 0
BITMAP
0B8780
0F8FC0
0B4B80
000000
02F800
1FFF00
2F7F40
3D2FFE
7D0FFD
7D0F40
3E2F00
2FFD00
07E400
ENDCHAR
STARTCHAR uni04E8
ENCODING 1256
SWIDTH 816 0
DWIDTH 16 0
BBX 15 16 1 0
BITMAP
001BF900
01BFFF80
07F81BE0
0FD002F4
2F4001F8
3F0000FC
7E0000FC
BFFFFFFC
BFFFFFF8
BD0001F8
BD0002F4
7E0007E0
3F000FD0
2FD07F40
0BFFFD00
01BF9000
ENDCHAR
STARTCHAR uni04E9
ENCODING 1257
SWIDTH 451 0
DWIDTH 9 0
BBX 12 9 0 0
BITMAP
02F900
1FFF00
2E1F84
3FFFFE
7FFFF9
7D0F40
3E2F00
2FFD00
07E400
ENDCHAR
STARTCHAR uni04EA
ENCODING 1258
SWIDTH 816 0
DWIDTH 16 0
BBX 15 21 1 0
BITMAP
001F4B40
002F5F80
001F0F40
00000000
00000000
001BF900
01BFFF80
07F81BE0
0FD002F4
2F4001F8
3F0000FC
7E0000FC
BFFFFFFC
BFFFFFF8
BD0001F8
BD0002F4
7E0007E0
3F000FD0
2FD07F40
0BFFFD00
01BF9000
ENDCHAR
STARTCHAR uni04EB
ENCODING 1259
SWIDTH 451 0
DWIDTH 9 0
BBX 12 13 0 0
BITMAP
0B8780
0F8FC0
0B4B80
000000
02F900
1FFF00
2E1F84
3FFFFE
7FFFF9
7D0F40
3E2F00
2FFD00
07E400
ENDCHAR
STARTCHAR uni04EC
ENCODING 1260
SWIDTH 755 0
DWIDTH 15 0
BBX 14 21 1 0
BITMAP
002D2D00
007E7E00
003D2D00
00000000
00000000
01BFE400
0BFFFE00
2F907F40
38001FC0
00000BD0
000007E0
000007E0
02FFFFE0
02FFFFE0
00000BD0
50000BC0
F8001F80
F8003F00
FD01FD00
7FFFF400
1BFE4000
ENDCHAR
STARTCHAR uni04ED
ENCODING 1261
SWIDTH 466 0
DWIDTH 9 0
BBX 12 13 0 0
BITMAP
0787C0
0BCBD0
078780
000000
0BF900
1FFF40
041BC5
01FFFF
25FFFE
780BC0
7D1F80
3FFF00
0BF800
ENDCHAR
STARTCHAR uni04EE
ENCODING 1262
SWIDTH 824 0
DWIDTH 16 0
BBX 19 25 0 -5
BITMAP
0002FFE000
0001FFD000
0000000000
0000000000
06F8000B40
2FFE001F80
7D7E001F40
103E002F40
007E003F00
00BD00BF00
00BC00FE00
00FC03FE00
00FD1F7D00
007FFD7D00
001FE47DA8
000000BFFC
00001BFF94
0000BFF800
0007F4F400
001F41F400
003E02F000
007D03D000
007E1F8000
003FFF0000
000BF80000
ENDCHAR
STARTCHAR uni04EF
ENCODING 1263
SWIDTH 479 0
DWIDTH 10 0
BBX 12 21 0 -9
BITMAP
03FFC0
03FFC0
000000
0B4780
1F0B80
2F0F40
2E1F40
3D2F00
3D7F1E
3FFFBD
2FEFE4
1F6F40
00BD00
02FC00
0BBC00
2DB800
78F400
F1F000
F7D000
FF8000
7E0000
ENDCHAR
STARTCHAR uni04F0
ENCODING 1264
SWIDTH 824 0
DWIDTH 16 0
BBX 19 26 0 -5
BITMAP
0001E1F000
0003F2F400
0002E1E000
0000000000
0000000000
06F8000B40
2FFE001F80
7D7E001F40
103E002F40
007E003F00
00BD00BF00
00BC00FE00
00FC03FE00
00FD1F7D00
007FFD7D00
001FE47DA8
000000BFFC
00001BFF94
0000BFF800
0007F4F400
001F41F400
003E02F000
007D03D000
007E1F8000
003FFF0000
000BF80000
ENDCHAR
STARTCHAR uni04F1
ENCODING 1265
SWIDTH 479 0
DWIDTH 10 0
BBX 12 22 0 -9
BITMAP
03D2D0
07D7E0
07C3D0
000000
0B4780
1F0B80
2F0F40
2E1F40
3D2F00
3D7F1E
3FFFBD
2FEFE4
1F6F40
00BD00
02FC00
0BBC00
2DB800
78F400
F1F000
F7D000
FF8000
7E0000
ENDCHAR
STARTCHAR uni04F2
ENCODING 1266
SWIDTH 824 0
DWIDTH 16 0
BBX 19 28 0 -5
BITMAP
0000141000
00007CB800
0000B8F400
0000F5E000
0000E1D000
0000000000
0000000000
06F8000B40
2FFE001F80
7D7E001F40
103E002F40
007E003F00
00BD00BF00
00BC00FE00
00FC03FE00
00FD1F7D00
007FFD7D00
001FE47DA8
000000BFFC
00001BFF94
0000BFF800
0007F4F400
001F41F400
003E02F000
007D03D000
007E1F8000
003FFF0000
000BF80000
ENDCHAR
STARTCHAR uni04F3
ENCODING 1267
SWIDTH 479 0
DWIDTH 10 0
BBX 12 25 0 -9
BITMAP
003874
007CF8
00B8F4
00F1E0
01D2C0
018240
000000
0B4780
1F0B80
2F0F40
2E1F40
3D2F00
3D7F1E
3FFFBD
2FEFE4
1F6F40
00BD00
02FC00
0BBC00
2DB800
78F400
F1F000
F7D000
FF8000
7E0000
ENDCHAR
STARTCHAR uni04F4
ENCODING 1268
SWIDTH 773 0
DWIDTH 15 0
BBX 13 21 2 0
BITMAP
00B4B800
01F8FC00
00F4B400
00000000
00000000
2E000B40
3F000F80
3F000F80
3F001F80
7E002F40
7D003F40
BD007F00
BC00FF00
BE07FF00
7FFFAE00
2FFD3E00
01503D00
00007D00
00007D00
0000BC00
00007800
ENDCHAR
STARTCHAR uni04F5
ENCODING 1269
SWIDTH 555 0
DWIDTH 11 0
BBX 14 13 0 0
BITMAP
001E1F00
002F6F40
007E1E00
01F80000
02FFFD00
03DFFC00
0782F400
0B4F8000
1E2E0050
7C7D01E0
F47D1BD0
903FFF40
001BE800
ENDCHAR
STARTCHAR uni04F6
ENCODING 1270
SWIDTH 600 0
DWIDTH 12 0
BBX 17 23 0 -7
BITMAP
016BFFFFC0
0BFFFFFF80
2F9BD00000
3D0FC00000
7C0F800000
3D1F800000
291F400000
002F400000
002F000000
003F000000
003E000000
007E000000
007D000000
00BD000000
00BE800000
00BFC00000
007F800000
02FB800000
0BCB400000
1F4F400000
1F6E000000
1FFD000000
0BE4000000
ENDCHAR
STARTCHAR uni04F7
ENCODING 1271
SWIDTH 441 0
DWIDTH 9 0
BBX 11 15 0 -6
BITMAP
1BF800
2FFD00
147D00
01B800
0BD000
2E0004
7D0578
3FFFF4
1FFF80
01FD00
07BC00
1E3C00
2DB400
2FE000
0B8000
ENDCHAR
STARTCHAR uni04F8
ENCODING 1272
SWIDTH 1078 0
DWIDTH 22 0
BBX 21 21 0 0
BITMAP
00001F4B4000
00002F5F8000
00001F0F4000
000000000000
000000000000
00B400000B80
01F800000FC0
01F400000F80
02F000001F80
03E000001F40
07EBFE402F40
07FFFFD02F00
7FE41BF03F00
7FC003F03E00
0BC002F47E00
0BC002F07D00
0BC003E0BD00
0BC00BD0BC00
07E46F80FC00
02FFFE00FC00
006FE400B400
ENDCHAR
STARTCHAR uni04F9
ENCODING 1273
SWIDTH 702 0
DWIDTH 14 0
BBX 16 13 1 0
BITMAP
00B87800
00FCBC00
00B4B800
00000000
2D000B40
7D001F40
BDB83F00
BFFEBE00
FD2FFE05
F81FFE1E
BD6F7E7D
7FFD2FF4
1BE00B90
ENDCHAR
STARTCHAR uni04FA
ENCODING 1274
SWIDTH 635 0
DWIDTH 13 0
BBX 19 23 -2 -7
BITMAP
001AFFFFFC
00BFFFFFF8
02F9BD0000
07D0FC0000
07C0F80000
03D1F80000
0142F40000
002FFF8000
003FFF8000
0003F00000
0003E00000
0007E00000
0007D00000
000BD00000
000BC00000
000FC00000
000F800000
001F400000
002F000000
183E000000
7DBD000000
3FF8000000
1FD0000000
ENDCHAR
STARTCHAR uni04FB
ENCODING 1275
SWIDTH 441 0
DWIDTH 9 0
BBX 11 15 0 -6
BITMAP
1BF800
2FFD00
147D00
11BC00
7FE000
3FF004
7D0578
3FFFF4
1FFF80
01FD00
07BC00
1E3C00
2DB400
2FE000
0B8000
ENDCHAR
STARTCHAR uni04FC
ENCODING 1276
SWIDTH 716 0
DWIDTH 14 0
BBX 17 22 0 -6
BITMAP
07F8007D00
2FFE01FC00
B87F07F400
901F8FD000
000FFF4000
000BFD0000
0007F40000
000BE00000
002FF00000
007FF40000
01F9F80000
07F0FC0000
1FC0BD0040
7F407F9B80
FD002FFE40
F4000BF400
00006FD000
0001FBD000
0007D7C000
000B8B8000
000BFF0000
0002F80000
ENDCHAR
STARTCHAR uni04FD
ENCODING 1277
SWIDTH 601 0
DWIDTH 12 0
BBX 14 15 0 -6
BITMAP
0BE1F800
1FFFF800
1E7F7400
007E0000
147D0000
78BD0010
B8FE05F0
7FFFFFD0
2F5BFE40
0002F800
001FB400
003CB000
0075E000
007FC000
002E4000
ENDCHAR
STARTCHAR uni04FE
ENCODING 1278
SWIDTH 712 0
DWIDTH 14 0
BBX 18 16 -1 0
BITMAP
01BD001F40
0BFF807F00
2E1FC0FD00
2407D2F400
0003EBE000
0002FF8000
0002FE0000
00BFFFF000
00BFFFE000
000BFC0000
002FBD0000
00BD3E0000
02F42F0060
0BE01F82E0
2F800BFF80
7E0002F900
ENDCHAR
STARTCHAR uni04FF
ENCODING 1279
SWIDTH 529 0
DWIDTH 11 0
BBX 13 9 0 0
BITMAP
0BE1F800
1FFFF800
1E7E7400
01FFC000
29FF8080
78BD02C0
B9FE5B80
7FFFFE00
2F4BF400
ENDCHAR
STARTCHAR uni0510
ENCODING 1296
SWIDTH 706 0
DWIDTH 14 0
BBX 13 16 1 0
BITMAP
006FE400
02FFFE00
0BE07F40
0F801F40
0F801F00
0BC00900
07E00000
07FF8000
2F6FC000
BD000000
FC000B40
FC001F40
BD002F40
7F81BF00
2FFFFC00
06FF9000
ENDCHAR
STARTCHAR uni0511
ENCODING 1297
SWIDTH 392 0
DWIDTH 8 0
BBX 10 9 0 0
BITMAP
07F800
1FFD00
2E1400
1FD000
2FD010
7D00B0
BD07E0
7FFF80
1BF900
ENDCHAR
STARTCHAR uni0512
ENCODING 1298
SWIDTH 884 0
DWIDTH 18 0
BBX 21 22 0 -6
BITMAP
000002F00000
000007F40000
00000BF40000
00000FF00000
00001FF00000
00002FF00000
00003FF00000
00007EF00000
0000BAF00000
0001F6F00000
0002F2F00000
1007D1F40000
B40FC1F80100
BD7F40FE9B40
7FFD00BFFE00
1BE4001FE000
000000BFC000
000007FB8000
00000F8B4000
00001F5F0000
00000FFE0000
000007F40000
ENDCHAR
STARTCHAR uni0513
ENCODING 1299
SWIDTH 631 0
DWIDTH 13 0
BBX 15 15 0 -6
BITMAP
000B8000
001FD000
002FC000
003FC000
14BBC000
B4F7C000
F6E7C478
BFC3FFF4
7E02FF80
0001BD00
0007BC00
001D7800
002CF400
003FE000
001F8000
ENDCHAR
STARTCHAR uni051A
ENCODING 1306
SWIDTH 816 0
DWIDTH 16 0
BBX 17 22 1 -6
BITMAP
001BF90000
00BFFF8000
07F91BE000
0FD002F400
2F4001F800
3F0000FC00
7E0000FC00
BD0000FC00
BD0000F800
BD0001F800
BD0002F400
7E0007E000
7F000FD000
2FD5BF4000
0BFFFD0000
01BFE00000
000BE00000
0003F40000
0001FC0280
0000FE0B40
00007FFE00
00001BF400
ENDCHAR
STARTCHAR uni051B
ENCODING 1307
SWIDTH 500 0
DWIDTH 10 0
BBX 13 18 0 -8
BITMAP
0002D000
01BFD000
07FFC000
1F9B8000
2F0F8000
3D1F4000
7D2F7F80
7D7EBF40
3FFEB000
1BBD7000
007D7000
007CB000
007CB000
007CA000
007CE000
007ED000
003FC000
001F4000
ENDCHAR
STARTCHAR uni051C
ENCODING 1308
SWIDTH 1217 0
DWIDTH 24 0
BBX 25 16 2 0
BITMAP
2E0007C00BE000
3F000BD02FF800
3E000FC07DBC00
7E000FC078BC00
7D001F80B4B800
7D002F8078B800
BD003F803DF400
BD007F802FF400
BD00BF800BFFC0
BD00FF8007EFC0
7D01FB800F8000
7E03DBC02F0000
3F0BC7D0BD0000
2FBF43FBF40000
1FFD02FFD00000
07E400BE400000
ENDCHAR
STARTCHAR uni051D
ENCODING 1309
SWIDTH 700 0
DWIDTH 14 0
BBX 16 9 1 0
BITMAP
B42D0B40
F43D2F80
F4BD2F84
F4FE2FFE
F9FE3FF9
FBEEB800
BFAFF000
BF5FD000
2D0B4000
ENDCHAR
STARTCHAR uni0524
ENCODING 1316
SWIDTH 892 0
DWIDTH 18 0
BBX 21 22 0 -6
BITMAP
006AFFFFA900
0BFFFFFFFF40
2F9BD00FD500
7D0BD00F8000
7C0FC01F8000
3D0F801F4000
181F802F0000
001F403F0000
002F403E0000
002F007D0000
003F007D0000
003E00BC0000
007E00BD0100
007D007FDB40
00BD002FFE00
007C000BE400
0000007FC000
000002FB8000
00000B8B8000
00000F5F0000
00000FFE0000
000007F80000
ENDCHAR
STARTCHAR uni0525
ENCODING 1317
SWIDTH 536 0
DWIDTH 11 0
BBX 12 15 1 -6
BITMAP
2C2F00
7CBF40
BAFF00
BBAF00
FF2E00
FD3D01
FC3E5E
F82FFD
740FE0
007F40
01EF00
079E00
0B6D00
0BF800
07E000
ENDCHAR
STARTCHAR uni0526
ENCODING 1318
SWIDTH 818 0
DWIDTH 16 0
BBX 18 22 1 -6
BITMAP
02E0000000
03E0000000
07E0000000
07D0000000
0BD0000000
0FC0000000
0F80000000
1F86F90000
1F6FFF4000
2FF82F8000
2FD00F8000
3F400F8000
3F001F8000
7E001FF9E0
7E001FFFD0
7D000FFE00
000007F400
00007EF400
0001F5F000
0002F2E000
0002FFC000
0000BE4000
ENDCHAR
STARTCHAR uni0527
ENCODING 1319
SWIDTH 542 0
DWIDTH 11 0
BBX 12 24 1 -6
BITMAP
00B800
03FD00
0B9E00
0F1E00
1E2D00
2D3C00
3D7400
7CF000
7ED000
BF5F00
BEBF40
B9FF40
FB9F00
FF2E00
FE2E01
FD3E5F
FC2FFD
B40FE0
007F40
01EF00
078F00
0B6D00
0BF800
02E000
ENDCHAR
STARTCHAR uni0528
ENCODING 1320
SWIDTH 873 0
DWIDTH 17 0
BBX 23 23 -3 -6
BITMAP
000000000BD0
001BE0002FE0
00BFF4007DB0
02E5F800F4B0
0780F801F0F0
0200F802E1E0
0000F803E2C0
0000F807EF40
0001F40BF900
002FFFFFD000
003FFFAFC000
0003F00BC000
0003E00BC000
0007D00BD01C
000BD007E0BC
000FC002FFF0
000F8000BF40
001F80000000
002F40000000
143F00000000
7DBD00000000
3FF800000000
1FE000000000
ENDCHAR
STARTCHAR uni0529
ENCODING 1321
SWIDTH 475 0
DWIDTH 10 0
BBX 14 15 -2 -6
BITMAP
00B03C00
01F07C00
02E0B800
02FFF400
03FFF420
03D1F0B0
03D1F6E0
03D0FF80
03D0BD00
02D00000
02D00000
53D00000
F3D00000
FFC00000
7E400000
ENDCHAR
STARTCHAR uni052E
ENCODING 1326
SWIDTH 884 0
DWIDTH 18 0
BBX 21 22 0 -6
BITMAP
000002F00000
000007F40000
00000BF40000
00000FF00000
00001FF00000
00002FF00000
00003FF00000
00007EF00000
0000BAF00000
0001F6F00000
0002F2F00000
1007D1F40000
B40FC1F80100
BD7F40FE9B40
7FFD00BFFE00
1BE4001FE000
000000BFC000
000007FB8000
00000F8B4000
00001F5F0000
00000FFE0000
000007F40000
ENDCHAR
STARTCHAR uni052F
ENCODING 1327
SWIDTH 631 0
DWIDTH 13 0
BBX 15 15 0 -6
BITMAP
000B8000
001FD000
002FC000
003FC000
14BBC000
B4F7C000
F6E7C478
BFC3FFF4
7E02FF80
0001BD00
0007BC00
001D7800
002CF400
003FE000
001F8000
ENDCHAR
STARTCHAR Wgrave
ENCODING 7808
SWIDTH 1217 0
DWIDTH 24 0
BBX 25 23 2 0
BITMAP
00014000000000
0007E000000000
0003F800000000
00007F40000000
00000740000000
00000000000000
00000000000000
2E0007C00BE000
3F000BD02FF800
3E000FC07DBC00
7E000FC078BC00
7D001F80B4B800
7D002F8078B800
BD003F803DF400
BD007F802FF400
BD00BF800BFFC0
BD00FF8007EFC0
7D01FB800F8000
7E03DBC02F0000
3F0BC7D0BD0000
2FBF43FBF40000
1FFD02FFD00000
07E400BE400000
ENDCHAR
STARTCHAR wgrave
ENCODING 7809
SWIDTH 700 0
DWIDTH 14 0
BBX 16 16 1 0
BITMAP
02D00000
03E00000
01F00000
00B80000
003C0000
001D0000
00000000
B42D0B40
F43D2F80
F4BD2F84
F4FE2FFE
F9FE3FF9
FBEEB800
BFAFF000
BF5FD000
2D0B4000
ENDCHAR
STARTCHAR Wacute
ENCODING 7810
SWIDTH 1217 0
DWIDTH 24 0
BBX 25 23 2 0
BITMAP
00000001400000
0000000BD00000
0000002FC00000
000001FD000000
000001D0000000
00000000000000
00000000000000
2E0007C00BE000
3F000BD02FF800
3E000FC07DBC00
7E000FC078BC00
7D001F80B4B800
7D002F8078B800
BD003F803DF400
BD007F802FF400
BD00BF800BFFC0
BD00FF8007EFC0
7D01FB800F8000
7E03DBC02F0000
3F0BC7D0BD0000
2FBF43FBF40000
1FFD02FFD00000
07E400BE400000
ENDCHAR
STARTCHAR wacute
ENCODING 7811
SWIDTH 700 0
DWIDTH 14 0
BBX 16 16 1 0
BITMAP
0000B000
0001F400
0003E000
0007C000
000B4000
000D0000
00000000
B42D0B40
F43D2F80
F4BD2F84
F4FE2FFE
F9FE3FF9
FBEEB800
BFAFF000
BF5FD000
2D0B4000
ENDCHAR
STARTCHAR Wdieresis
ENCODING 7812
SWIDTH 1217 0
DWIDTH 24 0
BBX 25 21 2 0
BITMAP
00002D2E000000
00007E3F000000
00002D2D000000
00000000000000
00000000000000
2E0007C00BE000
3F000BD02FF800
3E000FC07DBC00
7E000FC078BC00
7D001F80B4B800
7D002F8078B800
BD003F803DF400
BD007F802FF400
BD00BF800BFFC0
BD00FF8007EFC0
7D01FB800F8000
7E03DBC02F0000
3F0BC7D0BD0000
2FBF43FBF40000
1FFD02FFD00000
07E400BE400000
ENDCHAR
STARTCHAR wdieresis
ENCODING 7813
SWIDTH 700 0
DWIDTH 14 0
BBX 16 13 1 0
BITMAP
01E1F000
02F2F400
01E1E000
00000000
B42D0B40
F43D2F80
F4BD2F84
F4FE2FFE
F9FE3FF9
FBEEB800
BFAFF000
BF5FD000
2D0B4000
ENDCHAR
STARTCHAR uni1E9E
ENCODING 7838
SWIDTH 843 0
DWIDTH 17 0
BBX 16 17 1 -1
BITMAP
02D06FE0
07D2FFF8
0BDB91FC
0BDE00BD
0FB800FC
0FF406F4
1FE06F80
1FD2FE00
2FC1BFE0
2F8006F4
3F4001F8
3F0000F8
3F0001F8
7E0007F4
7D002FD0
3C06FF40
0007E400
ENDCHAR
STARTCHAR uni1EA0
ENCODING 7840
SWIDTH 786 0
DWIDTH 16 0
BBX 18 20 1 -4
BITMAP
0001BFE900
002FFFFE00
01FF956900
07F4029000
0FD007E000
2F8007D000
3F000BC000
7E000FC000
BD001F8000
BC002F4000
FC003F4000
BD007F4000
BE00FF41D0
7F97EF9BC0
1FFF4FFF40
06F906F800
0000000000
002E000000
007F000000
007E000000
ENDCHAR
STARTCHAR uni1EA1
ENCODING 7841
SWIDTH 470 0
DWIDTH 9 0
BBX 12 13 0 -4
BITMAP
01B800
07FF80
1F9F80
2F0F40
3D1F40
7D2F0B
7D7F6E
3FFFF8
1B87E0
000000
07D000
0FE000
0B8000
ENDCHAR
STARTCHAR uni1EA2
ENCODING 7842
SWIDTH 786 0
DWIDTH 16 0
BBX 18 23 1 0
BITMAP
00001F9000
00002FF000
000001F000
00000FE000
00000F8000
0000000000
0000000000
0001BFE900
002FFFFE00
01FF956900
07F4029000
0FD007E000
2F8007D000
3F000BC000
7E000FC000
BD001F8000
BC002F4000
FC003F4000
BD007F4000
BE00FF41D0
7F97EF9BC0
1FFF4FFF40
06F906F800
ENDCHAR
STARTCHAR uni1EA3
ENCODING 7843
SWIDTH 470 0
DWIDTH 9 0
BBX 12 16 0 0
BITMAP
007F40
007FC0
0002C0
0007C0
002F80
002E00
000000
01B800
07FF80
1F9F80
2F0F40
3D1F40
7D2F0B
7D7F6E
3FFFF8
1B87E0
ENDCHAR
STARTCHAR uni1EA4
ENCODING 7844
SWIDTH 786 0
DWIDTH 16 0
BBX 18 29 1 0
BITMAP
0000000140
0000000BC0
0000007F80
000001F900
0000029000
0000000000
00000B8000
00002FD000
000079F000
0001F4F400
0001E07400
0000000000
0000000000
0001BFE900
002FFFFE00
01FF956900
07F4029000
0FD007E000
2F8007D000
3F000BC000
7E000FC000
BD001F8000
BC002F4000
FC003F4000
BD007F4000
BE00FF41D0
7F97EF9BC0
1FFF4FFF40
06F906F800
ENDCHAR
STARTCHAR uni1EA5
ENCODING 7845
SWIDTH 470 0
DWIDTH 9 0
BBX 13 17 0 0
BITMAP
00000100
00001F40
00003E00
002F5000
00BF8000
02E3D000
0381D000
00000000
01B80000
07FF8000
1F9F8000
2F0F4000
3D1F4000
7D2F0B00
7D7F6E00
3FFFF800
1B87E000
ENDCHAR
STARTCHAR uni1EA6
ENCODING 7846
SWIDTH 786 0
DWIDTH 16 0
BBX 18 29 1 0
BITMAP
0001400000
000BD00000
0007F80000
0000BE0000
00000B4000
0000000000
00000B8000
00002FD000
000079F000
0001F4F400
0001E07400
0000000000
0000000000
0001BFE900
002FFFFE00
01FF956900
07F4029000
0FD007E000
2F8007D000
3F000BC000
7E000FC000
BD001F8000
BC002F4000
FC003F4000
BD007F4000
BE00FF41D0
7F97EF9BC0
1FFF4FFF40
06F906F800
ENDCHAR
STARTCHAR uni1EA7
ENCODING 7847
SWIDTH 470 0
DWIDTH 9 0
BBX 12 17 0 0
BITMAP
140000
3E0000
1F8000
016F40
00BF80
02E3D0
0381D0
000000
01B800
07FF80
1F9F80
2F0F40
3D1F40
7D2F0B
7D7F6E
3FFFF8
1B87E0
ENDCHAR
STARTCHAR uni1EA8
ENCODING 7848
SWIDTH 786 0
DWIDTH 16 0
BBX 18 29 1 0
BITMAP
00000BE000
00000FF800
0000007800
000003F400
000003E000
0000000000
00000B8000
00002FD000
000079F000
0001F4F400
0001E07400
0000000000
0000000000
0001BFE900
002FFFFE00
01FF956900
07F4029000
0FD007E000
2F8007D000
3F000BC000
7E000FC000
BD001F8000
BC002F4000
FC003F4000
BD007F4000
BE00FF41D0
7F97EF9BC0
1FFF4FFF40
06F906F800
ENDCHAR
STARTCHAR uni1EA9
ENCODING 7849
SWIDTH 470 0
DWIDTH 9 0
BBX 13 16 0 0
BITMAP
00007E00
00000780
00000740
002F6E00
01FBD000
03D2D000
00000000
01B80000
07FF8000
1F9F8000
2F0F4000
3D1F4000
7D2F0B00
7D7F6E00
3FFFF800
1B87E000
ENDCHAR
STARTCHAR uni1EAA
ENCODING 7850
SWIDTH 786 0
DWIDTH 16 0
BBX 18 28 1 0
BITMAP
00002E0100
0000BFDB40
0001F6FF00
0000407D00
0000000000
00000B8000
00002FD000
000079F000
0001F4F400
0001E07400
0000000000
0000000000
0001BFE900
002FFFFE00
01FF956900
07F4029000
0FD007E000
2F8007D000
3F000BC000
7E000FC000
BD001F8000
BC002F4000
FC003F4000
BD007F4000
BE00FF41D0
7F97EF9BC0
1FFF4FFF40
06F906F800
ENDCHAR
STARTCHAR uni1EAB
ENCODING 7851
SWIDTH 470 0
DWIDTH 9 0
BBX 12 17 0 0
BITMAP
00B828
02EFB4
028290
002A00
00BF80
02E3D0
0381D0
000000
01B800
07FF80
1F9F80
2F0F40
3D1F40
7D2F0B
7D7F6E
3FFFF8
1B87E0
ENDCHAR
STARTCHAR uni1EAC
ENCODING 7852
SWIDTH 786 0
DWIDTH 16 0
BBX 18 27 1 -4
BITMAP
00000B8000
00002FD000
000079F000
0001F4F400
0001E07400
0000000000
0000000000
0001BFE900
002FFFFE00
01FF956900
07F4029000
0FD007E000
2F8007D000
3F000BC000
7E000FC000
BD001F8000
BC002F4000
FC003F4000
BD007F4000
BE00FF41D0
7F97EF9BC0
1FFF4FFF40
06F906F800
0000000000
002E000000
007F000000
007E000000
ENDCHAR
STARTCHAR uni1EAD
ENCODING 7853
SWIDTH 470 0
DWIDTH 9 0
BBX 12 21 0 -4
BITMAP
000500
002F40
007F80
00B7C0
01F3D0
03D2D0
0381D0
000000
01B800
07FF80
1F9F80
2F0F40
3D1F40
7D2F0B
7D7F6E
3FFFF8
1B87E0
000000
07D000
0FE000
0B8000
ENDCHAR
STARTCHAR uni1EAE
ENCODING 7854
SWIDTH 786 0
DWIDTH 16 0
BBX 18 24 1 0
BITMAP
000000B400
000002F400
0001425400
0003E07D00
0001FFF800
00007FE000
0000000000
0000000000
0001BFE900
002FFFFE00
01FF956900
07F4029000
0FD007E000
2F8007D000
3F000BC000
7E000FC000
BD001F8000
BC002F4000
FC003F4000
BD007F4000
BE00FF41D0
7F97EF9BC0
1FFF4FFF40
06F906F800
ENDCHAR
STARTCHAR uni1EAF
ENCODING 7855
SWIDTH 470 0
DWIDTH 9 0
BBX 12 16 0 0
BITMAP
0001D0
000BD0
050914
0B81B8
07FFF0
01BF80
000000
01B800
07FF80
1F9F80
2F0F40
3D1F40
7D2F0B
7D7F6E
3FFFF8
1B87E0
ENDCHAR
STARTCHAR uni1EB0
ENCODING 7856
SWIDTH 786 0
DWIDTH 16 0
BBX 18 24 1 0
BITMAP
0000780000
00007E0000
0001460400
0003E03D00
0001FFF800
00006FD000
0000000000
0000000000
0001BFE900
002FFFFE00
01FF956900
07F4029000
0FD007E000
2F8007D000
3F000BC000
7E000FC000
BD001F8000
BC002F4000
FC003F4000
BD007F4000
BE00FF41D0
7F97EF9BC0
1FFF4FFF40
06F906F800
ENDCHAR
STARTCHAR uni1EB1
ENCODING 7857
SWIDTH 470 0
DWIDTH 9 0
BBX 12 16 0 0
BITMAP
00E000
00F800
011910
0B80B8
07FFF0
01BF80
000000
01B800
07FF80
1F9F80
2F0F40
3D1F40
7D2F0B
7D7F6E
3FFFF8
1B87E0
ENDCHAR
STARTCHAR uni1EB2
ENCODING 7858
SWIDTH 786 0
DWIDTH 16 0
BBX 18 25 1 0
BITMAP
00001F8000
000005D000
000001D000
00000B8000
0002E57D00
0002FFFC00
00006FE000
0000000000
0000000000
0001BFE900
002FFFFE00
01FF956900
07F4029000
0FD007E000
2F8007D000
3F000BC000
7E000FC000
BD001F8000
BC002F4000
FC003F4000
BD007F4000
BE00FF41D0
7F97EF9BC0
1FFF4FFF40
06F906F800
ENDCHAR
STARTCHAR uni1EB3
ENCODING 7859
SWIDTH 470 0
DWIDTH 9 0
BBX 12 17 0 0
BITMAP
007E00
001780
000380
002F00
0B95B8
07FFF4
01BF80
000000
01B800
07FF80
1F9F80
2F0F40
3D1F40
7D2F0B
7D7F6E
3FFFF8
1B87E0
ENDCHAR
STARTCHAR uni1EB4
ENCODING 7860
SWIDTH 786 0
DWIDTH 16 0
BBX 18 26 1 0
BITMAP
0000140000
00007E0E00
0000FBED00
0001D1B400
0001400400
0003E03D00
0001FFF800
00006F9000
0000000000
0000000000
0001BFE900
002FFFFE00
01FF956900
07F4029000
0FD007E000
2F8007D000
3F000BC000
7E000FC000
BD001F8000
BC002F4000
FC003F4000
BD007F4000
BE00FF41D0
7F97EF9BC0
1FFF4FFF40
06F906F800
ENDCHAR
STARTCHAR uni1EB5
ENCODING 7861
SWIDTH 470 0
DWIDTH 9 0
BBX 12 18 0 0
BITMAP
005000
01FD28
03EFB4
0386E0
010010
0B80B8
07FFF0
01BF80
000000
01B800
07FF80
1F9F80
2F0F40
3D1F40
7D2F0B
7D7F6E
3FFFF8
1B87E0
ENDCHAR
STARTCHAR uni1EB6
ENCODING 7862
SWIDTH 786 0
DWIDTH 16 0
BBX 18 26 1 -4
BITMAP
0001400400
0003E47D00
0001FFF800
00006F9000
0000000000
0000000000
0001BFE900
002FFFFE00
01FF956900
07F4029000
0FD007E000
2F8007D000
3F000BC000
7E000FC000
BD001F8000
BC002F4000
FC003F4000
BD007F4000
BE00FF41D0
7F97EF9BC0
1FFF4FFF40
06F906F800
0000000000
002E000000
007F000000
007E000000
ENDCHAR
STARTCHAR uni1EB7
ENCODING 7863
SWIDTH 470 0
DWIDTH 9 0
BBX 12 19 0 -4
BITMAP
010010
0B80B8
07D1F4
03FFE0
00BE40
000000
01B800
07FF80
1F9F80
2F0F40
3D1F40
7D2F0B
7D7F6E
3FFFF8
1B87E0
000000
07D000
0FE000
0B8000
ENDCHAR
STARTCHAR uni1EB8
ENCODING 7864
SWIDTH 686 0
DWIDTH 14 0
BBX 16 20 0 -4
BITMAP
001BFE40
00BFFFE0
03F947F0
07E001F4
07E002F0
03F40050
00BFD000
02FFD000
1FE40000
3F400000
7E000000
7E000000
7F000006
2FD405BF
0BFFFFFD
01AFFE90
00000000
001F4000
002F8000
001F4000
ENDCHAR
STARTCHAR uni1EB9
ENCODING 7865
SWIDTH 393 0
DWIDTH 8 0
BBX 11 13 0 -4
BITMAP
02F800
0FFE00
2F6E00
3D2D00
7DB800
7F9074
3E46F4
2FFFD0
06F900
000000
02E000
07F000
07E000
ENDCHAR
STARTCHAR uni1EBA
ENCODING 7866
SWIDTH 686 0
DWIDTH 14 0
BBX 16 23 0 0
BITMAP
0000BE00
0001FF40
00001B40
00007F40
00007D00
00000000
00000000
001BFE40
00BFFFE0
03F947F0
07E001F4
07E002F0
03F40050
00BFD000
02FFD000
1FE40000
3F400000
7E000000
7E000000
7F000006
2FD405BF
0BFFFFFD
01AFFE90
ENDCHAR
STARTCHAR uni1EBB
ENCODING 7867
SWIDTH 393 0
DWIDTH 8 0
BBX 11 16 0 0
BITMAP
01FD00
01FF00
000B40
000B40
00BE00
00B800
000000
02F800
0FFE00
2F6E00
3D2D00
7DB800
7F9074
3E46F4
2FFFD0
06F900
ENDCHAR
STARTCHAR uni1EBC
ENCODING 7868
SWIDTH 686 0
DWIDTH 14 0
BBX 16 22 0 0
BITMAP
0007D050
000FF9F0
002E7FE0
00140B80
00000000
00000000
001BFE40
00BFFFE0
03F947F0
07E001F4
07E002F0
03F40050
00BFD000
02FFD000
1FE40000
3F400000
7E000000
7E000000
7F000006
2FD405BF
0BFFFFFD
01AFFE90
ENDCHAR
STARTCHAR uni1EBD
ENCODING 7869
SWIDTH 393 0
DWIDTH 8 0
BBX 11 14 0 0
BITMAP
079050
1FF9F0
2D7FD0
140B80
000000
02F800
0FFE00
2F6E00
3D2D00
7DB800
7F9074
3E46F4
2FFFD0
06F900
ENDCHAR
STARTCHAR uni1EBE
ENCODING 7870
SWIDTH 686 0
DWIDTH 14 0
BBX 16 25 0 0
BITMAP
00000004
0000002E
000000BD
00007D50
0001FF00
0007DB80
000B4780
00000000
00000000
001BFE40
00BFFFE0
03F947F0
07E001F4
07E002F0
03F40050
00BFD000
02FFD000
1FE40000
3F400000
7E000000
7E000000
7F000006
2FD405BF
0BFFFFFD
01AFFE90
ENDCHAR
STARTCHAR uni1EBF
ENCODING 7871
SWIDTH 393 0
DWIDTH 8 0
BBX 12 17 0 0
BITMAP
000004
00003E
0000F8
007D50
02FF00
07CF40
0F4740
000000
02F800
0FFE00
2F6E00
3D2D00
7DB800
7F9074
3E46F4
2FFFD0
06F900
ENDCHAR
STARTCHAR uni1EC0
ENCODING 7872
SWIDTH 686 0
DWIDTH 14 0
BBX 16 25 0 0
BITMAP
00100000
00B80000
006E0000
00057D00
0001FF00
0007DB80
000B4780
00000000
00000000
001BFE40
00BFFFE0
03F947F0
07E001F4
07E002F0
03F40050
00BFD000
02FFD000
1FE40000
3F400000
7E000000
7E000000
7F000006
2FD405BF
0BFFFFFD
01AFFE90
ENDCHAR
STARTCHAR uni1EC1
ENCODING 7873
SWIDTH 393 0
DWIDTH 8 0
BBX 11 17 0 0
BITMAP
500000
B80000
7E0000
057D00
02FF00
07CF40
0F4740
000000
02F800
0FFE00
2F6E00
3D2D00
7DB800
7F9074
3E46F4
2FFFD0
06F900
ENDCHAR
STARTCHAR uni1EC2
ENCODING 7874
SWIDTH 686 0
DWIDTH 14 0
BBX 16 24 0 0
BITMAP
000000FD
0000001E
0000000E
0000BD7D
0002EF40
000B8780
00000000
00000000
001BFE40
00BFFFE0
03F947F0
07E001F4
07E002F0
03F40050
00BFD000
02FFD000
1FE40000
3F400000
7E000000
7E000000
7F000006
2FD405BF
0BFFFFFD
01AFFE90
ENDCHAR
STARTCHAR uni1EC3
ENCODING 7875
SWIDTH 393 0
DWIDTH 8 0
BBX 12 16 0 0
BITMAP
0000F9
00001E
00000E
00BDBC
03EF40
0F4780
000000
02F800
0FFE00
2F6E00
3D2D00
7DB800
7F9074
3E46F4
2FFFD0
06F900
ENDCHAR
STARTCHAR uni1EC4
ENCODING 7876
SWIDTH 686 0
DWIDTH 14 0
BBX 16 25 0 0
BITMAP
0001E4A0
0007BEE0
00060680
00006D00
0001FF00
0007DB80
000B4780
00000000
00000000
001BFE40
00BFFFE0
03F947F0
07E001F4
07E002F0
03F40050
00BFD000
02FFD000
1FE40000
3F400000
7E000000
7E000000
7F000006
2FD405BF
0BFFFFFD
01AFFE90
ENDCHAR
STARTCHAR uni1EC5
ENCODING 7877
SWIDTH 393 0
DWIDTH 8 0
BBX 11 17 0 0
BITMAP
02E0A0
07BED0
060640
006D00
02FF00
07CB40
0F4780
000000
02F800
0FFE00
2F6E00
3D2D00
7DB800
7F9074
3E46F4
2FFFD0
06F900
ENDCHAR
STARTCHAR uni1EC6
ENCODING 7878
SWIDTH 686 0
DWIDTH 14 0
BBX 16 27 0 -4
BITMAP
00007D00
0001FF00
0003DB40
000B8780
000B0380
00000000
00000000
001BFE40
00BFFFE0
03F947F0
07E001F4
07E002F0
03F40050
00BFD000
02FFD000
1FE40000
3F400000
7E000000
7E000000
7F000006
2FD405BF
0BFFFFFD
01AFFE90
00000000
001F4000
002F8000
001F4000
ENDCHAR
STARTCHAR uni1EC7
ENCODING 7879
SWIDTH 393 0
DWIDTH 8 0
BBX 11 21 0 -4
BITMAP
001400
007E00
00FF00
02EF00
07CB40
0B4B80
0E0740
000000
02F800
0FFE00
2F6E00
3D2D00
7DB800
7F9074
3E46F4
2FFFD0
06F900
000000
02E000
07F000
07E000
ENDCHAR
STARTCHAR uni1EC8
ENCODING 7880
SWIDTH 495 0
DWIDTH 10 0
BBX 12 23 -1 0
BITMAP
0007E4
000BF8
00007C
0003F8
0003E0
000000
000000
02FFFE
03FFFE
001F80
001F80
001F40
002F40
002F00
003F00
003E00
007E00
007D00
00BD00
00BC00
00FC00
2FFFE0
7FFFE0
ENDCHAR
STARTCHAR uni1EC9
ENCODING 7881
SWIDTH 246 0
DWIDTH 5 0
BBX 7 16 1 0
BITMAP
7F40
7FC0
02D0
02D0
2F80
2E00
0000
3C00
7C00
BC00
B800
F800
F474
F9F4
BFD0
2E40
ENDCHAR
STARTCHAR uni1ECA
ENCODING 7882
SWIDTH 495 0
DWIDTH 10 0
BBX 12 20 -1 -4
BITMAP
02FFFE
03FFFE
001F80
001F80
001F40
002F40
002F00
003F00
003E00
007E00
007D00
00BD00
00BC00
00FC00
2FFFE0
7FFFE0
000000
01F400
02F800
01F400
ENDCHAR
STARTCHAR uni1ECB
ENCODING 7883
SWIDTH 246 0
DWIDTH 5 0
BBX 8 17 0 -4
BITMAP
0BD0
0FD0
0B80
0000
0F00
1F00
2F00
2E00
3E00
3D1D
3E7D
2FF4
0B90
0000
7D00
FE00
7D00
ENDCHAR
STARTCHAR uni1ECC
ENCODING 7884
SWIDTH 816 0
DWIDTH 16 0
BBX 15 20 1 -4
BITMAP
001BF900
01BFFF80
07F91BE0
0FD002F4
2F4001F8
3F0000FC
7E0000FC
BD0000FC
BD0000F8
BD0001F8
BD0002F4
7E0007E0
3F000FD0
2FD17F40
0BFFFD00
01BF9000
00000000
006E0000
00BF0000
007D0000
ENDCHAR
STARTCHAR uni1ECD
ENCODING 7885
SWIDTH 451 0
DWIDTH 9 0
BBX 12 13 0 -4
BITMAP
02F800
1FFF00
2F7F40
3D2FFE
7D0FFD
7D0F40
3E2F00
2FFD00
07E400
000000
07D000
0BE000
07D000
ENDCHAR
STARTCHAR uni1ECE
ENCODING 7886
SWIDTH 816 0
DWIDTH 16 0
BBX 15 23 1 0
BITMAP
0002F800
0003FE00
00001E00
0000FD00
0000F800
00000000
00000000
001BF900
01BFFF80
07F91BE0
0FD002F4
2F4001F8
3F0000FC
7E0000FC
BD0000FC
BD0000F8
BD0001F8
BD0002F4
7E0007E0
3F000FD0
2FD17F40
0BFFFD00
01BF9000
ENDCHAR
STARTCHAR uni1ECF
ENCODING 7887
SWIDTH 451 0
DWIDTH 9 0
BBX 12 16 0 0
BITMAP
01FD00
01FF00
000B40
000B00
00BE00
00B800
000000
02F800
1FFF00
2F7F40
3D2FFE
7D0FFD
7D0F40
3E2F00
2FFD00
07E400
ENDCHAR
STARTCHAR uni1ED0
ENCODING 7888
SWIDTH 816 0
DWIDTH 16 0
BBX 15 24 1 0
BITMAP
00000014
0000007C
000001F4
0001B940
0007FD00
000F9F00
001E0B00
00000000
001BF900
01BFFF80
07F91BE0
0FD002F4
2F4001F8
3F0000FC
7E0000FC
BD0000FC
BD0000F8
BD0001F8
BD0002F4
7E0007E0
3F000FD0
2FD17F40
0BFFFD00
01BF9000
ENDCHAR
STARTCHAR uni1ED1
ENCODING 7889
SWIDTH 451 0
DWIDTH 9 0
BBX 12 17 0 0
BITMAP
000004
00003D
0000F8
00BD40
02FF00
0BCF40
0F4740
000000
02F800
1FFF00
2F7F40
3D2FFE
7D0FFD
7D0F40
3E2F00
2FFD00
07E400
ENDCHAR
STARTCHAR uni1ED2
ENCODING 7890
SWIDTH 816 0
DWIDTH 16 0
BBX 15 24 1 0
BITMAP
00500000
01F40000
00BD0000
0005B800
0007FD00
000F9F00
001E0B00
00000000
001BF900
01BFFF80
07F91BE0
0FD002F4
2F4001F8
3F0000FC
7E0000FC
BD0000FC
BD0000F8
BD0001F8
BD0002F4
7E0007E0
3F000FD0
2FD17F40
0BFFFD00
01BF9000
ENDCHAR
STARTCHAR uni1ED3
ENCODING 7891
SWIDTH 451 0
DWIDTH 9 0
BBX 12 17 0 0
BITMAP
500000
F80000
7E0000
05BD00
02FF00
0BCF40
0F4740
000000
02F800
1FFF00
2F7F40
3D2FFE
7D0FFD
7D0F40
3E2F00
2FFD00
07E400
ENDCHAR
STARTCHAR uni1ED4
ENCODING 7892
SWIDTH 816 0
DWIDTH 16 0
BBX 15 23 1 0
BITMAP
000002F8
0000002C
0000002C
0001B9F4
0007AE00
001E0F00
00000000
001BF900
01BFFF80
07F91BE0
0FD002F4
2F4001F8
3F0000FC
7E0000FC
BD0000FC
BD0000F8
BD0001F8
BD0002F4
7E0007E0
3F000FD0
2FD17F40
0BFFFD00
01BF9000
ENDCHAR
STARTCHAR uni1ED5
ENCODING 7893
SWIDTH 451 0
DWIDTH 9 0
BBX 12 16 0 0
BITMAP
0001F8
00001E
00000E
00BDB8
03EF40
0F4B80
000000
02F800
1FFF00
2F7F40
3D2FFE
7D0FFD
7D0F40
3E2F00
2FFD00
07E400
ENDCHAR
STARTCHAR uni1ED6
ENCODING 7894
SWIDTH 816 0
DWIDTH 16 0
BBX 15 24 1 0
BITMAP
0007D1D0
000FBBC0
00091A00
0000B800
0003FD00
000F5F00
001E0B00
00000000
001BF900
01BFFF80
07F91BE0
0FD002F4
2F4001F8
3F0000FC
7E0000FC
BD0000FC
BD0000F8
BD0001F8
BD0002F4
7E0007E0
3F000FD0
2FD17F40
0BFFFD00
01BF9000
ENDCHAR
STARTCHAR uni1ED7
ENCODING 7895
SWIDTH 451 0
DWIDTH 9 0
BBX 12 17 0 0
BITMAP
02E0A0
07BED0
060A40
006900
02FF00
0BCF40
0F0740
000000
02F800
1FFF00
2F7F40
3D2FFE
7D0FFD
7D0F40
3E2F00
2FFD00
07E400
ENDCHAR
STARTCHAR uni1ED8
ENCODING 7896
SWIDTH 816 0
DWIDTH 16 0
BBX 15 27 1 -4
BITMAP
0000B800
0003FD00
000B9E00
001F0F00
001D0B00
00000000
00000000
001BF900
01BFFF80
07F91BE0
0FD002F4
2F4001F8
3F0000FC
7E0000FC
BD0000FC
BD0000F8
BD0001F8
BD0002F4
7E0007E0
3F000FD0
2FD17F40
0BFFFD00
01BF9000
00000000
006E0000
00BF0000
007D0000
ENDCHAR
STARTCHAR uni1ED9
ENCODING 7897
SWIDTH 451 0
DWIDTH 9 0
BBX 12 21 0 -4
BITMAP
001400
007D00
00FE00
02DF00
07CB40
0F4B80
0E0740
000000
02F800
1FFF00
2F7F40
3D2FFE
7D0FFD
7D0F40
3E2F00
2FFD00
07E400
000000
07D000
0BE000
07D000
ENDCHAR
STARTCHAR uni1EDA
ENCODING 7898
SWIDTH 816 0
DWIDTH 16 0
BBX 16 23 1 0
BITMAP
00000050
000002F0
00001FE0
00007E45
0000A40F
0000001F
0000003F
001BFFFD
01BFFFF4
07F91BF0
0FD002F4
2F4001F8
3F0000FC
7E0000FC
BD0000FC
BD0000F8
BD0001F8
BD0002F4
7E0007E0
3F000FC0
2FD17F40
0BFFFD00
01BF9000
ENDCHAR
STARTCHAR uni1EDB
ENCODING 7899
SWIDTH 451 0
DWIDTH 9 0
BBX 12 16 0 0
BITMAP
000B40
001F40
002F00
003D00
00B450
00A0F0
0001F0
02FFD0
1FFF40
2F7F40
3D2FFE
7D0FFD
7D0F40
3E2F00
2FFD00
07E400
ENDCHAR
STARTCHAR uni1EDC
ENCODING 7900
SWIDTH 816 0
DWIDTH 16 0
BBX 16 23 1 0
BITMAP
00500000
02F40000
01FE0000
002F8005
0002D00F
0000001F
0000003F
001BFFFD
01BFFFF4
07F91BF0
0FD002F4
2F4001F8
3F0000FC
7E0000FC
BD0000FC
BD0000F8
BD0001F8
BD0002F4
7E0007E0
3F000FC0
2FD17F40
0BFFFD00
01BF9000
ENDCHAR
STARTCHAR uni1EDD
ENCODING 7901
SWIDTH 451 0
DWIDTH 9 0
BBX 12 16 0 0
BITMAP
1D0000
2F0000
1F4000
07C000
02D050
0090F0
0001F0
02FFD0
1FFF40
2F7F40
3D2FFE
7D0FFD
7D0F40
3E2F00
2FFD00
07E400
ENDCHAR
STARTCHAR uni1EDE
ENCODING 7902
SWIDTH 816 0
DWIDTH 16 0
BBX 16 23 1 0
BITMAP
0002F800
0003FE00
00001E00
0000FE05
0000F80F
0000001F
0000003F
001BFFFD
01BFFFF4
07F91BF0
0FD002F4
2F4001F8
3F0000FC
7E0000FC
BD0000FC
BD0000F8
BD0001F8
BD0002F4
7E0007E0
3F000FC0
2FD17F40
0BFFFD00
01BF9000
ENDCHAR
STARTCHAR uni1EDF
ENCODING 7903
SWIDTH 451 0
DWIDTH 9 0
BBX 12 16 0 0
BITMAP
02F800
02FE00
001E00
001E00
00FD50
00F4F0
0001F0
02FFD0
1FFF40
2F7F40
3D2FFE
7D0FFD
7D0F40
3E2F00
2FFD00
07E400
ENDCHAR
STARTCHAR uni1EE0
ENCODING 7904
SWIDTH 816 0
DWIDTH 16 0
BBX 16 22 1 0
BITMAP
000B8040
002FF6D0
007DBFC5
00101F4F
0000001F
0000003F
001BFFFD
01BFFFF4
07F91BF0
0FD002F4
2F4001F8
3F0000FC
7E0000FC
BD0000FC
BD0000F8
BD0001F8
BD0002F4
7E0007E0
3F000FC0
2FD17F40
0BFFFD00
01BF9000
ENDCHAR
STARTCHAR uni1EE1
ENCODING 7905
SWIDTH 451 0
DWIDTH 9 0
BBX 12 14 0 0
BITMAP
078280
0FFB80
2D7F50
1404F0
0001F0
02FFD0
1FFF40
2F7F44
3D2FFE
7D0FF9
7D0F40
3E1F00
2FFD00
07E400
ENDCHAR
STARTCHAR uni1EE2
ENCODING 7906
SWIDTH 816 0
DWIDTH 16 0
BBX 16 24 1 -4
BITMAP
00000005
0000000F
0000001F
0000003F
001BFFFD
01BFFFF4
07F91BF0
0FD002F4
2F4001F8
3F0000FC
7E0000FC
BD0000FC
BD0000F8
BD0001F8
BD0002F4
7E0007E0
3F000FC0
2FD17F40
0BFFFD00
01BF9000
00000000
002E0000
00BF0000
007D0000
ENDCHAR
STARTCHAR uni1EE3
ENCODING 7907
SWIDTH 451 0
DWIDTH 9 0
BBX 12 16 0 -4
BITMAP
000050
0000F0
0001F0
02FFD0
1FFF40
2F7F40
3D2FFE
7D0FFD
7D0F40
3E2F00
2FFD00
07E400
000000
07D000
0BE000
07D000
ENDCHAR
STARTCHAR uni1EE4
ENCODING 7908
SWIDTH 890 0
DWIDTH 18 0
BBX 21 20 0 -4
BITMAP
06F8000B4000
1FFE000F8000
7D7F001F8000
F03F001F4000
403E002F4000
007E003F0000
00BD003F0000
00BC007E0000
00FC00BE0000
01F801FD0000
01F402FD0000
02F407BD0100
02F41EBD0740
02F9BCBE6F00
01FFF47FFD00
006F801BE000
000000000000
0002E0000000
0007F0000000
0003E0000000
ENDCHAR
STARTCHAR uni1EE5
ENCODING 7909
SWIDTH 462 0
DWIDTH 9 0
BBX 11 13 1 -4
BITMAP
2D1E00
7C2E00
BC3D00
B87D00
F4BC04
F5F828
FFFDB8
BF7FE0
7D2E40
000000
0B8000
2FC000
1F4000
ENDCHAR
STARTCHAR uni1EE6
ENCODING 7910
SWIDTH 890 0
DWIDTH 18 0
BBX 21 23 0 0
BITMAP
00002F800000
00003FE00000
000001E00000
00000FE00000
00000F800000
000000000000
000000000000
06F8000B4000
1FFE000F8000
7D7F001F8000
F03F001F4000
403E002F4000
007E003F0000
00BD003F0000
00BC007E0000
00FC00BE0000
01F801FD0000
01F402FD0000
02F407BD0100
02F41EBD0740
02F9BCBE6F00
01FFF47FFD00
006F801BE000
ENDCHAR
STARTCHAR uni1EE7
ENCODING 7911
SWIDTH 462 0
DWIDTH 9 0
BBX 11 16 1 0
BITMAP
02F800
02FE00
000F00
001E00
00FD00
00F400
000000
2D1E00
7C2E00
BC3D00
B87D00
F4BC04
F5F828
FFFDB8
BF7FE0
7D2E40
ENDCHAR
STARTCHAR uni1EE8
ENCODING 7912
SWIDTH 890 0
DWIDTH 18 0
BBX 21 23 0 0
BITMAP
000000050000
0000002F0000
000001FE0000
000007E40500
00000A401E00
000000002E00
000000007D00
06F8000BF800
1FFE000F9000
7D7F001F8000
F03F001F4000
403E002F4000
007E003F0000
00BD003F0000
00BC007E0000
00FC00BE0000
01F801FD0000
01F402FD0000
02F407BC0100
02F41EBD0740
02F9BCBE6F00
01FFF47FFD00
006F801BE000
ENDCHAR
STARTCHAR uni1EE9
ENCODING 7913
SWIDTH 512 0
DWIDTH 10 0
BBX 12 16 1 0
BITMAP
000B40
000F80
002F00
003D00
007410
00A0B4
0001F0
2D1FE0
7C2F80
BC3D00
B87D00
F4BC01
F5F80A
FFFC6E
BF7FF8
7D2F90
ENDCHAR
STARTCHAR uni1EEA
ENCODING 7914
SWIDTH 890 0
DWIDTH 18 0
BBX 21 23 0 0
BITMAP
000500000000
002F40000000
001FE0000000
0002F8000500
00002D001E00
000000002E00
000000007D00
06F8000BF800
1FFE000F9000
7D7F001F8000
F03F001F4000
403E002F4000
007E003F0000
00BD003F0000
00BC007E0000
00FC00BE0000
01F801FD0000
01F402FD0000
02F407BC0100
02F41EBD0740
02F9BCBE6F00
01FFF47FFD00
006F801BE000
ENDCHAR
STARTCHAR uni1EEB
ENCODING 7915
SWIDTH 512 0
DWIDTH 10 0
BBX 12 16 1 0
BITMAP
1D0000
2F0000
1F4000
07C000
02D010
0090B4
0001F0
2D1FE0
7C2F80
BC3D00
B87D00
F4BC01
F5F80A
FFFC6E
BF7FF8
7D2F90
ENDCHAR
STARTCHAR uni1EEC
ENCODING 7916
SWIDTH 890 0
DWIDTH 18 0
BBX 21 23 0 0
BITMAP
00002F800000
00003FE00000
000001E00000
00000FE00500
00000F801E00
000000002E00
000000007D00
06F8000BF800
1FFE000F9000
7D7F001F8000
F03F001F4000
403E002F4000
007E003F0000
00BD003F0000
00BC007E0000
00FC00BE0000
01F801FD0000
01F402FD0000
02F407BC0100
02F41EBD0740
02F9BCBE6F00
01FFF47FFD00
006F801BE000
ENDCHAR
STARTCHAR uni1EED
ENCODING 7917
SWIDTH 512 0
DWIDTH 10 0
BBX 12 16 1 0
BITMAP
02F800
02FE00
000F00
001E00
00FD10
00F4B4
0001F0
2D1FE0
7C2F80
BC3D00
B87D00
F4BC01
F5F80A
FFFC6E
BF7FF8
7D2F90
ENDCHAR
STARTCHAR uni1EEE
ENCODING 7918
SWIDTH 890 0
DWIDTH 18 0
BBX 21 22 0 0
BITMAP
0000B8040000
0002FF6D0000
0007DBFC0500
000101F41E00
000000002E00
000000007D00
06F8000BF800
1FFE000F9000
7D7F001F8000
F03F001F4000
403E002F4000
007E003F0000
00BD003F0000
00BC007E0000
00FC00BE0000
01F801FD0000
01F402FD0000
02F407BC0100
02F41EBD0740
02F9BCBE6F00
01FFF47FFD00
006F801BE000
ENDCHAR
STARTCHAR uni1EEF
ENCODING 7919
SWIDTH 512 0
DWIDTH 10 0
BBX 12 14 1 0
BITMAP
078280
0FFB80
2D7F50
0404B4
0001F0
2D1FE0
7C2F80
BC3D00
B87D00
F4BC01
F5F80A
FFFD6E
BF7FF8
7D2F90
ENDCHAR
STARTCHAR uni1EF0
ENCODING 7920
SWIDTH 890 0
DWIDTH 18 0
BBX 21 24 0 -4
BITMAP
000000000500
000000001E00
000000002E00
000000007D00
06F8000BF800
1FFE000F9000
7D7F001F8000
F03F001F4000
403E002F4000
007E003F0000
00BD003F0000
00BC007E0000
00FC00BE0000
01F801FD0000
01F402FD0000
02F407BC0100
02F41EBD0740
02F9BCBE6F00
01FFF47FFD00
006F801BE000
000000000000
0002E0000000
0007F0000000
0003E0000000
ENDCHAR
STARTCHAR uni1EF1
ENCODING 7921
SWIDTH 512 0
DWIDTH 10 0
BBX 12 16 1 -4
BITMAP
000010
0000B4
0001F0
2D1FE0
7C2F80
BC3D00
B87D00
F4BC01
F5F80A
FFFC6E
BF7FF8
7D2F90
000000
0B8000
2FC000
1F4000
ENDCHAR
STARTCHAR Ygrave
ENCODING 7922
SWIDTH 851 0
DWIDTH 17 0
BBX 19 29 0 -6
BITMAP
0005000000
001F800000
000FE00000
0001FC0000
00001D0000
0000000000
0000000000
06F8000B40
1FFE000F80
7D7F001F80
F03F001F40
903E002F40
007E003F00
00BD007F00
00BC00BF00
00FC00FE00
00F802FE00
00F807BD00
00FD1E7D00
00BFFC7EBC
002FE5FFF8
00006FFD40
0002E4F800
000B41F400
002E02F000
003D03E000
003E1BC000
003FFF4000
000BF90000
ENDCHAR
STARTCHAR ygrave
ENCODING 7923
SWIDTH 479 0
DWIDTH 10 0
BBX 12 25 0 -9
BITMAP
074000
0BC000
07D000
01F000
00B400
002400
000000
0B4780
1F0B80
2F0F40
2E1F40
3D2F00
3D7F1E
3FFFBD
2FEFE4
1F6F40
00BD00
02FC00
0BBC00
2DB800
78F400
F1F000
F7D000
FF8000
7E0000
ENDCHAR
STARTCHAR uni1EF4
ENCODING 7924
SWIDTH 851 0
DWIDTH 17 0
BBX 19 22 0 -6
BITMAP
06F8000B40
1FFE000F80
7D7F001F80
F03F001F40
903E002F40
007E003F00
00BD007F00
00BC00BF00
00FC00FE00
00F802FE00
00F807BD00
00FD1E7D00
00BFFC7EBC
002FE5FFF8
00006FFD40
0002E4F800
000B41F400
002E02F000
003D03E000
003E1BDF80
003FFF6FC0
000BF91F40
ENDCHAR
STARTCHAR uni1EF5
ENCODING 7925
SWIDTH 479 0
DWIDTH 10 0
BBX 12 18 0 -9
BITMAP
0B4780
1F0B80
2F0F40
2E1F40
3D2F00
3D7F1E
3FFFBD
2FEFE4
1F6F40
00BD00
02FC00
0BBC00
2DB800
78F400
F1F000
F7DBC0
FF8FD0
7E0B80
ENDCHAR
STARTCHAR uni1EF6
ENCODING 7926
SWIDTH 851 0
DWIDTH 17 0
BBX 19 29 0 -6
BITMAP
00001F9000
00002FF000
000001F000
00000BE000
00000B8000
0000000000
0000000000
06F8000B40
1FFE000F80
7D7F001F80
F03F001F40
903E002F40
007E003F00
00BD007F00
00BC00BF00
00FC00FE00
00F802FE00
00F807BD00
00FD1E7D00
00BFFC7EBC
002FE5FFF8
00006FFD40
0002E4F800
000B41F400
002E02F000
003D03E000
003E1BC000
003FFF4000
000BF90000
ENDCHAR
STARTCHAR uni1EF7
ENCODING 7927
SWIDTH 479 0
DWIDTH 10 0
BBX 12 25 0 -9
BITMAP
00BE00
00BF80
0003C0
000780
003F40
003D00
000000
0B4780
1F0B80
2F0F40
2E1F40
3D2F00
3D7F1E
3FFFBD
2FEFE4
1F6F40
00BD00
02FC00
0BBC00
2DB800
78F400
F1F000
F7D000
FF8000
7E0000
ENDCHAR
STARTCHAR uni1EF8
ENCODING 7928
SWIDTH 851 0
DWIDTH 17 0
BBX 19 28 0 -6
BITMAP
0000B80500
0001FF6E00
0003DBFD00
000141F400
0000000000
0000000000
06F8000B40
1FFE000F80
7D7F001F80
F03F001F40
903E002F40
007E003F00
00BD007F00
00BC00BF00
00FC00FE00
00F802FE00
00F807BD00
00FD1E7D00
00BFFC7EBC
002FE5FFF8
00006FFD40
0002E4F800
000B41F400
002E02F000
003D03E000
003E1BC000
003FFF4000
000BF90000
ENDCHAR
STARTCHAR uni1EF9
ENCODING 7929
SWIDTH 479 0
DWIDTH 10 0
BBX 12 23 0 -9
BITMAP
02E010
0BFDB4
0F6FF0
0507D0
000000
0B4780
1F0B80
2F0F40
2E1F40
3D2F00
3D7F1E
3FFFBD
2FEFE4
1F6F40
00BD00
02FC00
0BBC00
2DB800
78F400
F1F000
F7D000
FF8000
7E0000
ENDCHAR
STARTCHAR endash
ENCODING 8211
SWIDTH 484 0
DWIDTH 10 0
BBX 8 2 1 5
BITMAP
BFFE
BFFE
ENDCHAR
STARTCHAR emdash
ENCODING 8212
SWIDTH 620 0
DWIDTH 12 0
BBX 11 2 1 5
BITMAP
BFFFF8
BFFFF4
ENDCHAR
STARTCHAR quoteleft
ENCODING 8216
SWIDTH 237 0
DWIDTH 5 0
BBX 4 7 2 11
BITMAP
0E
2E
3D
BD
FD
FC
10
ENDCHAR
STARTCHAR quoteright
ENCODING 8217
SWIDTH 236 0
DWIDTH 5 0
BBX 4 7 2 11
BITMAP
2E
3F
7E
7D
BC
B4
50
ENDCHAR
STARTCHAR quotesinglbase
ENCODING 8218
SWIDTH 257 0
DWIDTH 5 0
BBX 4 7 0 -3
BITMAP
05
3F
7F
7E
7C
B8
B0
ENDCHAR
STARTCHAR quotedblleft
ENCODING 8220
SWIDTH 457 0
DWIDTH 9 0
BBX 8 7 2 11
BITMAP
0E0B
2E1F
3D2E
BD3E
FD7E
FC7D
1014
ENDCHAR
STARTCHAR quotedblright
ENCODING 8221
SWIDTH 456 0
DWIDTH 9 0
BBX 9 7 2 11
BITMAP
2E1F00
3F2F40
7E3F00
7D3E00
BC3D00
B47800
501000
ENDCHAR
STARTCHAR quotedblbase
ENCODING 8222
SWIDTH 477 0
DWIDTH 10 0
BBX 9 7 0 -3
BITMAP
050500
3F2F40
7F2F40
7E3F00
7C3E00
B83C00
B07400
ENDCHAR
STARTCHAR dagger
ENCODING 8224
SWIDTH 588 0
DWIDTH 12 0
BBX 10 13 2 5
BITMAP
007400
00B800
00B400
3FFFD0
7FFFD0
01F000
01E000
02E000
02E000
03D000
03D000
03C000
038000
ENDCHAR
STARTCHAR daggerdbl
ENCODING 8225
SWIDTH 588 0
DWIDTH 12 0
BBX 10 13 2 5
BITMAP
007800
00B800
00B400
3FFFD0
7FFFD0
01F000
01E000
01E000
BFFF80
FFFF80
03D000
03C000
038000
ENDCHAR
STARTCHAR bullet
ENCODING 8226
SWIDTH 512 0
DWIDTH 10 0
BBX 7 6 2 2
BITMAP
2F90
BFF0
FFF4
FFF0
BFE0
2F80
ENDCHAR
STARTCHAR ellipsis
ENCODING 8230
SWIDTH 777 0
DWIDTH 16 0
BBX 15 4 0 0
BITMAP
2E0B81F4
7F4FD3F8
7F1FD3F8
2E0B81E0
ENDCHAR
STARTCHAR perthousand
ENCODING 8240
SWIDTH 1277 0
DWIDTH 26 0
BBX 25 15 1 0
BITMAP
0A800240000000
3FF00BC0000000
B9F86F80000000
F4FFFF00000000
F4BFFD00000000
F8B4F800000000
7FE2F400000000
1A43E0A801A400
000BC7FF0BFE00
001F4B4F5F5F00
003E0F0BAE0F40
007D1F0BAE0F40
00F80F0F6E1F00
01F00BFE0FBD00
01D002F806F400
ENDCHAR
STARTCHAR guilsinglleft
ENCODING 8249
SWIDTH 350 0
DWIDTH 7 0
BBX 6 7 0 1
BITMAP
01E0
0BE0
7F40
7D00
2F80
0BE0
01E0
ENDCHAR
STARTCHAR guilsinglright
ENCODING 8250
SWIDTH 350 0
DWIDTH 7 0
BBX 6 7 1 1
BITMAP
B400
BE00
2F80
07D0
1FD0
BE00
B400
ENDCHAR
STARTCHAR fraction
ENCODING 8260
SWIDTH 200 0
DWIDTH 4 0
BBX 9 12 -2 2
BITMAP
000740
000F40
002F00
007D00
00F800
02F000
07D000
0B8000
1F0000
3D0000
B80000
740000
ENDCHAR
STARTCHAR uni2074
ENCODING 8308
SWIDTH 450 0
DWIDTH 9 0
BBX 9 10 1 7
BITMAP
02D000
07C000
0B9D00
0F2D00
2E3D00
3D3C00
7FFF40
2FFF00
007800
007400
ENDCHAR
STARTCHAR colonmonetary
ENCODING 8353
SWIDTH 517 0
DWIDTH 10 0
BBX 12 15 0 -2
BITMAP
0001CD
00179C
01FFF8
07EFF0
0F9DF0
2F3AF0
2E7390
3EDB00
3FCD00
2F6810
1FB5E0
0FFFD0
2EFE40
768000
A30000
ENDCHAR
STARTCHAR franc
ENCODING 8355
SWIDTH 750 0
DWIDTH 15 0
BBX 14 11 1 0
BITMAP
7FFFFD00
7FFFF800
3E000B40
3D002F80
7FFE7F80
7FFEFFD0
BC2FE7E0
B82FC780
F82F4000
F42F0000
B01E0000
ENDCHAR
STARTCHAR lira
ENCODING 8356
SWIDTH 525 0
DWIDTH 11 0
BBX 11 11 0 0
BITMAP
00BF90
02FFF4
07D1F4
0B8060
3FFD00
1F5000
7FFD00
1F5000
2F4000
BFFFF0
7FFFE0
ENDCHAR
STARTCHAR uni20A6
ENCODING 8358
SWIDTH 672 0
DWIDTH 13 0
BBX 13 12 0 0
BITMAP
01400500
03D00F40
07E00F40
07F41F40
0BFC1F00
0BBE1F00
7FFFFFC0
1F5BBE00
7FFFFF80
2F56FD00
2F00BC00
1E003800
ENDCHAR
STARTCHAR peseta
ENCODING 8359
SWIDTH 1085 0
DWIDTH 22 0
BBX 22 12 0 0
BITMAP
1BF902E00000
3FFF43E00000
1F5BC3D00000
0F47FFFF0A00
1F07FFFE2E00
1F0BCB803D00
2E1F8B807E00
2FBE0F40FF80
3FA40F42DBD0
3D000B8B83D0
7D0007FE7FC0
3C0002F82E40
ENDCHAR
STARTCHAR uni20A9
ENCODING 8361
SWIDTH 775 0
DWIDTH 16 0
BBX 16 12 0 0
BITMAP
06409028
0B42E07C
3FFFFFFF
0B97E5F4
0B47E0F4
7FFFFFFE
1B9FE6E4
0B9EE7C0
07ADEB80
07F9EF00
03F4FD00
02E0B800
ENDCHAR
STARTCHAR dong
ENCODING 8363
SWIDTH 463 0
DWIDTH 9 0
BBX 11 18 0 -3
BITMAP
000050
0002F0
0003E0
0FFFF8
0FFFF4
0007C0
01BFC0
0BFF80
1F9F80
3E1F40
7D1F40
7C2F00
7D7F00
3FFF00
1F5E00
000000
BFFF80
BFFF80
ENDCHAR
STARTCHAR Euro
ENCODING 8364
SWIDTH 552 0
DWIDTH 11 0
BBX 11 11 0 0
BITMAP
006FE0
01FFF8
07E078
0B8078
7FFD10
1F4000
7FFC00
0F4014
0BD1B4
03FFE0
00BF80
ENDCHAR
STARTCHAR uni20AD
ENCODING 8365
SWIDTH 590 0
DWIDTH 12 0
BBX 12 12 0 0
BITMAP
014014
07C03D
07C0BC
0B81F4
0B87D0
1FBFA4
7FFFFD
1F6F00
1F0F80
2E0BD0
2E03FF
2D00BE
ENDCHAR
STARTCHAR uni20AE
ENCODING 8366
SWIDTH 513 0
DWIDTH 10 0
BBX 10 11 1 0
BITMAP
7FFFD0
BFFFD0
01F000
01E800
07F800
7BD500
07FD00
2FC000
178000
0B8000
074000
ENDCHAR
STARTCHAR uni20B1
ENCODING 8369
SWIDTH 557 0
DWIDTH 11 0
BBX 12 12 0 0
BITMAP
015400
1FFF80
0BD7D0
7FFFFD
0B82E0
BFFFFC
0F5F80
0FFE00
1FA400
1F0000
2F0000
1E0000
ENDCHAR
STARTCHAR uni20B2
ENCODING 8370
SWIDTH 599 0
DWIDTH 12 0
BBX 11 17 1 -3
BITMAP
002800
003800
007400
06FF40
1FFFD0
3EB2E0
BCB2D0
B8A180
F8A000
F4D7F4
B8D7F4
7ED6F4
2FFFF0
07F9F0
0280E0
028050
010000
ENDCHAR
STARTCHAR uni20B4
ENCODING 8372
SWIDTH 570 0
DWIDTH 11 0
BBX 11 11 0 0
BITMAP
01BE40
0BFFD0
0F46E0
0502E0
2FFFF8
000000
7FFFF8
0F4050
1F41F0
0FFFE0
02FE40
ENDCHAR
STARTCHAR uni20B5
ENCODING 8373
SWIDTH 517 0
DWIDTH 10 0
BBX 9 17 1 -3
BITMAP
002800
003800
007800
07FF40
1FFBC0
3E73C0
BCB3C0
B8A140
F4A000
F4D000
B8D040
7ED780
2FFF40
0BF900
028000
028000
010000
ENDCHAR
STARTCHAR uni20B8
ENCODING 8376
SWIDTH 522 0
DWIDTH 10 0
BBX 10 11 1 0
BITMAP
7FFFD0
BFFFD0
000000
BFFFC0
FFFFC0
02D000
03D000
03C000
07C000
078000
074000
ENDCHAR
STARTCHAR uni20B9
ENCODING 8377
SWIDTH 511 0
DWIDTH 10 0
BBX 11 12 0 0
BITMAP
2FFFF8
05BD50
003D00
3FFFF4
057E40
01BC00
7FE000
7FD000
02F400
00FD00
007FF0
001BD0
ENDCHAR
STARTCHAR uni20BA
ENCODING 8378
SWIDTH 452 0
DWIDTH 9 0
BBX 9 12 0 0
BITMAP
014000
07C000
0BDD00
0BF800
0F9400
7FBC00
1FE000
6F4000
BF02C0
1F0B80
1FFE00
0BE400
ENDCHAR
STARTCHAR uni20BC
ENCODING 8380
SWIDTH 673 0
DWIDTH 13 0
BBX 13 14 0 0
BITMAP
00028000
00028000
00038000
006FF400
01FFFC00
03FBBE00
0BD72F00
0F8B1F40
2F4A0F40
3F0E0F40
3E0E0F40
7D0D0F40
BC1D1F40
B81C0F00
ENDCHAR
STARTCHAR uni20BD
ENCODING 8381
SWIDTH 505 0
DWIDTH 10 0
BBX 10 12 0 0
BITMAP
07FE40
1FFFC0
0BC7E0
07C2E0
0B82E0
0B83D0
0F9F80
7FF900
1F4000
BFFC00
2F5000
1E0000
ENDCHAR
STARTCHAR uni2116
ENCODING 8470
SWIDTH 1198 0
DWIDTH 24 0
BBX 23 16 1 0
BITMAP
07C0BF801FD0
0BD7FFE07FF4
0BDF87F0F8B8
0FBD03F0F0B8
0FF403F0F4F4
0FF003E0BFF0
1FD007E02F80
1FC007D00000
2F800BD3FFE0
2F400BC3FFE0
3F000FC00000
3F000F800000
7E001F800000
7E001F400000
7D002F400000
7C001E000000
ENDCHAR
STARTCHAR trademark
ENCODING 8482
SWIDTH 1150 0
DWIDTH 23 0
BBX 20 9 2 8
BITMAP
000061A469
BFFDBBFDFF
0740BD3F4F
0B40F83E0F
0F00F03C1E
0F01E07C1E
1E01E0782D
1E01D0782D
0500401014
ENDCHAR
STARTCHAR partialdiff
ENCODING 8706
SWIDTH 451 0
DWIDTH 9 0
BBX 9 16 0 0
BITMAP
1E4000
0BE000
01FC00
007E00
002F40
000F80
000BC0
02FFC0
1FFFC0
2F4BC0
3D0BC0
7D0B80
7D0F40
3E2F00
2FFD00
07E400
ENDCHAR
STARTCHAR product
ENCODING 8719
SWIDTH 700 0
DWIDTH 14 0
BBX 13 18 1 0
BITMAP
01555500
0BFFFF80
0BFFFF80
0F800F40
0F401F40
1F401F00
1F002F00
1F002F00
2F002E00
2E003E00
3E003D00
3D007D00
7D007C00
7D007C00
7C00BC00
BC00B800
B800F800
50005000
ENDCHAR
STARTCHAR summation
ENCODING 8721
SWIDTH 700 0
DWIDTH 14 0
BBX 13 17 1 0
BITMAP
0BFFFF80
0FFFFF80
07E55500
02F40000
00BD0000
003F4000
000FC000
0007F000
0002F400
000BE000
002F8000
00BD0000
02F40000
0FD00000
7F955000
BFFFFC00
BFFFF800
ENDCHAR
STARTCHAR minus
ENCODING 8722
SWIDTH 700 0
DWIDTH 14 0
BBX 12 2 1 5
BITMAP
7FFFFE
7FFFFD
ENDCHAR
STARTCHAR uni2215
ENCODING 8725
SWIDTH 700 0
DWIDTH 14 0
BBX 11 19 2 0
BITMAP
000028
0000BC
0000F8
0002F0
0003E0
000BC0
001F80
002F00
007D00
00BC00
01F400
02F000
07D000
0F8000
1F4000
3E0000
7D0000
F80000
B40000
ENDCHAR
STARTCHAR uni2219
ENCODING 8729
SWIDTH 700 0
DWIDTH 14 0
BBX 4 4 5 3
BITMAP
7D
BF
BE
7D
ENDCHAR
STARTCHAR radical
ENCODING 8730
SWIDTH 700 0
DWIDTH 14 0
BBX 14 18 1 -1
BITMAP
000000E0
000002E0
000003D0
00000780
00000F40
00001F00
00002D00
00007C00
BF00B800
BF40F000
0782E000
03C3D000
02D78000
01EB4000
00FF0000
00BD0000
007C0000
00100000
ENDCHAR
STARTCHAR infinity
ENCODING 8734
SWIDTH 700 0
DWIDTH 14 0
BBX 14 8 0 2
BITMAP
07E47E40
2FFEFFC0
3E7FD7D0
7C1F42E0
7C0F42E0
7D6FD7D0
2FFBFF80
0BE0BE00
ENDCHAR
STARTCHAR integral
ENCODING 8747
SWIDTH 700 0
DWIDTH 14 0
BBX 13 25 1 -6
BITMAP
0000BF40
0003FF40
000BD400
000F8000
000F4000
001F4000
001F4000
001F0000
002F0000
002F0000
003E0000
003E0000
003E0000
007D0000
007D0000
007C0000
00BC0000
00BC0000
00F80000
00F80000
00F80000
01F40000
16F00000
FFE00000
BE400000
ENDCHAR
STARTCHAR approxequal
ENCODING 8776
SWIDTH 700 0
DWIDTH 14 0
BBX 12 10 1 1
BITMAP
07D00B
1FFD2F
2E7FBD
3D07F8
140050
054004
2FE43D
7EFEBC
B82FF4
5006E0
ENDCHAR
STARTCHAR notequal
ENCODING 8800
SWIDTH 700 0
DWIDTH 14 0
BBX 12 13 1 -1
BITMAP
000040
0002D0
0007C0
2FFFFE
3FFFFE
002E00
003C00
00B800
7FFFFD
7FFFFC
03D000
078000
010000
ENDCHAR
STARTCHAR lessequal
ENCODING 8804
SWIDTH 700 0
DWIDTH 14 0
BBX 12 12 1 0
BITMAP
000005
0005BF
01BFF9
2FFE40
3FD000
2FF940
01BFF8
0006FD
000014
155554
BFFFFD
7FFFFC
ENDCHAR
STARTCHAR greaterequal
ENCODING 8805
SWIDTH 700 0
DWIDTH 14 0
BBX 12 12 1 0
BITMAP
050000
2FE400
1BFF90
006FFD
0001FE
006FFD
2FFE90
7F9000
140000
155554
BFFFFD
7FFFFC
ENDCHAR
STARTCHAR lozenge
ENCODING 9674
SWIDTH 700 0
DWIDTH 14 0
BBX 11 19 2 0
BITMAP
001E00
003F00
007F40
00FB80
02E7C0
07D3D0
0B82E0
1F01F0
3E00F4
7C00B4
3C01F0
2D02D0
1E07C0
0F0F40
0B5E00
0BBD00
07F800
03F000
01D000
ENDCHAR
STARTCHAR fi
ENCODING 64257
SWIDTH 633 0
DWIDTH 13 0
BBX 16 24 0 -6
BITMAP
000B8000
002FE000
007DE000
00F4E000
01F1E000
02E2DB80
03D39FD0
07DB0B80
0BEC0000
7FFFFE00
7FFFFE00
1F403E00
1F583D00
1F1D7D04
1F1D7C1D
1F1D7DBC
1F1D3FF0
1F1D1F80
1F1D0000
1F5D0000
1F6C0000
0FB80000
0BF40000
02D00000
ENDCHAR
STARTCHAR fl
ENCODING 64258
SWIDTH 688 0
DWIDTH 14 0
BBX 16 24 1 -6
BITMAP
006D02E0
01FF0BF8
03DB5E78
07CB6D38
0B8B7C78
1F4FB878
2F1DB4B4
2E3CF4F0
3D75F1E0
7EE1F2C0
7F82F780
BE02FF00
BC02FD00
BAFFF000
FBFFF01D
FB81F47C
FAC0BFF4
F9C02F80
F9C00000
B9D00000
B9D00000
BDC00000
7F800000
2F400000
ENDCHAR
STARTCHAR .notdef
ENCODING -1
SWIDTH 265 0
DWIDTH 5 0
BBX 1 1 0 0
BITMAP
00
ENDCHAR
STARTCHAR Iacute_J.loclNLD
ENCODING -1
SWIDTH 776 0
DWIDTH 16 0
BBX 17 23 2 0
BITMAP
0005000140
002F400BC0
00BF407F80
03F801F900
0780029000
0000000000
0000000000
1E000B4000
3F000F8000
3F000F8000
3E001F8000
7E001F8000
7D002F4000
BD007F4000
BD00FF0000
BE07EF0000
7FFFAF0000
2FFE3E0000
01507D0000
0000BC0000
F906F40000
FFFFD00000
1BFE000000
ENDCHAR
STARTCHAR A.ss01
ENCODING -1
SWIDTH 780 0
DWIDTH 16 0
BBX 16 16 1 0
BITMAP
0001BFF9
002FFFFD
01FF5054
07F40190
0FD003E0
2F8007D0
3F000BC0
7E000FC0
BD001F80
BD002F80
FC003F40
BD007F40
BD00FF00
7F46FF00
2FFF7F00
06F92E00
ENDCHAR
STARTCHAR Aacute.ss01
ENCODING -1
SWIDTH 780 0
DWIDTH 16 0
BBX 16 23 1 0
BITMAP
00000005
0000002F
000000FE
000007F4
00000B40
00000000
00000000
0001BFF9
002FFFFD
01FF5054
07F40190
0FD003E0
2F8007D0
3F000BC0
7E000FC0
BD001F80
BD002F80
FC003F40
BD007F40
BD00FF00
7F46FF00
2FFF7F00
06F92E00
ENDCHAR
STARTCHAR Abreve.ss01
ENCODING -1
SWIDTH 780 0
DWIDTH 16 0
BBX 16 22 1 0
BITMAP
00014004
0003E47D
0001FFF8
00006F90
00000000
00000000
0001BFF9
002FFFFD
01FF5054
07F40190
0FD003E0
2F8007D0
3F000BC0
7E000FC0
BD001F80
BD002F80
FC003F40
BD007F40
BD00FF00
7F46FF00
2FFF7F00
06F92E00
ENDCHAR
STARTCHAR uni1EAE.ss01
ENCODING -1
SWIDTH 780 0
DWIDTH 16 0
BBX 16 24 1 0
BITMAP
000000B4
000002F4
00014254
0003E07D
0001FFF8
00007FE0
00000000
00000000
0001BFF9
002FFFFD
01FF5054
07F40190
0FD003E0
2F8007D0
3F000BC0
7E000FC0
BD001F80
BD002F80
FC003F40
BD007F40
BD00FF00
7F46FF00
2FFF7F00
06F92E00
ENDCHAR
STARTCHAR uni1EB6.ss01
ENCODING -1
SWIDTH 780 0
DWIDTH 16 0
BBX 16 26 1 -4
BITMAP
00014004
0003E47D
0001FFF8
00006F90
00000000
00000000
0001BFF9
002FFFFD
01FF5054
07F40190
0FD003E0
2F8007D0
3F000BC0
7E000FC0
BD001F80
BD002F80
FC003F40
BD007F40
BD00FF00
7F46FF00
2FFF7F00
06F92E00
00000000
002E0000
007F0000
007E0000
ENDCHAR
STARTCHAR uni1EB0.ss01
ENCODING -1
SWIDTH 780 0
DWIDTH 16 0
BBX 16 24 1 0
BITMAP
00007800
00007E00
00014604
0003E03D
0001FFF8
00006FD0
00000000
00000000
0001BFF9
002FFFFD
01FF5054
07F40190
0FD003E0
2F8007D0
3F000BC0
7E000FC0
BD001F80
BD002F80
FC003F40
BD007F40
BD00FF00
7F46FF00
2FFF7F00
06F92E00
ENDCHAR
STARTCHAR uni1EB2.ss01
ENCODING -1
SWIDTH 780 0
DWIDTH 16 0
BBX 16 25 1 0
BITMAP
00001F80
000005D0
000001D0
00000B80
0002E57D
0002FFFC
00006FE0
00000000
00000000
0001BFF9
002FFFFD
01FF5054
07F40190
0FD003E0
2F8007D0
3F000BC0
7E000FC0
BD001F80
BD002F80
FC003F40
BD007F40
BD00FF00
7F46FF00
2FFF7F00
06F92E00
ENDCHAR
STARTCHAR uni1EB4.ss01
ENCODING -1
SWIDTH 780 0
DWIDTH 16 0
BBX 16 26 1 0
BITMAP
00001400
00007E0E
0000FBED
0001D1B4
00014004
0003E03D
0001FFF8
00006F90
00000000
00000000
0001BFF9
002FFFFD
01FF5054
07F40190
0FD003E0
2F8007D0
3F000BC0
7E000FC0
BD001F80
BD002F80
FC003F40
BD007F40
BD00FF00
7F46FF00
2FFF7F00
06F92E00
ENDCHAR
STARTCHAR Acircumflex.ss01
ENCODING -1
SWIDTH 780 0
DWIDTH 16 0
BBX 16 23 1 0
BITMAP
00000B80
00002FD0
000079F0
0001F4F4
0001E074
00000000
00000000
0001BFF9
002FFFFD
01FF5054
07F40190
0FD003E0
2F8007D0
3F000BC0
7E000FC0
BD001F80
BD002F80
FC003F40
BD007F40
BD00FF00
7F46FF00
2FFF7F00
06F92E00
ENDCHAR
STARTCHAR uni1EA4.ss01
ENCODING -1
SWIDTH 780 0
DWIDTH 16 0
BBX 18 25 1 0
BITMAP
0000000140
00000007D0
0000001F80
00000B9400
00003FE000
0000B9F000
0001E0B400
0000000000
0000000000
0001BFF900
002FFFFD00
01FF505400
07F4019000
0FD003E000
2F8007D000
3F000BC000
7E000FC000
BD001F8000
BD002F8000
FC003F4000
BD007F4000
BD00FF0000
7F46FF0000
2FFF7F0000
06F92E0000
ENDCHAR
STARTCHAR uni1EAC.ss01
ENCODING -1
SWIDTH 780 0
DWIDTH 16 0
BBX 16 27 1 -4
BITMAP
00000B80
00002FD0
000079F0
0001F4F4
0001E074
00000000
00000000
0001BFF9
002FFFFD
01FF5054
07F40190
0FD003E0
2F8007D0
3F000BC0
7E000FC0
BD001F80
BD002F80
FC003F40
BD007F40
BD00FF00
7F46FF00
2FFF7F00
06F92E00
00000000
002E0000
007F0000
007E0000
ENDCHAR
STARTCHAR uni1EA6.ss01
ENCODING -1
SWIDTH 780 0
DWIDTH 16 0
BBX 16 25 1 0
BITMAP
00050000
000F4000
000BD000
00005B80
00003FE0
0000B9F0
0001E0B4
00000000
00000000
0001BFF9
002FFFFD
01FF5054
07F40190
0FD003E0
2F8007D0
3F000BC0
7E000FC0
BD001F80
BD002F80
FC003F40
BD007F40
BD00FF00
7F46FF00
2FFF7F00
06F92E00
ENDCHAR
STARTCHAR uni1EA8.ss01
ENCODING -1
SWIDTH 780 0
DWIDTH 16 0
BBX 18 24 1 0
BITMAP
0000001F80
00000002D0
00000001D0
00001B8F80
00007EE000
0001F4B400
0000000000
0000000000
0001BFF900
002FFFFD00
01FF505400
07F4019000
0FD003E000
2F8007D000
3F000BC000
7E000FC000
BD001F8000
BD002F8000
FC003F4000
BD007F4000
BD00FF0000
7F46FF0000
2FFF7F0000
06F92E0000
ENDCHAR
STARTCHAR uni1EAA.ss01
ENCODING -1
SWIDTH 780 0
DWIDTH 16 0
BBX 16 25 1 0
BITMAP
00002D0D
0000BBEC
000090A4
00000B80
00002FE0
0000B9F0
0001E0B4
00000000
00000000
0001BFF9
002FFFFD
01FF5054
07F40190
0FD003E0
2F8007D0
3F000BC0
7E000FC0
BD001F80
BD002F80
FC003F40
BD007F40
BD00FF00
7F46FF00
2FFF7F00
06F92E00
ENDCHAR
STARTCHAR uni0200.ss01
ENCODING -1
SWIDTH 780 0
DWIDTH 16 0
BBX 16 23 1 0
BITMAP
00014100
0003D780
0003E7C0
0001E2D0
0000A0D0
00000000
00000000
0001BFF9
002FFFFD
01FF5054
07F40190
0FD003E0
2F8007D0
3F000BC0
7E000FC0
BD001F80
BD002F80
FC003F40
BD007F40
BD00FF00
7F46FF00
2FFF7F00
06F92E00
ENDCHAR
STARTCHAR Adieresis.ss01
ENCODING -1
SWIDTH 780 0
DWIDTH 16 0
BBX 16 21 1 0
BITMAP
0000B4B4
0001F9F8
0000F4B4
00000000
00000000
0001BFF9
002FFFFD
01FF5054
07F40190
0FD003E0
2F8007D0
3F000BC0
7E000FC0
BD001F80
BD002F80
FC003F40
BD007F40
BD00FF00
7F46FF00
2FFF7F00
06F92E00
ENDCHAR
STARTCHAR uni1EA0.ss01
ENCODING -1
SWIDTH 780 0
DWIDTH 16 0
BBX 16 20 1 -4
BITMAP
0001BFF9
002FFFFD
01FF5054
07F40190
0FD003E0
2F8007D0
3F000BC0
7E000FC0
BD001F80
BD002F80
FC003F40
BD007F40
BD00FF00
7F46FF00
2FFF7F00
06F92E00
00000000
002E0000
007F0000
007E0000
ENDCHAR
STARTCHAR Agrave.ss01
ENCODING -1
SWIDTH 780 0
DWIDTH 16 0
BBX 16 23 1 0
BITMAP
00050000
001F4000
001FE000
0002F800
00002D00
00000000
00000000
0001BFF9
002FFFFD
01FF5054
07F40190
0FD003E0
2F8007D0
3F000BC0
7E000FC0
BD001F80
BD002F80
FC003F40
BD007F40
BD00FF00
7F46FF00
2FFF7F00
06F92E00
ENDCHAR
STARTCHAR uni1EA2.ss01
ENCODING -1
SWIDTH 780 0
DWIDTH 16 0
BBX 16 23 1 0
BITMAP
00001F90
00002FF0
000001F0
00000FE0
00000F80
00000000
00000000
0001BFF9
002FFFFD
01FF5054
07F40190
0FD003E0
2F8007D0
3F000BC0
7E000FC0
BD001F80
BD002F80
FC003F40
BD007F40
BD00FF00
7F46FF00
2FFF7F00
06F92E00
ENDCHAR
STARTCHAR uni0202.ss01
ENCODING -1
SWIDTH 780 0
DWIDTH 16 0
BBX 16 22 1 0
BITMAP
00006FE4
0001FFFC
0002E07D
00014014
00000000
00000000
0001BFF9
002FFFFD
01FF5054
07F40190
0FD003E0
2F8007D0
3F000BC0
7E000FC0
BD001F80
BD002F80
FC003F40
BD007F40
BD00FF00
7F46FF00
2FFF7F00
06F92E00
ENDCHAR
STARTCHAR Amacron.ss01
ENCODING -1
SWIDTH 780 0
DWIDTH 16 0
BBX 16 20 1 0
BITMAP
0000FFF0
0000FFF0
00000000
00000000
0001BFF9
002FFFFD
01FF5054
07F40190
0FD003E0
2F8007D0
3F000BC0
7E000FC0
BD001F80
BD002F80
FC003F40
BD007F40
BD00FF00
7F46FF00
2FFF7F00
06F92E00
ENDCHAR
STARTCHAR Aogonek.ss01
ENCODING -1
SWIDTH 780 0
DWIDTH 16 0
BBX 16 21 1 -5
BITMAP
0001BFF9
002FFFFD
01FF5054
07F40190
0FD003E0
2F8007D0
3F000BC0
7E000FC0
BD001F80
BD002F80
FC003F40
BD007F40
BD00FF00
7F46FF00
2FFF7F00
06F93E00
0000B400
0001E000
0001F540
0000FFC0
00006F40
ENDCHAR
STARTCHAR Aring.ss01
ENCODING -1
SWIDTH 780 0
DWIDTH 16 0
BBX 16 24 1 0
BITMAP
00001F80
00003FE0
000078F0
000079F0
00003FE0
00001F80
00000000
00000000
0001BFF9
002FFFFD
01FF5054
07F40190
0FD003E0
2F8007D0
3F000BC0
7E000FC0
BD001F80
BD002F80
FC003F40
BD007F40
BD00FF00
7F46FF00
2FFF7F00
06F92E00
ENDCHAR
STARTCHAR Aringacute.ss01
ENCODING -1
SWIDTH 780 0
DWIDTH 16 0
BBX 19 25 1 0
BITMAP
00000000B4
00000002F4
00001FDB90
00003FF500
000079F000
00003FE000
00001F8000
0000000000
0000000000
0001BFF900
002FFFFD00
01FF505400
07F4019000
0FD003E000
2F8007D000
3F000BC000
7E000FC000
BD001F8000
BD002F8000
FC003F4000
BD007F4000
BD00FF0000
7F46FF0000
2FFF7F0000
06F92E0000
ENDCHAR
STARTCHAR Atilde.ss01
ENCODING -1
SWIDTH 780 0
DWIDTH 16 0
BBX 16 22 1 0
BITMAP
0000B805
0002FF6E
0003DBFC
000141F4
00000000
00000000
0001BFF9
002FFFFD
01FF5054
07F40190
0FD003E0
2F8007D0
3F000BC0
7E000FC0
BD001F80
BD002F80
FC003F40
BD007F40
BD00FF00
7F46FF00
2FFF7F00
06F92E00
ENDCHAR
STARTCHAR AE.ss01
ENCODING -1
SWIDTH 1057 0
DWIDTH 21 0
BBX 21 16 1 0
BITMAP
0006F87FFF40
006FF8FFFF40
01FF91F40000
07F402F00000
0FD003E00000
2F8007E00000
3F000BD00000
7E000FFFFC00
BD001FFFFC00
BC002F800000
FC003F800000
BD007F800000
BD00FFC00000
7F47EBF51600
1FFF82FFFF00
06F9006FF900
ENDCHAR
STARTCHAR AEacute.ss01
ENCODING -1
SWIDTH 1057 0
DWIDTH 21 0
BBX 21 23 1 0
BITMAP
000000005000
00000002F400
0000000BF000
0000003F8000
000000740000
000000000000
000000000000
0006F87FFF40
006FF8FFFF40
01FF91F40000
07F402F00000
0FD003E00000
2F8007E00000
3F000BD00000
7E000FFFFC00
BD001FFFFC00
BC002F800000
FC003F800000
BD007F800000
BD00FFC00000
7F47EBF51600
1FFF82FFFF00
06F9006FF900
ENDCHAR
STARTCHAR B.ss01
ENCODING -1
SWIDTH 826 0
DWIDTH 17 0
BBX 15 16 1 0
BITMAP
01AFFE40
0BFFFFE0
069417F8
000000FC
07D000FC
0BD001FC
0FC01BF4
1F87FF80
1F47FE40
2F405FD0
2F0007E0
3F0007E0
3E000BD0
3E017FC0
7FFFFE00
2FFF9000
ENDCHAR
STARTCHAR C.ss01
ENCODING -1
SWIDTH 704 0
DWIDTH 14 0
BBX 13 16 1 0
BITMAP
001BF900
00BFFF40
07F91F80
0FD00BC0
2F400BC0
3F000B80
7E000100
BD000000
BD000000
BD000000
BD000000
7E000040
3F0002C0
1FD06F80
0BFFFE00
01BFA000
ENDCHAR
STARTCHAR Cacute.ss01
ENCODING -1
SWIDTH 704 0
DWIDTH 14 0
BBX 14 23 1 0
BITMAP
00000050
000003F0
00001FE0
00007E40
0000A400
00000000
00000000
001BF900
00BFFF40
07F91F80
0FD00BC0
2F400BC0
3F000B80
7E000100
BD000000
BD000000
BD000000
BD000000
7E000040
3F0002C0
1FD06F80
0BFFFE00
01BFA000
ENDCHAR
ENDFONT
